TiroKannada-Italic.ufo
<glyph name="dUdatta" format="2">
  <unicode hex="0951"/>
  <outline>
    <contour>
      <point x="98" y="645" type="line"/>
      <point x="147" y="897" type="line"/>
      <point x="105" y="897" type="line"/>
      <point x="56" y="645" type="line"/>
    </contour>
  </outline>
</glyph>
<glyph name="dAnudatta" format="2">
  <unicode hex="0952"/>
  <outline>
    <contour>
      <point x="124" y="-323" type="line"/>
      <point x="133" y="-276" type="line"/>
      <point x="-337" y="-276" type="line"/>
      <point x="-346" y="-323" type="line"/>
    </contour>
  </outline>
</glyph>
<glyph name="Danda" format="2">
  <advance width="210"/>
  <unicode hex="0964"/>
  <outline>
    <contour>
      <point x="79" y="-15" type="line"/>
      <point x="190" y="558" type="line"/>
      <point x="140" y="558" type="line"/>
      <point x="29" y="-15" type="line"/>
    </contour>
  </outline>
</glyph>
<glyph name="DoubleDanda" format="2">
  <advance width="390"/>
  <unicode hex="0965"/>
  <outline>
    <contour>
      <point x="259" y="-15" type="line"/>
      <point x="370" y="558" type="line"/>
      <point x="320" y="558" type="line"/>
      <point x="209" y="-15" type="line"/>
    </contour>
    <contour>
      <point x="79" y="-15" type="line"/>
      <point x="190" y="558" type="line"/>
      <point x="140" y="558" type="line"/>
      <point x="29" y="-15" type="line"/>
    </contour>
  </outline>
</glyph>
<glyph name="kCandrabinduSpacing" format="2">
  <advance width="582"/>
  <unicode hex="0C80"/>
  <outline>
    <contour>
      <point x="257" y="-15" type="curve" smooth="yes"/>
      <point x="420" y="-15"/>
      <point x="525" y="139"/>
      <point x="528" y="304" type="curve"/>
      <point x="494" y="306" type="line"/>
      <point x="475" y="170"/>
      <point x="402" y="95"/>
      <point x="269" y="95" type="curve" smooth="yes"/>
      <point x="138" y="95"/>
      <point x="101" y="168"/>
      <point x="101" y="238" type="curve" smooth="yes"/>
      <point x="101" y="261"/>
      <point x="105" y="287"/>
      <point x="109" y="307" type="curve"/>
      <point x="72" y="303" type="line"/>
      <point x="66" y="275"/>
      <point x="58" y="246"/>
      <point x="58" y="204" type="curve" smooth="yes"/>
      <point x="58" y="94"/>
      <point x="120" y="-15"/>
    </contour>
    <contour>
      <point x="286" y="198" type="curve" smooth="yes"/>
      <point x="329" y="198"/>
      <point x="366" y="234"/>
      <point x="366" y="278" type="curve" smooth="yes"/>
      <point x="366" y="316"/>
      <point x="338" y="343"/>
      <point x="300" y="343" type="curve" smooth="yes"/>
      <point x="257" y="343"/>
      <point x="220" y="310"/>
      <point x="220" y="265" type="curve" smooth="yes"/>
      <point x="220" y="227"/>
      <point x="247" y="198"/>
    </contour>
  </outline>
</glyph>
<glyph name="kCandrabindu" format="2">
  <unicode hex="0C81"/>
  <outline>
    <contour>
      <point x="90" y="635" type="curve" smooth="yes"/>
      <point x="190" y="635"/>
      <point x="251" y="697"/>
      <point x="284" y="819" type="curve"/>
      <point x="255" y="826" type="line"/>
      <point x="221" y="756"/>
      <point x="174" y="722"/>
      <point x="104" y="722" type="curve" smooth="yes"/>
      <point x="29" y="722"/>
      <point x="-24" y="756"/>
      <point x="-32" y="825" type="curve"/>
      <point x="-62" y="819" type="line"/>
      <point x="-64" y="690"/>
      <point x="19" y="635"/>
    </contour>
    <contour>
      <point x="111" y="790" type="curve" smooth="yes"/>
      <point x="145" y="790"/>
      <point x="175" y="820"/>
      <point x="175" y="854" type="curve" smooth="yes"/>
      <point x="175" y="884"/>
      <point x="152" y="906"/>
      <point x="122" y="906" type="curve" smooth="yes"/>
      <point x="89" y="906"/>
      <point x="58" y="880"/>
      <point x="58" y="844" type="curve" smooth="yes"/>
      <point x="58" y="814"/>
      <point x="80" y="790"/>
    </contour>
  </outline>
</glyph>
<glyph name="kAnusvara" format="2">
  <advance width="566"/>
  <unicode hex="0C82"/>
  <outline>
    <contour>
      <point x="251" y="-15" type="curve" smooth="yes"/>
      <point x="416" y="-15"/>
      <point x="508" y="144"/>
      <point x="508" y="294" type="curve" smooth="yes"/>
      <point x="508" y="415"/>
      <point x="448" y="523"/>
      <point x="315" y="523" type="curve" smooth="yes"/>
      <point x="162" y="523"/>
      <point x="51" y="382"/>
      <point x="51" y="218" type="curve" smooth="yes"/>
      <point x="51" y="94"/>
      <point x="115" y="-15"/>
    </contour>
    <contour>
      <point x="255" y="95" type="curve" smooth="yes"/>
      <point x="147" y="95"/>
      <point x="91" y="155"/>
      <point x="91" y="240" type="curve" smooth="yes"/>
      <point x="91" y="356"/>
      <point x="196" y="424"/>
      <point x="307" y="424" type="curve" smooth="yes"/>
      <point x="411" y="424"/>
      <point x="469" y="365"/>
      <point x="469" y="277" type="curve" smooth="yes"/>
      <point x="469" y="159"/>
      <point x="367" y="95"/>
    </contour>
  </outline>
</glyph>
<glyph name="kVisarga" format="2">
  <advance width="366"/>
  <unicode hex="0C83"/>
  <outline>
    <contour>
      <point x="199" y="291" type="curve" smooth="yes"/>
      <point x="286" y="291"/>
      <point x="339" y="360"/>
      <point x="339" y="438" type="curve" smooth="yes"/>
      <point x="339" y="505"/>
      <point x="294" y="553"/>
      <point x="234" y="553" type="curve" smooth="yes"/>
      <point x="158" y="553"/>
      <point x="92" y="493"/>
      <point x="92" y="407" type="curve" smooth="yes"/>
      <point x="92" y="336"/>
      <point x="140" y="291"/>
    </contour>
    <contour>
      <point x="139" y="-15" type="curve" smooth="yes"/>
      <point x="226" y="-15"/>
      <point x="279" y="54"/>
      <point x="279" y="132" type="curve" smooth="yes"/>
      <point x="279" y="199"/>
      <point x="234" y="247"/>
      <point x="174" y="247" type="curve" smooth="yes"/>
      <point x="98" y="247"/>
      <point x="32" y="187"/>
      <point x="32" y="101" type="curve" smooth="yes"/>
      <point x="32" y="30"/>
      <point x="80" y="-15"/>
    </contour>
    <contour>
      <point x="147" y="52" type="curve" smooth="yes"/>
      <point x="105" y="52"/>
      <point x="78" y="79"/>
      <point x="78" y="120" type="curve" smooth="yes"/>
      <point x="78" y="165"/>
      <point x="117" y="205"/>
      <point x="166" y="205" type="curve" smooth="yes"/>
      <point x="215" y="205"/>
      <point x="235" y="171"/>
      <point x="235" y="134" type="curve" smooth="yes"/>
      <point x="235" y="86"/>
      <point x="198" y="52"/>
    </contour>
    <contour>
      <point x="207" y="358" type="curve" smooth="yes"/>
      <point x="165" y="358"/>
      <point x="138" y="385"/>
      <point x="138" y="426" type="curve" smooth="yes"/>
      <point x="138" y="471"/>
      <point x="177" y="511"/>
      <point x="226" y="511" type="curve" smooth="yes"/>
      <point x="275" y="511"/>
      <point x="295" y="477"/>
      <point x="295" y="440" type="curve" smooth="yes"/>
      <point x="295" y="392"/>
      <point x="258" y="358"/>
    </contour>
  </outline>
</glyph>
<glyph name="kSiddham" format="2">
  <advance width="627"/>
  <unicode hex="0C84"/>
  <outline>
    <contour>
      <point x="264" y="-15" type="curve" smooth="yes"/>
      <point x="450" y="-15"/>
      <point x="578" y="127"/>
      <point x="578" y="307" type="curve" smooth="yes"/>
      <point x="578" y="441"/>
      <point x="507" y="548"/>
      <point x="353" y="548" type="curve" smooth="yes"/>
      <point x="200" y="548"/>
      <point x="78" y="442"/>
      <point x="78" y="307" type="curve" smooth="yes"/>
      <point x="78" y="202"/>
      <point x="152" y="133"/>
      <point x="264" y="133" type="curve" smooth="yes"/>
      <point x="377" y="133"/>
      <point x="460" y="204"/>
      <point x="460" y="291" type="curve" smooth="yes"/>
      <point x="460" y="360"/>
      <point x="409" y="405"/>
      <point x="335" y="405" type="curve" smooth="yes"/>
      <point x="263" y="405"/>
      <point x="195" y="362"/>
      <point x="195" y="299" type="curve" smooth="yes"/>
      <point x="195" y="260"/>
      <point x="221" y="234"/>
      <point x="259" y="234" type="curve" smooth="yes"/>
      <point x="304" y="234"/>
      <point x="333" y="270"/>
      <point x="333" y="308" type="curve" smooth="yes"/>
      <point x="333" y="326"/>
      <point x="326" y="343"/>
      <point x="313" y="356" type="curve"/>
      <point x="326" y="360"/>
      <point x="334" y="362"/>
      <point x="346" y="362" type="curve" smooth="yes"/>
      <point x="394" y="362"/>
      <point x="425" y="330"/>
      <point x="425" y="289" type="curve" smooth="yes"/>
      <point x="425" y="233"/>
      <point x="364" y="175"/>
      <point x="265" y="175" type="curve" smooth="yes"/>
      <point x="162" y="175"/>
      <point x="123" y="237"/>
      <point x="123" y="297" type="curve" smooth="yes"/>
      <point x="123" y="386"/>
      <point x="208" y="475"/>
      <point x="350" y="475" type="curve" smooth="yes"/>
      <point x="478" y="475"/>
      <point x="537" y="403"/>
      <point x="537" y="311" type="curve" smooth="yes"/>
      <point x="537" y="199"/>
      <point x="451" y="71"/>
      <point x="259" y="71" type="curve" smooth="yes"/>
      <point x="169" y="71"/>
      <point x="94" y="99"/>
      <point x="52" y="149" type="curve"/>
      <point x="34" y="134" type="line"/>
      <point x="60" y="47"/>
      <point x="140" y="-15"/>
    </contour>
  </outline>
</glyph>
<glyph name="kA" format="2">
  <advance width="830"/>
  <unicode hex="0C85"/>
  <outline>
    <contour>
      <point x="392" y="-15" type="curve" smooth="yes"/>
      <point x="637" y="-15"/>
      <point x="795" y="177"/>
      <point x="795" y="368" type="curve" smooth="yes"/>
      <point x="795" y="476"/>
      <point x="745" y="558"/>
      <point x="651" y="558" type="curve" smooth="yes"/>
      <point x="592" y="558"/>
      <point x="532" y="523"/>
      <point x="532" y="447" type="curve" smooth="yes"/>
      <point x="532" y="403"/>
      <point x="556" y="366"/>
      <point x="586" y="352" type="curve"/>
      <point x="581" y="324" type="line"/>
      <point x="693" y="349" type="line"/>
      <point x="630" y="349"/>
      <point x="589" y="375"/>
      <point x="589" y="417" type="curve" smooth="yes"/>
      <point x="589" y="453"/>
      <point x="621" y="476"/>
      <point x="665" y="476" type="curve" smooth="yes"/>
      <point x="726" y="476"/>
      <point x="757" y="432"/>
      <point x="757" y="366" type="curve" smooth="yes"/>
      <point x="757" y="232"/>
      <point x="605" y="96"/>
      <point x="404" y="96" type="curve" smooth="yes"/>
      <point x="187" y="96"/>
      <point x="102" y="180"/>
      <point x="102" y="313" type="curve" smooth="yes"/>
      <point x="102" y="404"/>
      <point x="176" y="471"/>
      <point x="242" y="471" type="curve" smooth="yes"/>
      <point x="297" y="471"/>
      <point x="322" y="438"/>
      <point x="322" y="405" type="curve" smooth="yes"/>
      <point x="322" y="367"/>
      <point x="289" y="342"/>
      <point x="240" y="342" type="curve" smooth="yes"/>
      <point x="180" y="342"/>
      <point x="147" y="380"/>
      <point x="152" y="450" type="curve"/>
      <point x="103" y="388" type="line"/>
      <point x="129" y="388" type="line"/>
      <point x="128" y="307"/>
      <point x="178" y="268"/>
      <point x="228" y="268" type="curve" smooth="yes"/>
      <point x="300" y="268"/>
      <point x="361" y="328"/>
      <point x="361" y="430" type="curve" smooth="yes"/>
      <point x="361" y="499"/>
      <point x="324" y="558"/>
      <point x="254" y="558" type="curve" smooth="yes"/>
      <point x="152" y="558"/>
      <point x="64" y="435"/>
      <point x="64" y="303" type="curve" smooth="yes"/>
      <point x="64" y="154"/>
      <point x="139" y="-15"/>
    </contour>
    <contour>
      <point x="682" y="271" type="line"/>
      <point x="693" y="349" type="line"/>
      <point x="405" y="349" type="line"/>
      <point x="394" y="271" type="line"/>
    </contour>
  </outline>
</glyph>
<glyph name="kAa" format="2">
  <advance width="826"/>
  <unicode hex="0C86"/>
  <outline>
    <contour>
      <point x="393" y="-15" type="curve" smooth="yes"/>
      <point x="590" y="-15"/>
      <point x="698" y="106"/>
      <point x="698" y="217" type="curve" smooth="yes"/>
      <point x="698" y="259"/>
      <point x="687" y="284"/>
      <point x="675" y="305" type="curve"/>
      <point x="647" y="299" type="line"/>
      <point x="652" y="288"/>
      <point x="659" y="271"/>
      <point x="659" y="244" type="curve" smooth="yes"/>
      <point x="659" y="181"/>
      <point x="585" y="96"/>
      <point x="405" y="96" type="curve" smooth="yes"/>
      <point x="197" y="96"/>
      <point x="102" y="180"/>
      <point x="102" y="313" type="curve" smooth="yes"/>
      <point x="102" y="404"/>
      <point x="176" y="471"/>
      <point x="242" y="471" type="curve" smooth="yes"/>
      <point x="297" y="471"/>
      <point x="322" y="438"/>
      <point x="322" y="403" type="curve" smooth="yes"/>
      <point x="322" y="367"/>
      <point x="289" y="342"/>
      <point x="240" y="342" type="curve" smooth="yes"/>
      <point x="180" y="342"/>
      <point x="147" y="380"/>
      <point x="152" y="450" type="curve"/>
      <point x="103" y="388" type="line"/>
      <point x="129" y="388" type="line"/>
      <point x="128" y="307"/>
      <point x="178" y="268"/>
      <point x="228" y="268" type="curve" smooth="yes"/>
      <point x="300" y="268"/>
      <point x="361" y="328"/>
      <point x="361" y="428" type="curve" smooth="yes"/>
      <point x="361" y="499"/>
      <point x="324" y="558"/>
      <point x="254" y="558" type="curve" smooth="yes"/>
      <point x="152" y="558"/>
      <point x="64" y="435"/>
      <point x="64" y="303" type="curve" smooth="yes"/>
      <point x="64" y="154"/>
      <point x="149" y="-15"/>
    </contour>
    <contour>
      <point x="612" y="276" type="line" smooth="yes"/>
      <point x="732" y="276"/>
      <point x="820" y="320"/>
      <point x="820" y="431" type="curve" smooth="yes"/>
      <point x="820" y="496"/>
      <point x="784" y="558"/>
      <point x="715" y="558" type="curve" smooth="yes"/>
      <point x="651" y="558"/>
      <point x="603" y="515"/>
      <point x="603" y="442" type="curve" smooth="yes"/>
      <point x="603" y="404"/>
      <point x="614" y="369"/>
      <point x="635" y="334" type="curve"/>
      <point x="665" y="334" type="line"/>
      <point x="652" y="358"/>
      <point x="643" y="387"/>
      <point x="643" y="418" type="curve" smooth="yes"/>
      <point x="643" y="458"/>
      <point x="675" y="487"/>
      <point x="723" y="487" type="curve" smooth="yes"/>
      <point x="767" y="487"/>
      <point x="785" y="460"/>
      <point x="785" y="429" type="curve" smooth="yes"/>
      <point x="785" y="378"/>
      <point x="717" y="354"/>
      <point x="617" y="354" type="curve" smooth="yes"/>
      <point x="406" y="354" type="line"/>
      <point x="395" y="276" type="line"/>
    </contour>
  </outline>
</glyph>
<glyph name="kI" format="2">
  <advance width="784"/>
  <unicode hex="0C87"/>
  <outline>
    <contour>
      <point x="605" y="-124" type="line"/>
      <point x="666" y="-74"/>
      <point x="703" y="-21"/>
      <point x="703" y="53" type="curve" smooth="yes"/>
      <point x="703" y="144"/>
      <point x="609" y="246"/>
      <point x="438" y="246" type="curve" smooth="yes"/>
      <point x="288" y="246"/>
      <point x="227" y="172"/>
      <point x="227" y="104" type="curve" smooth="yes"/>
      <point x="227" y="42"/>
      <point x="277" y="-15"/>
      <point x="371" y="-15" type="curve" smooth="yes"/>
      <point x="552" y="-15"/>
      <point x="728" y="193"/>
      <point x="728" y="385" type="curve" smooth="yes"/>
      <point x="728" y="474"/>
      <point x="687" y="558"/>
      <point x="586" y="558" type="curve" smooth="yes"/>
      <point x="496" y="558"/>
      <point x="422" y="488"/>
      <point x="393" y="389" type="curve"/>
      <point x="390" y="299" type="line"/>
      <point x="417" y="386"/>
      <point x="485" y="460"/>
      <point x="570" y="460" type="curve" smooth="yes"/>
      <point x="657" y="460"/>
      <point x="684" y="405"/>
      <point x="684" y="347" type="curve" smooth="yes"/>
      <point x="684" y="222"/>
      <point x="535" y="87"/>
      <point x="382" y="87" type="curve" smooth="yes"/>
      <point x="318" y="87"/>
      <point x="287" y="111"/>
      <point x="287" y="140" type="curve" smooth="yes"/>
      <point x="287" y="176"/>
      <point x="337" y="212"/>
      <point x="432" y="212" type="curve" smooth="yes"/>
      <point x="556" y="212"/>
      <point x="653" y="153"/>
      <point x="653" y="83" type="curve" smooth="yes"/>
      <point x="653" y="21"/>
      <point x="614" y="-21"/>
      <point x="548" y="-69" type="curve"/>
    </contour>
    <contour>
      <point x="118" y="235" type="line"/>
      <point x="108" y="256"/>
      <point x="103" y="285"/>
      <point x="103" y="322" type="curve" smooth="yes"/>
      <point x="103" y="401"/>
      <point x="174" y="460"/>
      <point x="245" y="460" type="curve" smooth="yes"/>
      <point x="337" y="460"/>
      <point x="371" y="401"/>
      <point x="372" y="299" type="curve"/>
      <point x="390" y="299" type="line"/>
      <point x="416" y="407" type="line"/>
      <point x="396" y="407" type="line"/>
      <point x="386" y="506"/>
      <point x="335" y="558"/>
      <point x="248" y="558" type="curve" smooth="yes"/>
      <point x="133" y="558"/>
      <point x="62" y="448"/>
      <point x="62" y="347" type="curve" smooth="yes"/>
      <point x="62" y="295"/>
      <point x="71" y="251"/>
      <point x="88" y="221" type="curve"/>
    </contour>
  </outline>
</glyph>
<glyph name="kIi" format="2">
  <advance width="970"/>
  <unicode hex="0C88"/>
  <outline>
    <contour>
      <point x="778" y="41" type="line"/>
      <point x="831" y="78"/>
      <point x="853" y="118"/>
      <point x="853" y="168" type="curve" smooth="yes"/>
      <point x="853" y="230"/>
      <point x="775" y="312"/>
      <point x="775" y="380" type="curve" smooth="yes"/>
      <point x="775" y="421"/>
      <point x="815" y="451"/>
      <point x="856" y="451" type="curve" smooth="yes"/>
      <point x="905" y="451"/>
      <point x="915" y="424"/>
      <point x="915" y="400" type="curve" smooth="yes"/>
      <point x="915" y="361"/>
      <point x="861" y="323"/>
      <point x="759" y="323" type="curve" smooth="yes"/>
      <point x="55" y="323" type="line"/>
      <point x="44" y="245" type="line"/>
      <point x="748" y="245" type="line" smooth="yes"/>
      <point x="877" y="245"/>
      <point x="950" y="310"/>
      <point x="950" y="402" type="curve" smooth="yes"/>
      <point x="950" y="465"/>
      <point x="910" y="515"/>
      <point x="848" y="515" type="curve" smooth="yes"/>
      <point x="786" y="515"/>
      <point x="734" y="469"/>
      <point x="734" y="403" type="curve" smooth="yes"/>
      <point x="734" y="322"/>
      <point x="799" y="269"/>
      <point x="799" y="209" type="curve" smooth="yes"/>
      <point x="799" y="173"/>
      <point x="781" y="136"/>
      <point x="722" y="93" type="curve"/>
    </contour>
    <contour>
      <point x="386" y="-15" type="curve" smooth="yes"/>
      <point x="542" y="-15"/>
      <point x="656" y="114"/>
      <point x="656" y="268" type="curve" smooth="yes"/>
      <point x="656" y="375"/>
      <point x="600" y="494"/>
      <point x="446" y="494" type="curve" smooth="yes"/>
      <point x="280" y="494"/>
      <point x="161" y="366"/>
      <point x="161" y="209" type="curve" smooth="yes"/>
      <point x="161" y="62"/>
      <point x="269" y="-15"/>
    </contour>
    <contour>
      <point x="392" y="94" type="curve" smooth="yes"/>
      <point x="288" y="94"/>
      <point x="216" y="152"/>
      <point x="216" y="249" type="curve" smooth="yes"/>
      <point x="216" y="373"/>
      <point x="327" y="463"/>
      <point x="446" y="463" type="curve" smooth="yes"/>
      <point x="553" y="463"/>
      <point x="609" y="381"/>
      <point x="609" y="290" type="curve" smooth="yes"/>
      <point x="609" y="172"/>
      <point x="517" y="94"/>
    </contour>
    <contour>
      <point x="338" y="460" type="line"/>
      <point x="453" y="482" type="line"/>
      <point x="546" y="460" type="line"/>
      <point x="707" y="469"/>
      <point x="746" y="549"/>
      <point x="746" y="625" type="curve" smooth="yes"/>
      <point x="746" y="680"/>
      <point x="721" y="722"/>
      <point x="688" y="747" type="curve"/>
      <point x="665" y="728" type="line"/>
      <point x="682" y="714"/>
      <point x="701" y="679"/>
      <point x="701" y="643" type="curve" smooth="yes"/>
      <point x="701" y="598"/>
      <point x="664" y="548"/>
      <point x="557" y="548" type="curve" smooth="yes"/>
      <point x="202" y="548" type="line"/>
      <point x="190" y="460" type="line"/>
    </contour>
  </outline>
</glyph>
<glyph name="kU" format="2">
  <advance width="1071"/>
  <unicode hex="0C89"/>
  <outline>
    <contour>
      <point x="253" y="-15" type="curve" smooth="yes"/>
      <point x="376" y="-15"/>
      <point x="440" y="71"/>
      <point x="460" y="172" type="curve" smooth="yes"/>
      <point x="471" y="228"/>
      <point x="466" y="300"/>
      <point x="476" y="347" type="curve" smooth="yes"/>
      <point x="491" y="415"/>
      <point x="533" y="458"/>
      <point x="596" y="458" type="curve" smooth="yes"/>
      <point x="657" y="458"/>
      <point x="691" y="427"/>
      <point x="691" y="351" type="curve" smooth="yes"/>
      <point x="691" y="300"/>
      <point x="655" y="250"/>
      <point x="655" y="166" type="curve" smooth="yes"/>
      <point x="655" y="53"/>
      <point x="707" y="-15"/>
      <point x="794" y="-15" type="curve" smooth="yes"/>
      <point x="926" y="-15"/>
      <point x="1005" y="117"/>
      <point x="1005" y="258" type="curve" smooth="yes"/>
      <point x="1005" y="405"/>
      <point x="907" y="533"/>
      <point x="863" y="533" type="curve" smooth="yes"/>
      <point x="847" y="533"/>
      <point x="836" y="517"/>
      <point x="836" y="501" type="curve" smooth="yes"/>
      <point x="836" y="488"/>
      <point x="841" y="476"/>
      <point x="851" y="467" type="curve"/>
      <point x="935" y="429"/>
      <point x="963" y="360"/>
      <point x="963" y="279" type="curve" smooth="yes"/>
      <point x="963" y="182"/>
      <point x="895" y="96"/>
      <point x="808" y="96" type="curve" smooth="yes"/>
      <point x="724" y="96"/>
      <point x="700" y="144"/>
      <point x="700" y="191" type="curve" smooth="yes"/>
      <point x="700" y="263"/>
      <point x="735" y="308"/>
      <point x="735" y="391" type="curve" smooth="yes"/>
      <point x="735" y="506"/>
      <point x="682" y="553"/>
      <point x="610" y="553" type="curve" smooth="yes"/>
      <point x="521" y="553"/>
      <point x="459" y="487"/>
      <point x="439" y="387" type="curve" smooth="yes"/>
      <point x="428" y="333"/>
      <point x="436" y="276"/>
      <point x="428" y="236" type="curve" smooth="yes"/>
      <point x="412" y="156"/>
      <point x="341" y="96"/>
      <point x="259" y="96" type="curve" smooth="yes"/>
      <point x="154" y="96"/>
      <point x="108" y="165"/>
      <point x="108" y="247" type="curve" smooth="yes"/>
      <point x="108" y="344"/>
      <point x="164" y="471"/>
      <point x="263" y="471" type="curve" smooth="yes"/>
      <point x="312" y="471"/>
      <point x="336" y="442"/>
      <point x="336" y="407" type="curve" smooth="yes"/>
      <point x="336" y="369"/>
      <point x="307" y="342"/>
      <point x="257" y="342" type="curve" smooth="yes"/>
      <point x="203" y="342"/>
      <point x="164" y="371"/>
      <point x="171" y="450" type="curve"/>
      <point x="118" y="388" type="line"/>
      <point x="148" y="388" type="line"/>
      <point x="143" y="306"/>
      <point x="189" y="268"/>
      <point x="244" y="268" type="curve" smooth="yes"/>
      <point x="312" y="268"/>
      <point x="373" y="328"/>
      <point x="373" y="429" type="curve" smooth="yes"/>
      <point x="373" y="498"/>
      <point x="344" y="558"/>
      <point x="273" y="558" type="curve" smooth="yes"/>
      <point x="160" y="558"/>
      <point x="69" y="403"/>
      <point x="69" y="228" type="curve" smooth="yes"/>
      <point x="69" y="123"/>
      <point x="125" y="-15"/>
    </contour>
  </outline>
</glyph>
<glyph name="kUu" format="2">
  <advance width="1486"/>
  <unicode hex="0C8A"/>
  <outline>
    <contour>
      <point x="253" y="-15" type="curve" smooth="yes"/>
      <point x="376" y="-15"/>
      <point x="440" y="71"/>
      <point x="460" y="172" type="curve" smooth="yes"/>
      <point x="471" y="230"/>
      <point x="467" y="303"/>
      <point x="476" y="347" type="curve" smooth="yes"/>
      <point x="491" y="415"/>
      <point x="533" y="458"/>
      <point x="596" y="458" type="curve" smooth="yes"/>
      <point x="657" y="458"/>
      <point x="691" y="427"/>
      <point x="691" y="351" type="curve" smooth="yes"/>
      <point x="691" y="300"/>
      <point x="655" y="250"/>
      <point x="655" y="166" type="curve" smooth="yes"/>
      <point x="655" y="53"/>
      <point x="707" y="-15"/>
      <point x="788" y="-15" type="curve" smooth="yes"/>
      <point x="886" y="-15"/>
      <point x="933" y="70"/>
      <point x="933" y="160" type="curve" smooth="yes"/>
      <point x="933" y="181"/>
      <point x="931" y="201"/>
      <point x="931" y="223" type="curve" smooth="yes"/>
      <point x="931" y="371"/>
      <point x="1046" y="457"/>
      <point x="1176" y="457" type="curve" smooth="yes"/>
      <point x="1312" y="457"/>
      <point x="1383" y="366"/>
      <point x="1383" y="266" type="curve" smooth="yes"/>
      <point x="1383" y="164"/>
      <point x="1306" y="61"/>
      <point x="1176" y="61" type="curve" smooth="yes"/>
      <point x="1086" y="61"/>
      <point x="1050" y="105"/>
      <point x="1050" y="169" type="curve" smooth="yes"/>
      <point x="1050" y="221"/>
      <point x="1089" y="286"/>
      <point x="1167" y="286" type="curve"/>
      <point x="1169" y="286"/>
      <point x="1172" y="286"/>
      <point x="1178" y="285" type="curve"/>
      <point x="1150" y="269"/>
      <point x="1137" y="243"/>
      <point x="1137" y="220" type="curve" smooth="yes"/>
      <point x="1137" y="188"/>
      <point x="1161" y="163"/>
      <point x="1195" y="163" type="curve" smooth="yes"/>
      <point x="1232" y="163"/>
      <point x="1275" y="191"/>
      <point x="1275" y="248" type="curve" smooth="yes"/>
      <point x="1275" y="295"/>
      <point x="1243" y="328"/>
      <point x="1185" y="328" type="curve" smooth="yes"/>
      <point x="1097" y="328"/>
      <point x="1013" y="254"/>
      <point x="1013" y="144" type="curve" smooth="yes"/>
      <point x="1013" y="51"/>
      <point x="1077" y="-15"/>
      <point x="1166" y="-15" type="curve" smooth="yes"/>
      <point x="1329" y="-15"/>
      <point x="1427" y="154"/>
      <point x="1427" y="296" type="curve" smooth="yes"/>
      <point x="1427" y="437"/>
      <point x="1329" y="548"/>
      <point x="1178" y="548" type="curve" smooth="yes"/>
      <point x="1017" y="548"/>
      <point x="893" y="442"/>
      <point x="893" y="303" type="curve" smooth="yes"/>
      <point x="893" y="269"/>
      <point x="898" y="239"/>
      <point x="898" y="211" type="curve" smooth="yes"/>
      <point x="898" y="147"/>
      <point x="851" y="94"/>
      <point x="797" y="94" type="curve" smooth="yes"/>
      <point x="724" y="94"/>
      <point x="700" y="144"/>
      <point x="700" y="191" type="curve" smooth="yes"/>
      <point x="700" y="263"/>
      <point x="735" y="308"/>
      <point x="735" y="391" type="curve" smooth="yes"/>
      <point x="735" y="506"/>
      <point x="682" y="553"/>
      <point x="610" y="553" type="curve" smooth="yes"/>
      <point x="521" y="553"/>
      <point x="459" y="487"/>
      <point x="439" y="387" type="curve" smooth="yes"/>
      <point x="427" y="330"/>
      <point x="436" y="276"/>
      <point x="428" y="236" type="curve" smooth="yes"/>
      <point x="412" y="156"/>
      <point x="341" y="96"/>
      <point x="259" y="96" type="curve" smooth="yes"/>
      <point x="154" y="96"/>
      <point x="108" y="165"/>
      <point x="108" y="247" type="curve" smooth="yes"/>
      <point x="108" y="344"/>
      <point x="164" y="471"/>
      <point x="263" y="471" type="curve" smooth="yes"/>
      <point x="312" y="471"/>
      <point x="336" y="442"/>
      <point x="336" y="407" type="curve" smooth="yes"/>
      <point x="336" y="369"/>
      <point x="307" y="342"/>
      <point x="257" y="342" type="curve" smooth="yes"/>
      <point x="203" y="342"/>
      <point x="164" y="371"/>
      <point x="171" y="450" type="curve"/>
      <point x="118" y="388" type="line"/>
      <point x="148" y="388" type="line"/>
      <point x="143" y="306"/>
      <point x="189" y="268"/>
      <point x="244" y="268" type="curve" smooth="yes"/>
      <point x="312" y="268"/>
      <point x="373" y="328"/>
      <point x="373" y="429" type="curve" smooth="yes"/>
      <point x="373" y="498"/>
      <point x="344" y="558"/>
      <point x="273" y="558" type="curve" smooth="yes"/>
      <point x="160" y="558"/>
      <point x="69" y="403"/>
      <point x="69" y="228" type="curve" smooth="yes"/>
      <point x="69" y="123"/>
      <point x="125" y="-15"/>
    </contour>
  </outline>
</glyph>
<glyph name="kVocalicR" format="2">
  <advance width="1258"/>
  <unicode hex="0C8B"/>
  <outline>
    <contour>
      <point x="204" y="-15" type="curve" smooth="yes"/>
      <point x="391" y="-15"/>
      <point x="512" y="132"/>
      <point x="512" y="289" type="curve" smooth="yes"/>
      <point x="512" y="489"/>
      <point x="393" y="558"/>
      <point x="280" y="558" type="curve" smooth="yes"/>
      <point x="181" y="558"/>
      <point x="87" y="502"/>
      <point x="87" y="411" type="curve" smooth="yes"/>
      <point x="87" y="356"/>
      <point x="125" y="319"/>
      <point x="179" y="319" type="curve" smooth="yes"/>
      <point x="257" y="319"/>
      <point x="295" y="376"/>
      <point x="295" y="425" type="curve" smooth="yes"/>
      <point x="295" y="464"/>
      <point x="275" y="500"/>
      <point x="232" y="510" type="curve"/>
      <point x="231" y="541" type="line"/>
      <point x="168" y="498" type="line"/>
      <point x="222" y="492"/>
      <point x="242" y="462"/>
      <point x="242" y="424" type="curve" smooth="yes"/>
      <point x="242" y="386"/>
      <point x="206" y="362"/>
      <point x="178" y="362" type="curve" smooth="yes"/>
      <point x="148" y="362"/>
      <point x="125" y="378"/>
      <point x="125" y="415" type="curve" smooth="yes"/>
      <point x="125" y="475"/>
      <point x="196" y="519"/>
      <point x="264" y="519" type="curve" smooth="yes"/>
      <point x="337" y="519"/>
      <point x="410" y="485"/>
      <point x="410" y="307" type="curve" smooth="yes"/>
      <point x="410" y="123"/>
      <point x="293" y="26"/>
      <point x="197" y="26" type="curve" smooth="yes"/>
      <point x="135" y="26"/>
      <point x="78" y="60"/>
      <point x="78" y="113" type="curve" smooth="yes"/>
      <point x="78" y="157"/>
      <point x="115" y="179"/>
      <point x="146" y="179" type="curve" smooth="yes"/>
      <point x="183" y="179"/>
      <point x="201" y="154"/>
      <point x="201" y="126" type="curve" smooth="yes"/>
      <point x="201" y="85"/>
      <point x="160" y="43"/>
      <point x="83" y="45" type="curve"/>
      <point x="154" y="6" type="line"/>
      <point x="167" y="31" type="line"/>
      <point x="227" y="45"/>
      <point x="253" y="94"/>
      <point x="253" y="134" type="curve" smooth="yes"/>
      <point x="253" y="178"/>
      <point x="223" y="226"/>
      <point x="156" y="226" type="curve" smooth="yes"/>
      <point x="102" y="226"/>
      <point x="37" y="189"/>
      <point x="37" y="111" type="curve" smooth="yes"/>
      <point x="37" y="39"/>
      <point x="108" y="-15"/>
    </contour>
    <contour>
      <point x="657" y="-15" type="curve" smooth="yes"/>
      <point x="796" y="-15"/>
      <point x="848" y="132"/>
      <point x="848" y="235" type="curve" smooth="yes"/>
      <point x="848" y="334"/>
      <point x="818" y="412"/>
      <point x="762" y="461" type="curve"/>
      <point x="766" y="483" type="line"/>
      <point x="641" y="460" type="line"/>
      <point x="747" y="460"/>
      <point x="805" y="380"/>
      <point x="805" y="262" type="curve" smooth="yes"/>
      <point x="805" y="177"/>
      <point x="752" y="96"/>
      <point x="661" y="96" type="curve" smooth="yes"/>
      <point x="571" y="96"/>
      <point x="520" y="145"/>
      <point x="502" y="260" type="curve"/>
      <point x="467" y="179" type="line"/>
      <point x="492" y="179" type="line"/>
      <point x="496" y="62"/>
      <point x="573" y="-15"/>
    </contour>
    <contour>
      <point x="1002" y="-15" type="curve" smooth="yes"/>
      <point x="1132" y="-15"/>
      <point x="1188" y="120"/>
      <point x="1188" y="227" type="curve" smooth="yes"/>
      <point x="1188" y="416"/>
      <point x="1064" y="533"/>
      <point x="1022" y="533" type="curve" smooth="yes"/>
      <point x="1006" y="533"/>
      <point x="994" y="516"/>
      <point x="994" y="500" type="curve" smooth="yes"/>
      <point x="994" y="487"/>
      <point x="999" y="475"/>
      <point x="1010" y="466" type="curve"/>
      <point x="1100" y="428"/>
      <point x="1146" y="340"/>
      <point x="1146" y="257" type="curve" smooth="yes"/>
      <point x="1146" y="206"/>
      <point x="1112" y="96"/>
      <point x="999" y="96" type="curve" smooth="yes"/>
      <point x="923" y="96"/>
      <point x="859" y="148"/>
      <point x="841" y="249" type="curve"/>
      <point x="813" y="146" type="line"/>
      <point x="841" y="146" type="line"/>
      <point x="850" y="66"/>
      <point x="910" y="-15"/>
    </contour>
    <contour>
      <point x="641" y="460" type="line"/>
      <point x="717" y="460" type="line" smooth="yes"/>
      <point x="910" y="460"/>
      <point x="943" y="553"/>
      <point x="943" y="630" type="curve" smooth="yes"/>
      <point x="943" y="681"/>
      <point x="920" y="715"/>
      <point x="885" y="747" type="curve"/>
      <point x="862" y="729" type="line"/>
      <point x="883" y="707"/>
      <point x="898" y="679"/>
      <point x="898" y="650" type="curve" smooth="yes"/>
      <point x="898" y="600"/>
      <point x="867" y="548"/>
      <point x="752" y="548" type="curve" smooth="yes"/>
      <point x="580" y="548" type="line"/>
      <point x="568" y="460" type="line"/>
    </contour>
  </outline>
</glyph>
<glyph name="kVocalicL" format="2">
  <advance width="799"/>
  <unicode hex="0C8C"/>
  <outline>
    <contour>
      <point x="571" y="-15" type="curve" smooth="yes"/>
      <point x="661" y="-15"/>
      <point x="724" y="52"/>
      <point x="750" y="173" type="curve"/>
      <point x="723" y="177" type="line"/>
      <point x="702" y="109"/>
      <point x="655" y="72"/>
      <point x="589" y="72" type="curve" smooth="yes"/>
      <point x="524" y="72"/>
      <point x="508" y="101"/>
      <point x="508" y="129" type="curve" smooth="yes"/>
      <point x="508" y="210"/>
      <point x="723" y="256"/>
      <point x="723" y="407" type="curve" smooth="yes"/>
      <point x="723" y="501"/>
      <point x="665" y="558"/>
      <point x="578" y="558" type="curve" smooth="yes"/>
      <point x="490" y="558"/>
      <point x="418" y="488"/>
      <point x="390" y="389" type="curve"/>
      <point x="387" y="299" type="line"/>
      <point x="414" y="386"/>
      <point x="476" y="460"/>
      <point x="563" y="460" type="curve" smooth="yes"/>
      <point x="629" y="460"/>
      <point x="671" y="433"/>
      <point x="671" y="376" type="curve" smooth="yes"/>
      <point x="671" y="271"/>
      <point x="450" y="223"/>
      <point x="450" y="99" type="curve" smooth="yes"/>
      <point x="450" y="35"/>
      <point x="495" y="-15"/>
    </contour>
    <contour>
      <point x="120" y="235" type="line"/>
      <point x="110" y="256"/>
      <point x="105" y="285"/>
      <point x="105" y="322" type="curve" smooth="yes"/>
      <point x="105" y="401"/>
      <point x="174" y="460"/>
      <point x="245" y="460" type="curve" smooth="yes"/>
      <point x="336" y="460"/>
      <point x="368" y="401"/>
      <point x="369" y="299" type="curve"/>
      <point x="387" y="299" type="line"/>
      <point x="413" y="407" type="line"/>
      <point x="393" y="407" type="line"/>
      <point x="382" y="506"/>
      <point x="333" y="558"/>
      <point x="248" y="558" type="curve" smooth="yes"/>
      <point x="135" y="558"/>
      <point x="64" y="448"/>
      <point x="64" y="347" type="curve" smooth="yes"/>
      <point x="64" y="295"/>
      <point x="73" y="251"/>
      <point x="90" y="221" type="curve"/>
    </contour>
  </outline>
</glyph>
<glyph name="kE" format="2">
  <advance width="816"/>
  <unicode hex="0C8E"/>
  <outline>
    <contour>
      <point x="544" y="-15" type="curve" smooth="yes"/>
      <point x="674" y="-15"/>
      <point x="742" y="106"/>
      <point x="742" y="239" type="curve" smooth="yes"/>
      <point x="742" y="411"/>
      <point x="626" y="603"/>
      <point x="345" y="616" type="curve"/>
      <point x="332" y="528" type="line"/>
      <point x="607" y="520"/>
      <point x="701" y="377"/>
      <point x="701" y="251" type="curve" smooth="yes"/>
      <point x="701" y="170"/>
      <point x="643" y="96"/>
      <point x="553" y="96" type="curve" smooth="yes"/>
      <point x="453" y="96"/>
      <point x="416" y="168"/>
      <point x="420" y="254" type="curve"/>
      <point x="400" y="169" type="line"/>
      <point x="393" y="47"/>
      <point x="450" y="-15"/>
    </contour>
    <contour>
      <point x="187" y="-15" type="curve" smooth="yes"/>
      <point x="277" y="-15"/>
      <point x="352" y="49"/>
      <point x="395" y="146" type="curve"/>
      <point x="415" y="146" type="line"/>
      <point x="420" y="254" type="line"/>
      <point x="404" y="254" type="line"/>
      <point x="369" y="147"/>
      <point x="293" y="94"/>
      <point x="205" y="94" type="curve" smooth="yes"/>
      <point x="110" y="94"/>
      <point x="79" y="136"/>
      <point x="79" y="182" type="curve" smooth="yes"/>
      <point x="79" y="240"/>
      <point x="128" y="281"/>
      <point x="179" y="281" type="curve" smooth="yes"/>
      <point x="218" y="281"/>
      <point x="241" y="255"/>
      <point x="241" y="226" type="curve" smooth="yes"/>
      <point x="241" y="205"/>
      <point x="232" y="190"/>
      <point x="212" y="173" type="curve"/>
      <point x="232" y="155" type="line"/>
      <point x="281" y="185"/>
      <point x="310" y="224"/>
      <point x="310" y="274" type="curve" smooth="yes"/>
      <point x="310" y="326"/>
      <point x="267" y="363"/>
      <point x="213" y="363" type="curve" smooth="yes"/>
      <point x="117" y="363"/>
      <point x="39" y="272"/>
      <point x="39" y="163" type="curve" smooth="yes"/>
      <point x="39" y="73"/>
      <point x="77" y="-15"/>
    </contour>
  </outline>
</glyph>
<glyph name="kEe" format="2">
  <advance width="816"/>
  <unicode hex="0C8F"/>
  <outline>
    <contour>
      <point x="544" y="-15" type="curve" smooth="yes"/>
      <point x="674" y="-15"/>
      <point x="742" y="106"/>
      <point x="742" y="239" type="curve" smooth="yes"/>
      <point x="742" y="387"/>
      <point x="659" y="527"/>
      <point x="472" y="579" type="curve"/>
      <point x="442" y="550"/>
      <point x="402" y="533"/>
      <point x="360" y="533" type="curve" smooth="yes"/>
      <point x="302" y="533"/>
      <point x="262" y="555"/>
      <point x="262" y="609" type="curve" smooth="yes"/>
      <point x="262" y="642"/>
      <point x="283" y="675"/>
      <point x="318" y="703" type="curve"/>
      <point x="296" y="721" type="line"/>
      <point x="239" y="684"/>
      <point x="206" y="628"/>
      <point x="206" y="570" type="curve" smooth="yes"/>
      <point x="206" y="499"/>
      <point x="251" y="445"/>
      <point x="326" y="445" type="curve" smooth="yes"/>
      <point x="382" y="445"/>
      <point x="432" y="473"/>
      <point x="468" y="531" type="curve"/>
      <point x="634" y="487"/>
      <point x="701" y="361"/>
      <point x="701" y="251" type="curve" smooth="yes"/>
      <point x="701" y="170"/>
      <point x="643" y="96"/>
      <point x="553" y="96" type="curve" smooth="yes"/>
      <point x="453" y="96"/>
      <point x="416" y="168"/>
      <point x="420" y="254" type="curve"/>
      <point x="400" y="169" type="line"/>
      <point x="393" y="47"/>
      <point x="450" y="-15"/>
    </contour>
    <contour>
      <point x="187" y="-15" type="curve" smooth="yes"/>
      <point x="277" y="-15"/>
      <point x="352" y="49"/>
      <point x="395" y="146" type="curve"/>
      <point x="415" y="146" type="line"/>
      <point x="420" y="254" type="line"/>
      <point x="404" y="254" type="line"/>
      <point x="369" y="147"/>
      <point x="293" y="94"/>
      <point x="205" y="94" type="curve" smooth="yes"/>
      <point x="110" y="94"/>
      <point x="79" y="136"/>
      <point x="79" y="182" type="curve" smooth="yes"/>
      <point x="79" y="240"/>
      <point x="128" y="281"/>
      <point x="179" y="281" type="curve" smooth="yes"/>
      <point x="218" y="281"/>
      <point x="241" y="255"/>
      <point x="241" y="226" type="curve" smooth="yes"/>
      <point x="241" y="205"/>
      <point x="232" y="190"/>
      <point x="212" y="173" type="curve"/>
      <point x="232" y="155" type="line"/>
      <point x="281" y="185"/>
      <point x="310" y="224"/>
      <point x="310" y="274" type="curve" smooth="yes"/>
      <point x="310" y="326"/>
      <point x="267" y="363"/>
      <point x="213" y="363" type="curve" smooth="yes"/>
      <point x="117" y="363"/>
      <point x="39" y="272"/>
      <point x="39" y="163" type="curve" smooth="yes"/>
      <point x="39" y="73"/>
      <point x="77" y="-15"/>
    </contour>
  </outline>
</glyph>
<glyph name="kAi" format="2">
  <advance width="825"/>
  <unicode hex="0C90"/>
  <outline>
    <contour>
      <point x="551" y="-15" type="curve" smooth="yes"/>
      <point x="684" y="-15"/>
      <point x="766" y="167"/>
      <point x="766" y="313" type="curve" smooth="yes"/>
      <point x="766" y="445"/>
      <point x="721" y="558"/>
      <point x="616" y="558" type="curve" smooth="yes"/>
      <point x="545" y="558"/>
      <point x="477" y="497"/>
      <point x="444" y="419" type="curve"/>
      <point x="440" y="419" type="line"/>
      <point x="427" y="513"/>
      <point x="374" y="558"/>
      <point x="297" y="558" type="curve" smooth="yes"/>
      <point x="214" y="558"/>
      <point x="124" y="490"/>
      <point x="99" y="374" type="curve"/>
      <point x="128" y="370" type="line"/>
      <point x="158" y="429"/>
      <point x="225" y="460"/>
      <point x="282" y="460" type="curve" smooth="yes"/>
      <point x="365" y="460"/>
      <point x="414" y="412"/>
      <point x="424" y="335" type="curve"/>
      <point x="440" y="335" type="line"/>
      <point x="470" y="408"/>
      <point x="542" y="460"/>
      <point x="603" y="460" type="curve" smooth="yes"/>
      <point x="693" y="460"/>
      <point x="727" y="388"/>
      <point x="727" y="296" type="curve" smooth="yes"/>
      <point x="727" y="208"/>
      <point x="658" y="96"/>
      <point x="557" y="96" type="curve" smooth="yes"/>
      <point x="465" y="96"/>
      <point x="430" y="162"/>
      <point x="428" y="238" type="curve"/>
      <point x="405" y="163" type="line"/>
      <point x="411" y="46"/>
      <point x="470" y="-15"/>
    </contour>
    <contour>
      <point x="194" y="-15" type="curve" smooth="yes"/>
      <point x="292" y="-15"/>
      <point x="358" y="49"/>
      <point x="403" y="140" type="curve"/>
      <point x="423" y="140" type="line"/>
      <point x="428" y="238" type="line"/>
      <point x="412" y="238" type="line"/>
      <point x="379" y="144"/>
      <point x="301" y="94"/>
      <point x="211" y="94" type="curve" smooth="yes"/>
      <point x="124" y="94"/>
      <point x="88" y="134"/>
      <point x="88" y="180" type="curve" smooth="yes"/>
      <point x="88" y="225"/>
      <point x="132" y="273"/>
      <point x="185" y="273" type="curve" smooth="yes"/>
      <point x="234" y="273"/>
      <point x="250" y="247"/>
      <point x="250" y="220" type="curve" smooth="yes"/>
      <point x="250" y="200"/>
      <point x="238" y="184"/>
      <point x="218" y="169" type="curve"/>
      <point x="236" y="154" type="line"/>
      <point x="287" y="179"/>
      <point x="316" y="216"/>
      <point x="316" y="266" type="curve" smooth="yes"/>
      <point x="316" y="315"/>
      <point x="280" y="351"/>
      <point x="216" y="351" type="curve" smooth="yes"/>
      <point x="121" y="351"/>
      <point x="48" y="257"/>
      <point x="48" y="153" type="curve" smooth="yes"/>
      <point x="48" y="71"/>
      <point x="93" y="-15"/>
    </contour>
  </outline>
</glyph>
<glyph name="kO" format="2">
  <advance width="790"/>
  <unicode hex="0C92"/>
  <outline>
    <contour>
      <point x="191" y="-15" type="curve" smooth="yes"/>
      <point x="273" y="-15"/>
      <point x="349" y="39"/>
      <point x="385" y="136" type="curve"/>
      <point x="405" y="136" type="line"/>
      <point x="414" y="244" type="line"/>
      <point x="398" y="244" type="line"/>
      <point x="363" y="145"/>
      <point x="292" y="96"/>
      <point x="219" y="96" type="curve" smooth="yes"/>
      <point x="144" y="96"/>
      <point x="120" y="128"/>
      <point x="120" y="175" type="curve" smooth="yes"/>
      <point x="120" y="274"/>
      <point x="338" y="302"/>
      <point x="338" y="442" type="curve" smooth="yes"/>
      <point x="338" y="512"/>
      <point x="289" y="558"/>
      <point x="218" y="558" type="curve" smooth="yes"/>
      <point x="139" y="558"/>
      <point x="72" y="504"/>
      <point x="72" y="427" type="curve" smooth="yes"/>
      <point x="72" y="391"/>
      <point x="78" y="367"/>
      <point x="94" y="340" type="curve"/>
      <point x="119" y="348" type="line"/>
      <point x="113" y="360"/>
      <point x="112" y="374"/>
      <point x="112" y="389" type="curve" smooth="yes"/>
      <point x="112" y="442"/>
      <point x="162" y="471"/>
      <point x="203" y="471" type="curve" smooth="yes"/>
      <point x="256" y="471"/>
      <point x="279" y="446"/>
      <point x="279" y="409" type="curve" smooth="yes"/>
      <point x="279" y="316"/>
      <point x="55" y="292"/>
      <point x="55" y="125" type="curve" smooth="yes"/>
      <point x="55" y="41"/>
      <point x="103" y="-15"/>
    </contour>
    <contour>
      <point x="531" y="-15" type="curve" smooth="yes"/>
      <point x="620" y="-15"/>
      <point x="722" y="66"/>
      <point x="722" y="200" type="curve" smooth="yes"/>
      <point x="722" y="263"/>
      <point x="705" y="317"/>
      <point x="675" y="357" type="curve"/>
      <point x="641" y="337" type="line"/>
      <point x="662" y="309"/>
      <point x="673" y="270"/>
      <point x="673" y="225" type="curve" smooth="yes"/>
      <point x="673" y="164"/>
      <point x="616" y="96"/>
      <point x="541" y="96" type="curve" smooth="yes"/>
      <point x="451" y="96"/>
      <point x="409" y="158"/>
      <point x="414" y="244" type="curve"/>
      <point x="390" y="161" type="line"/>
      <point x="390" y="34"/>
      <point x="455" y="-15"/>
    </contour>
  </outline>
</glyph>
<glyph name="kOo" format="2">
  <advance width="790"/>
  <unicode hex="0C93"/>
  <outline>
    <contour>
      <point x="191" y="-15" type="curve" smooth="yes"/>
      <point x="273" y="-15"/>
      <point x="349" y="39"/>
      <point x="385" y="136" type="curve"/>
      <point x="405" y="136" type="line"/>
      <point x="414" y="244" type="line"/>
      <point x="398" y="244" type="line"/>
      <point x="363" y="145"/>
      <point x="292" y="96"/>
      <point x="219" y="96" type="curve" smooth="yes"/>
      <point x="144" y="96"/>
      <point x="120" y="128"/>
      <point x="120" y="174" type="curve" smooth="yes"/>
      <point x="120" y="277"/>
      <point x="338" y="302"/>
      <point x="338" y="434" type="curve" smooth="yes"/>
      <point x="338" y="504"/>
      <point x="294" y="548"/>
      <point x="217" y="548" type="curve" smooth="yes"/>
      <point x="137" y="548"/>
      <point x="72" y="495"/>
      <point x="72" y="416" type="curve" smooth="yes"/>
      <point x="72" y="383"/>
      <point x="78" y="360"/>
      <point x="94" y="332" type="curve"/>
      <point x="119" y="340" type="line"/>
      <point x="113" y="353"/>
      <point x="112" y="366"/>
      <point x="112" y="381" type="curve" smooth="yes"/>
      <point x="112" y="434"/>
      <point x="162" y="463"/>
      <point x="204" y="463" type="curve" smooth="yes"/>
      <point x="252" y="463"/>
      <point x="279" y="441"/>
      <point x="279" y="402" type="curve" smooth="yes"/>
      <point x="279" y="320"/>
      <point x="55" y="292"/>
      <point x="55" y="125" type="curve" smooth="yes"/>
      <point x="55" y="41"/>
      <point x="103" y="-15"/>
    </contour>
    <contour>
      <point x="531" y="-15" type="curve" smooth="yes"/>
      <point x="620" y="-15"/>
      <point x="722" y="66"/>
      <point x="722" y="200" type="curve" smooth="yes"/>
      <point x="722" y="263"/>
      <point x="705" y="317"/>
      <point x="675" y="357" type="curve"/>
      <point x="641" y="337" type="line"/>
      <point x="662" y="309"/>
      <point x="673" y="270"/>
      <point x="673" y="225" type="curve" smooth="yes"/>
      <point x="673" y="164"/>
      <point x="616" y="96"/>
      <point x="541" y="96" type="curve" smooth="yes"/>
      <point x="451" y="96"/>
      <point x="409" y="158"/>
      <point x="414" y="244" type="curve"/>
      <point x="390" y="161" type="line"/>
      <point x="390" y="34"/>
      <point x="455" y="-15"/>
    </contour>
    <contour>
      <point x="338" y="434" type="line"/>
      <point x="338" y="544"/>
      <point x="256" y="550"/>
      <point x="256" y="632" type="curve" smooth="yes"/>
      <point x="256" y="680"/>
      <point x="288" y="713"/>
      <point x="335" y="725" type="curve"/>
      <point x="330" y="751" type="line"/>
      <point x="240" y="754"/>
      <point x="183" y="710"/>
      <point x="183" y="647" type="curve" smooth="yes"/>
      <point x="183" y="608"/>
      <point x="200" y="576"/>
      <point x="241" y="550" type="curve"/>
      <point x="239" y="546" type="line"/>
      <point x="293" y="447" type="line"/>
    </contour>
  </outline>
</glyph>
<glyph name="kAu" format="2">
  <advance width="821"/>
  <unicode hex="0C94"/>
  <outline>
    <contour>
      <point x="625" y="350" type="curve" smooth="yes"/>
      <point x="756" y="350"/>
      <point x="848" y="488"/>
      <point x="848" y="598" type="curve" smooth="yes"/>
      <point x="848" y="698"/>
      <point x="786" y="792"/>
      <point x="616" y="792" type="curve" smooth="yes"/>
      <point x="154" y="792" type="line"/>
      <point x="142" y="710" type="line"/>
      <point x="610" y="710" type="line" smooth="yes"/>
      <point x="757" y="710"/>
      <point x="804" y="645"/>
      <point x="804" y="566" type="curve" smooth="yes"/>
      <point x="804" y="487"/>
      <point x="730" y="398"/>
      <point x="633" y="398" type="curve" smooth="yes"/>
      <point x="553" y="398"/>
      <point x="518" y="450"/>
      <point x="518" y="495" type="curve" smooth="yes"/>
      <point x="518" y="544"/>
      <point x="558" y="579"/>
      <point x="616" y="579" type="curve"/>
      <point x="618" y="579"/>
      <point x="622" y="579"/>
      <point x="628" y="578" type="curve"/>
      <point x="600" y="567"/>
      <point x="588" y="545"/>
      <point x="588" y="523" type="curve" smooth="yes"/>
      <point x="588" y="491"/>
      <point x="612" y="469"/>
      <point x="644" y="469" type="curve" smooth="yes"/>
      <point x="676" y="469"/>
      <point x="718" y="492"/>
      <point x="718" y="543" type="curve" smooth="yes"/>
      <point x="718" y="586"/>
      <point x="689" y="621"/>
      <point x="629" y="621" type="curve" smooth="yes"/>
      <point x="560" y="621"/>
      <point x="485" y="570"/>
      <point x="485" y="481" type="curve" smooth="yes"/>
      <point x="485" y="413"/>
      <point x="533" y="350"/>
    </contour>
    <contour>
      <point x="193" y="-15" type="curve" smooth="yes"/>
      <point x="278" y="-15"/>
      <point x="351" y="39"/>
      <point x="387" y="136" type="curve"/>
      <point x="407" y="136" type="line"/>
      <point x="416" y="244" type="line"/>
      <point x="400" y="244" type="line"/>
      <point x="365" y="145"/>
      <point x="294" y="96"/>
      <point x="221" y="96" type="curve" smooth="yes"/>
      <point x="151" y="96"/>
      <point x="127" y="126"/>
      <point x="127" y="172" type="curve" smooth="yes"/>
      <point x="127" y="280"/>
      <point x="345" y="302"/>
      <point x="345" y="441" type="curve" smooth="yes"/>
      <point x="345" y="510"/>
      <point x="293" y="549"/>
      <point x="225" y="549" type="curve" smooth="yes"/>
      <point x="142" y="549"/>
      <point x="81" y="505"/>
      <point x="81" y="419" type="curve" smooth="yes"/>
      <point x="81" y="395"/>
      <point x="88" y="367"/>
      <point x="102" y="340" type="curve"/>
      <point x="126" y="348" type="line"/>
      <point x="122" y="359"/>
      <point x="119" y="379"/>
      <point x="119" y="397" type="curve" smooth="yes"/>
      <point x="119" y="441"/>
      <point x="161" y="471"/>
      <point x="207" y="471" type="curve" smooth="yes"/>
      <point x="263" y="471"/>
      <point x="286" y="446"/>
      <point x="286" y="408" type="curve" smooth="yes"/>
      <point x="286" y="322"/>
      <point x="62" y="290"/>
      <point x="62" y="122" type="curve" smooth="yes"/>
      <point x="62" y="39"/>
      <point x="120" y="-15"/>
    </contour>
    <contour>
      <point x="537" y="-15" type="curve" smooth="yes"/>
      <point x="634" y="-15"/>
      <point x="724" y="66"/>
      <point x="724" y="197" type="curve" smooth="yes"/>
      <point x="724" y="245"/>
      <point x="712" y="292"/>
      <point x="687" y="324" type="curve"/>
      <point x="654" y="306" type="line"/>
      <point x="670" y="279"/>
      <point x="677" y="248"/>
      <point x="677" y="224" type="curve" smooth="yes"/>
      <point x="677" y="161"/>
      <point x="628" y="96"/>
      <point x="541" y="96" type="curve" smooth="yes"/>
      <point x="455" y="96"/>
      <point x="410" y="160"/>
      <point x="416" y="244" type="curve"/>
      <point x="392" y="161" type="line"/>
      <point x="392" y="34"/>
      <point x="462" y="-15"/>
    </contour>
    <contour>
      <point x="278" y="540" type="line" smooth="yes"/>
      <point x="410" y="540"/>
      <point x="440" y="601"/>
      <point x="440" y="650" type="curve" smooth="yes"/>
      <point x="440" y="679"/>
      <point x="432" y="704"/>
      <point x="404" y="725" type="curve"/>
      <point x="362" y="725" type="line"/>
      <point x="394" y="707"/>
      <point x="404" y="692"/>
      <point x="404" y="670" type="curve" smooth="yes"/>
      <point x="404" y="639"/>
      <point x="379" y="622"/>
      <point x="306" y="622" type="curve" smooth="yes"/>
      <point x="128" y="622" type="line"/>
      <point x="116" y="540" type="line"/>
    </contour>
  </outline>
</glyph>
<glyph name="kKa" format="2">
  <advance width="629"/>
  <unicode hex="0C95"/>
  <outline>
    <contour>
      <point x="459" y="461" type="line" smooth="yes"/>
      <point x="623" y="461"/>
      <point x="660" y="549"/>
      <point x="660" y="625" type="curve" smooth="yes"/>
      <point x="660" y="680"/>
      <point x="635" y="722"/>
      <point x="602" y="747" type="curve"/>
      <point x="579" y="728" type="line"/>
      <point x="596" y="714"/>
      <point x="615" y="679"/>
      <point x="615" y="643" type="curve" smooth="yes"/>
      <point x="615" y="598"/>
      <point x="578" y="548"/>
      <point x="471" y="548" type="curve" smooth="yes"/>
      <point x="117" y="548" type="line"/>
      <point x="105" y="461" type="line"/>
    </contour>
    <contour>
      <point x="275" y="-15" type="curve" smooth="yes"/>
      <point x="388" y="-15"/>
      <point x="470" y="78"/>
      <point x="470" y="186" type="curve" smooth="yes"/>
      <point x="470" y="277"/>
      <point x="412" y="340"/>
      <point x="325" y="340" type="curve" smooth="yes"/>
      <point x="216" y="340"/>
      <point x="122" y="251"/>
      <point x="122" y="143" type="curve" smooth="yes"/>
      <point x="122" y="46"/>
      <point x="188" y="-15"/>
    </contour>
    <contour>
      <point x="293" y="94" type="curve" smooth="yes"/>
      <point x="223" y="94"/>
      <point x="180" y="131"/>
      <point x="180" y="189" type="curve" smooth="yes"/>
      <point x="180" y="254"/>
      <point x="251" y="308"/>
      <point x="317" y="308" type="curve" smooth="yes"/>
      <point x="388" y="308"/>
      <point x="428" y="268"/>
      <point x="428" y="206" type="curve" smooth="yes"/>
      <point x="428" y="142"/>
      <point x="364" y="94"/>
    </contour>
    <contour>
      <point x="241" y="301" type="line"/>
      <point x="265" y="319" type="line"/>
      <point x="383" y="319" type="line"/>
      <point x="400" y="301" type="line"/>
      <point x="579" y="301" type="line"/>
      <point x="590" y="379" type="line"/>
      <point x="91" y="379" type="line"/>
      <point x="80" y="301" type="line"/>
    </contour>
    <contour>
      <point x="351" y="360" type="line"/>
      <point x="388" y="371"/>
      <point x="402" y="399"/>
      <point x="402" y="424" type="curve" smooth="yes"/>
      <point x="402" y="443"/>
      <point x="392" y="467"/>
      <point x="359" y="482" type="curve"/>
      <point x="318" y="461" type="line"/>
      <point x="347" y="461"/>
      <point x="366" y="447"/>
      <point x="366" y="422" type="curve" smooth="yes"/>
      <point x="366" y="398"/>
      <point x="346" y="382"/>
      <point x="319" y="374" type="curve"/>
    </contour>
  </outline>
</glyph>
<glyph name="kKha" format="2">
  <advance width="838"/>
  <unicode hex="0C96"/>
  <outline>
    <contour>
      <point x="143" y="-15" type="curve" smooth="yes"/>
      <point x="331" y="-15"/>
      <point x="488" y="204"/>
      <point x="488" y="377" type="curve" smooth="yes"/>
      <point x="488" y="507"/>
      <point x="413" y="558"/>
      <point x="330" y="558" type="curve" smooth="yes"/>
      <point x="228" y="558"/>
      <point x="160" y="474"/>
      <point x="160" y="392" type="curve" smooth="yes"/>
      <point x="160" y="336"/>
      <point x="190" y="287"/>
      <point x="246" y="287" type="curve" smooth="yes"/>
      <point x="294" y="287"/>
      <point x="322" y="322"/>
      <point x="322" y="355" type="curve" smooth="yes"/>
      <point x="322" y="385"/>
      <point x="299" y="413"/>
      <point x="263" y="413" type="curve" smooth="yes"/>
      <point x="239" y="413"/>
      <point x="218" y="401"/>
      <point x="201" y="377" type="curve"/>
      <point x="200" y="383"/>
      <point x="199" y="390"/>
      <point x="199" y="397" type="curve" smooth="yes"/>
      <point x="199" y="441"/>
      <point x="248" y="480"/>
      <point x="316" y="480" type="curve" smooth="yes"/>
      <point x="387" y="480"/>
      <point x="447" y="445"/>
      <point x="447" y="352" type="curve" smooth="yes"/>
      <point x="447" y="212"/>
      <point x="286" y="85"/>
      <point x="155" y="85" type="curve" smooth="yes"/>
      <point x="95" y="85"/>
      <point x="56" y="104"/>
      <point x="56" y="137" type="curve" smooth="yes"/>
      <point x="56" y="159"/>
      <point x="92" y="188"/>
      <point x="156" y="188" type="curve" smooth="yes"/>
      <point x="350" y="188"/>
      <point x="390" y="-15"/>
      <point x="565" y="-15" type="curve" smooth="yes"/>
      <point x="721" y="-15"/>
      <point x="769" y="122"/>
      <point x="769" y="233" type="curve" smooth="yes"/>
      <point x="769" y="411"/>
      <point x="658" y="532"/>
      <point x="614" y="532" type="curve" smooth="yes"/>
      <point x="596" y="532"/>
      <point x="583" y="517"/>
      <point x="583" y="498" type="curve" smooth="yes"/>
      <point x="583" y="486"/>
      <point x="587" y="472"/>
      <point x="594" y="466" type="curve"/>
      <point x="692" y="428"/>
      <point x="726" y="357"/>
      <point x="726" y="254" type="curve" smooth="yes"/>
      <point x="726" y="176"/>
      <point x="668" y="96"/>
      <point x="570" y="96" type="curve" smooth="yes"/>
      <point x="410" y="96"/>
      <point x="320" y="222"/>
      <point x="162" y="222" type="curve" smooth="yes"/>
      <point x="55" y="222"/>
      <point x="6" y="160"/>
      <point x="6" y="99" type="curve" smooth="yes"/>
      <point x="6" y="33"/>
      <point x="66" y="-15"/>
    </contour>
  </outline>
</glyph>
<glyph name="kGa" format="2">
  <advance width="671"/>
  <unicode hex="0C97"/>
  <outline>
    <contour>
      <point x="129" y="0" type="line"/>
      <point x="174" y="252"/>
      <point x="260" y="464"/>
      <point x="376" y="464" type="curve" smooth="yes"/>
      <point x="452" y="464"/>
      <point x="479" y="384"/>
      <point x="479" y="264" type="curve" smooth="yes"/>
      <point x="479" y="189"/>
      <point x="469" y="97"/>
      <point x="452" y="0" type="curve"/>
      <point x="559" y="0" type="line"/>
      <point x="567" y="56"/>
      <point x="571" y="107"/>
      <point x="571" y="154" type="curve" smooth="yes"/>
      <point x="571" y="379"/>
      <point x="483" y="494"/>
      <point x="383" y="494" type="curve" smooth="yes"/>
      <point x="212" y="494"/>
      <point x="68" y="251"/>
      <point x="22" y="0" type="curve"/>
    </contour>
    <contour>
      <point x="297" y="460" type="line"/>
      <point x="372" y="482" type="line"/>
      <point x="465" y="460" type="line"/>
      <point x="626" y="469"/>
      <point x="665" y="549"/>
      <point x="665" y="625" type="curve" smooth="yes"/>
      <point x="665" y="680"/>
      <point x="640" y="722"/>
      <point x="607" y="747" type="curve"/>
      <point x="584" y="728" type="line"/>
      <point x="601" y="714"/>
      <point x="620" y="679"/>
      <point x="620" y="643" type="curve" smooth="yes"/>
      <point x="620" y="598"/>
      <point x="583" y="548"/>
      <point x="476" y="548" type="curve" smooth="yes"/>
      <point x="133" y="548" type="line"/>
      <point x="120" y="460" type="line"/>
    </contour>
  </outline>
</glyph>
<glyph name="kCha" format="2">
  <advance width="842"/>
  <unicode hex="0C9B"/>
  <outline>
    <contour>
      <point x="223" y="-15" type="curve" smooth="yes"/>
      <point x="309" y="-15"/>
      <point x="384" y="39"/>
      <point x="420" y="136" type="curve"/>
      <point x="440" y="136" type="line"/>
      <point x="449" y="244" type="line"/>
      <point x="433" y="244" type="line"/>
      <point x="398" y="145"/>
      <point x="327" y="96"/>
      <point x="250" y="96" type="curve" smooth="yes"/>
      <point x="148" y="96"/>
      <point x="106" y="161"/>
      <point x="106" y="251" type="curve" smooth="yes"/>
      <point x="106" y="367"/>
      <point x="185" y="471"/>
      <point x="265" y="471" type="curve" smooth="yes"/>
      <point x="307" y="471"/>
      <point x="341" y="443"/>
      <point x="341" y="403" type="curve" smooth="yes"/>
      <point x="341" y="365"/>
      <point x="311" y="337"/>
      <point x="258" y="337" type="curve" smooth="yes"/>
      <point x="203" y="337"/>
      <point x="167" y="368"/>
      <point x="175" y="450" type="curve"/>
      <point x="123" y="388" type="line"/>
      <point x="149" y="388" type="line"/>
      <point x="147" y="301"/>
      <point x="195" y="263"/>
      <point x="249" y="263" type="curve" smooth="yes"/>
      <point x="316" y="263"/>
      <point x="381" y="322"/>
      <point x="381" y="425" type="curve" smooth="yes"/>
      <point x="381" y="505"/>
      <point x="342" y="558"/>
      <point x="281" y="558" type="curve" smooth="yes"/>
      <point x="178" y="558"/>
      <point x="63" y="395"/>
      <point x="63" y="216" type="curve" smooth="yes"/>
      <point x="63" y="95"/>
      <point x="113" y="-15"/>
    </contour>
    <contour>
      <point x="365" y="-200" type="curve" smooth="yes"/>
      <point x="403" y="-200"/>
      <point x="428" y="-172"/>
      <point x="428" y="-131" type="curve" smooth="yes"/>
      <point x="428" y="-97"/>
      <point x="421" y="-47"/>
      <point x="413" y="39" type="curve"/>
      <point x="406" y="39" type="line"/>
      <point x="332" y="-102"/>
      <point x="319" y="-123"/>
      <point x="319" y="-152" type="curve" smooth="yes"/>
      <point x="319" y="-181"/>
      <point x="338" y="-200"/>
    </contour>
    <contour>
      <point x="566" y="-15" type="curve" smooth="yes"/>
      <point x="697" y="-15"/>
      <point x="763" y="100"/>
      <point x="763" y="238" type="curve" smooth="yes"/>
      <point x="763" y="326"/>
      <point x="729" y="405"/>
      <point x="675" y="457" type="curve"/>
      <point x="683" y="492" type="line"/>
      <point x="536" y="460" type="line"/>
      <point x="664" y="460"/>
      <point x="719" y="357"/>
      <point x="719" y="255" type="curve" smooth="yes"/>
      <point x="719" y="174"/>
      <point x="665" y="96"/>
      <point x="576" y="96" type="curve" smooth="yes"/>
      <point x="486" y="96"/>
      <point x="444" y="158"/>
      <point x="449" y="244" type="curve"/>
      <point x="425" y="161" type="line"/>
      <point x="425" y="34"/>
      <point x="490" y="-15"/>
    </contour>
    <contour>
      <point x="628" y="460" type="line" smooth="yes"/>
      <point x="802" y="460"/>
      <point x="848" y="550"/>
      <point x="848" y="625" type="curve" smooth="yes"/>
      <point x="848" y="680"/>
      <point x="823" y="722"/>
      <point x="790" y="747" type="curve"/>
      <point x="767" y="728" type="line"/>
      <point x="784" y="714"/>
      <point x="803" y="679"/>
      <point x="803" y="643" type="curve" smooth="yes"/>
      <point x="803" y="598"/>
      <point x="766" y="548"/>
      <point x="659" y="548" type="curve" smooth="yes"/>
      <point x="490" y="548" type="line"/>
      <point x="478" y="460" type="line"/>
    </contour>
  </outline>
</glyph>
<glyph name="kTtha" format="2">
  <advance width="640"/>
  <unicode hex="0CA0"/>
  <outline>
    <contour>
      <point x="294" y="-15" type="curve" smooth="yes"/>
      <point x="450" y="-15"/>
      <point x="564" y="114"/>
      <point x="564" y="268" type="curve" smooth="yes"/>
      <point x="564" y="386"/>
      <point x="505" y="494"/>
      <point x="354" y="494" type="curve" smooth="yes"/>
      <point x="188" y="494"/>
      <point x="69" y="369"/>
      <point x="69" y="213" type="curve" smooth="yes"/>
      <point x="69" y="65"/>
      <point x="178" y="-15"/>
    </contour>
    <contour>
      <point x="300" y="96" type="curve" smooth="yes"/>
      <point x="197" y="96"/>
      <point x="124" y="155"/>
      <point x="124" y="253" type="curve" smooth="yes"/>
      <point x="124" y="376"/>
      <point x="235" y="463"/>
      <point x="354" y="463" type="curve" smooth="yes"/>
      <point x="450" y="463"/>
      <point x="517" y="385"/>
      <point x="517" y="290" type="curve" smooth="yes"/>
      <point x="517" y="172"/>
      <point x="425" y="96"/>
    </contour>
    <contour>
      <point x="317" y="225" type="curve" smooth="yes"/>
      <point x="354" y="225"/>
      <point x="385" y="256"/>
      <point x="385" y="293" type="curve" smooth="yes"/>
      <point x="385" y="325"/>
      <point x="361" y="348"/>
      <point x="329" y="348" type="curve" smooth="yes"/>
      <point x="293" y="348"/>
      <point x="261" y="320"/>
      <point x="261" y="282" type="curve" smooth="yes"/>
      <point x="261" y="250"/>
      <point x="284" y="225"/>
    </contour>
    <contour>
      <point x="248" y="460" type="line"/>
      <point x="363" y="482" type="line"/>
      <point x="456" y="460" type="line"/>
      <point x="617" y="469"/>
      <point x="656" y="549"/>
      <point x="656" y="625" type="curve" smooth="yes"/>
      <point x="656" y="680"/>
      <point x="631" y="722"/>
      <point x="598" y="747" type="curve"/>
      <point x="575" y="728" type="line"/>
      <point x="592" y="714"/>
      <point x="611" y="679"/>
      <point x="611" y="643" type="curve" smooth="yes"/>
      <point x="611" y="598"/>
      <point x="574" y="548"/>
      <point x="467" y="548" type="curve" smooth="yes"/>
      <point x="114" y="548" type="line"/>
      <point x="102" y="460" type="line"/>
    </contour>
  </outline>
</glyph>
<glyph name="kDda" format="2">
  <advance width="828"/>
  <unicode hex="0CA1"/>
  <outline>
    <contour>
      <point x="199" y="-15" type="curve" smooth="yes"/>
      <point x="276" y="-15"/>
      <point x="349" y="40"/>
      <point x="382" y="136" type="curve"/>
      <point x="402" y="136" type="line"/>
      <point x="408" y="244" type="line"/>
      <point x="392" y="244" type="line"/>
      <point x="363" y="147"/>
      <point x="289" y="96"/>
      <point x="227" y="96" type="curve" smooth="yes"/>
      <point x="159" y="96"/>
      <point x="118" y="135"/>
      <point x="118" y="208" type="curve" smooth="yes"/>
      <point x="118" y="345"/>
      <point x="286" y="464"/>
      <point x="448" y="463" type="curve" smooth="yes"/>
      <point x="524" y="463"/>
      <point x="642" y="426"/>
      <point x="642" y="330" type="curve" smooth="yes"/>
      <point x="642" y="283"/>
      <point x="598" y="260"/>
      <point x="569" y="260" type="curve" smooth="yes"/>
      <point x="534" y="260"/>
      <point x="512" y="277"/>
      <point x="512" y="303" type="curve" smooth="yes"/>
      <point x="512" y="335"/>
      <point x="549" y="361"/>
      <point x="590" y="361" type="curve" smooth="yes"/>
      <point x="658" y="361"/>
      <point x="704" y="312"/>
      <point x="704" y="234" type="curve" smooth="yes"/>
      <point x="704" y="171"/>
      <point x="648" y="94"/>
      <point x="554" y="94" type="curve" smooth="yes"/>
      <point x="439" y="94"/>
      <point x="408" y="162"/>
      <point x="408" y="244" type="curve"/>
      <point x="386" y="158" type="line"/>
      <point x="383" y="34"/>
      <point x="452" y="-15"/>
      <point x="544" y="-15" type="curve" smooth="yes"/>
      <point x="659" y="-15"/>
      <point x="749" y="86"/>
      <point x="749" y="209" type="curve" smooth="yes"/>
      <point x="749" y="334"/>
      <point x="666" y="395"/>
      <point x="591" y="395" type="curve" smooth="yes"/>
      <point x="528" y="395"/>
      <point x="469" y="356"/>
      <point x="469" y="282" type="curve" smooth="yes"/>
      <point x="469" y="225"/>
      <point x="513" y="191"/>
      <point x="562" y="191" type="curve" smooth="yes"/>
      <point x="616" y="191"/>
      <point x="678" y="232"/>
      <point x="678" y="324" type="curve" smooth="yes"/>
      <point x="678" y="430"/>
      <point x="580" y="492"/>
      <point x="436" y="492" type="curve" smooth="yes"/>
      <point x="219" y="492"/>
      <point x="52" y="330"/>
      <point x="52" y="155" type="curve" smooth="yes"/>
      <point x="52" y="54"/>
      <point x="114" y="-15"/>
    </contour>
    <contour>
      <point x="328" y="460" type="line"/>
      <point x="449" y="482" type="line"/>
      <point x="585" y="460" type="line"/>
      <point x="629" y="460" type="line"/>
      <point x="793" y="460"/>
      <point x="830" y="550"/>
      <point x="830" y="625" type="curve" smooth="yes"/>
      <point x="830" y="680"/>
      <point x="805" y="722"/>
      <point x="772" y="747" type="curve"/>
      <point x="749" y="728" type="line"/>
      <point x="766" y="714"/>
      <point x="785" y="679"/>
      <point x="785" y="643" type="curve" smooth="yes"/>
      <point x="785" y="598"/>
      <point x="748" y="548"/>
      <point x="641" y="548" type="curve" smooth="yes"/>
      <point x="128" y="548" type="line"/>
      <point x="116" y="460" type="line"/>
    </contour>
  </outline>
</glyph>
<glyph name="kNna" format="2">
  <advance width="904"/>
  <unicode hex="0CA3"/>
  <outline>
    <contour>
      <point x="597" y="-15" type="curve" smooth="yes"/>
      <point x="743" y="-15"/>
      <point x="846" y="151"/>
      <point x="846" y="317" type="curve" smooth="yes"/>
      <point x="846" y="456"/>
      <point x="785" y="558"/>
      <point x="658" y="558" type="curve" smooth="yes"/>
      <point x="558" y="558"/>
      <point x="477" y="492"/>
      <point x="438" y="383" type="curve"/>
      <point x="433" y="293" type="line"/>
      <point x="469" y="400"/>
      <point x="549" y="460"/>
      <point x="641" y="460" type="curve" smooth="yes"/>
      <point x="751" y="460"/>
      <point x="803" y="382"/>
      <point x="803" y="280" type="curve" smooth="yes"/>
      <point x="803" y="191"/>
      <point x="742" y="81"/>
      <point x="610" y="81" type="curve" smooth="yes"/>
      <point x="541" y="81"/>
      <point x="505" y="114"/>
      <point x="505" y="156" type="curve" smooth="yes"/>
      <point x="505" y="195"/>
      <point x="540" y="236"/>
      <point x="602" y="236" type="curve" smooth="yes"/>
      <point x="628" y="236"/>
      <point x="655" y="228"/>
      <point x="685" y="207" type="curve"/>
      <point x="708" y="226" type="line"/>
      <point x="677" y="283"/>
      <point x="644" y="300"/>
      <point x="607" y="300" type="curve" smooth="yes"/>
      <point x="520" y="300"/>
      <point x="464" y="221"/>
      <point x="464" y="134" type="curve" smooth="yes"/>
      <point x="464" y="55"/>
      <point x="509" y="-15"/>
    </contour>
    <contour>
      <point x="172" y="-15" type="curve" smooth="yes"/>
      <point x="247" y="-15"/>
      <point x="313" y="37"/>
      <point x="364" y="121" type="curve"/>
      <point x="345" y="139" type="line"/>
      <point x="295" y="92"/>
      <point x="245" y="74"/>
      <point x="203" y="74" type="curve" smooth="yes"/>
      <point x="144" y="74"/>
      <point x="121" y="105"/>
      <point x="121" y="142" type="curve" smooth="yes"/>
      <point x="121" y="174"/>
      <point x="152" y="229"/>
      <point x="241" y="252" type="curve"/>
      <point x="194" y="274" type="line"/>
      <point x="93" y="242"/>
      <point x="47" y="167"/>
      <point x="47" y="106" type="curve" smooth="yes"/>
      <point x="47" y="36"/>
      <point x="95" y="-15"/>
    </contour>
    <contour>
      <point x="241" y="252" type="line"/>
      <point x="243" y="285" type="line"/>
      <point x="184" y="290"/>
      <point x="158" y="328"/>
      <point x="158" y="368" type="curve" smooth="yes"/>
      <point x="158" y="411"/>
      <point x="197" y="460"/>
      <point x="281" y="460" type="curve" smooth="yes"/>
      <point x="370" y="460"/>
      <point x="419" y="406"/>
      <point x="417" y="293" type="curve"/>
      <point x="433" y="293" type="line"/>
      <point x="461" y="401" type="line"/>
      <point x="441" y="401" type="line"/>
      <point x="426" y="504"/>
      <point x="376" y="558"/>
      <point x="287" y="558" type="curve" smooth="yes"/>
      <point x="167" y="558"/>
      <point x="100" y="467"/>
      <point x="100" y="386" type="curve" smooth="yes"/>
      <point x="100" y="336"/>
      <point x="121" y="288"/>
      <point x="175" y="270" type="curve"/>
      <point x="171" y="251" type="line"/>
    </contour>
  </outline>
</glyph>
<glyph name="kTa" format="2">
  <advance width="665"/>
  <unicode hex="0CA4"/>
  <outline>
    <contour>
      <point x="304" y="-15" type="curve" smooth="yes"/>
      <point x="493" y="-15"/>
      <point x="589" y="120"/>
      <point x="589" y="219" type="curve" smooth="yes"/>
      <point x="589" y="315"/>
      <point x="516" y="387"/>
      <point x="384" y="387" type="curve" smooth="yes"/>
      <point x="288" y="387"/>
      <point x="214" y="352"/>
      <point x="214" y="286" type="curve" smooth="yes"/>
      <point x="214" y="225"/>
      <point x="279" y="189"/>
      <point x="358" y="189" type="curve" smooth="yes"/>
      <point x="504" y="189"/>
      <point x="557" y="314"/>
      <point x="557" y="364" type="curve" smooth="yes"/>
      <point x="557" y="406"/>
      <point x="540" y="440"/>
      <point x="513" y="459" type="curve"/>
      <point x="530" y="485" type="line"/>
      <point x="423" y="461" type="line"/>
      <point x="483" y="461"/>
      <point x="520" y="421"/>
      <point x="520" y="367" type="curve" smooth="yes"/>
      <point x="520" y="314"/>
      <point x="451" y="257"/>
      <point x="358" y="257" type="curve" smooth="yes"/>
      <point x="310" y="257"/>
      <point x="257" y="272"/>
      <point x="257" y="302" type="curve" smooth="yes"/>
      <point x="257" y="329"/>
      <point x="304" y="354"/>
      <point x="376" y="354" type="curve" smooth="yes"/>
      <point x="482" y="354"/>
      <point x="548" y="307"/>
      <point x="548" y="233" type="curve" smooth="yes"/>
      <point x="548" y="170"/>
      <point x="464" y="94"/>
      <point x="324" y="94" type="curve" smooth="yes"/>
      <point x="202" y="94"/>
      <point x="106" y="140"/>
      <point x="87" y="237" type="curve"/>
      <point x="57" y="230" type="line"/>
      <point x="68" y="58"/>
      <point x="177" y="-15"/>
    </contour>
    <contour>
      <point x="487" y="461" type="line" smooth="yes"/>
      <point x="651" y="461"/>
      <point x="688" y="549"/>
      <point x="688" y="625" type="curve" smooth="yes"/>
      <point x="688" y="680"/>
      <point x="663" y="722"/>
      <point x="630" y="747" type="curve"/>
      <point x="607" y="728" type="line"/>
      <point x="624" y="714"/>
      <point x="643" y="679"/>
      <point x="643" y="643" type="curve" smooth="yes"/>
      <point x="643" y="598"/>
      <point x="606" y="548"/>
      <point x="499" y="548" type="curve" smooth="yes"/>
      <point x="145" y="548" type="line"/>
      <point x="133" y="461" type="line"/>
    </contour>
  </outline>
</glyph>
<glyph name="kDa" format="2">
  <advance width="800"/>
  <unicode hex="0CA6"/>
  <outline>
    <contour>
      <point x="201" y="-15" type="curve" smooth="yes"/>
      <point x="276" y="-15"/>
      <point x="345" y="40"/>
      <point x="382" y="136" type="curve"/>
      <point x="402" y="136" type="line"/>
      <point x="407" y="244" type="line"/>
      <point x="391" y="244" type="line"/>
      <point x="363" y="147"/>
      <point x="289" y="96"/>
      <point x="228" y="96" type="curve" smooth="yes"/>
      <point x="159" y="96"/>
      <point x="118" y="135"/>
      <point x="118" y="208" type="curve" smooth="yes"/>
      <point x="118" y="345"/>
      <point x="285" y="464"/>
      <point x="429" y="464" type="curve" smooth="yes"/>
      <point x="586" y="464"/>
      <point x="675" y="352"/>
      <point x="675" y="234" type="curve" smooth="yes"/>
      <point x="675" y="172"/>
      <point x="617" y="96"/>
      <point x="538" y="96" type="curve" smooth="yes"/>
      <point x="442" y="96"/>
      <point x="408" y="162"/>
      <point x="407" y="244" type="curve"/>
      <point x="386" y="158" type="line"/>
      <point x="383" y="34"/>
      <point x="452" y="-15"/>
      <point x="529" y="-15" type="curve" smooth="yes"/>
      <point x="630" y="-15"/>
      <point x="722" y="65"/>
      <point x="722" y="206" type="curve" smooth="yes"/>
      <point x="722" y="365"/>
      <point x="621" y="497"/>
      <point x="435" y="497" type="curve" smooth="yes"/>
      <point x="218" y="497"/>
      <point x="52" y="330"/>
      <point x="52" y="155" type="curve" smooth="yes"/>
      <point x="52" y="54"/>
      <point x="114" y="-15"/>
    </contour>
    <contour>
      <point x="328" y="460" type="line"/>
      <point x="449" y="482" type="line"/>
      <point x="585" y="460" type="line"/>
      <point x="601" y="460" type="line"/>
      <point x="765" y="460"/>
      <point x="802" y="550"/>
      <point x="802" y="625" type="curve" smooth="yes"/>
      <point x="802" y="680"/>
      <point x="777" y="722"/>
      <point x="744" y="747" type="curve"/>
      <point x="721" y="728" type="line"/>
      <point x="738" y="714"/>
      <point x="757" y="679"/>
      <point x="757" y="643" type="curve" smooth="yes"/>
      <point x="757" y="598"/>
      <point x="720" y="548"/>
      <point x="613" y="548" type="curve" smooth="yes"/>
      <point x="128" y="548" type="line"/>
      <point x="116" y="460" type="line"/>
    </contour>
  </outline>
</glyph>
<glyph name="kDha" format="2">
  <advance width="800"/>
  <unicode hex="0CA7"/>
  <outline>
    <contour>
      <point x="201" y="-15" type="curve" smooth="yes"/>
      <point x="276" y="-15"/>
      <point x="345" y="40"/>
      <point x="382" y="136" type="curve"/>
      <point x="402" y="136" type="line"/>
      <point x="407" y="244" type="line"/>
      <point x="391" y="244" type="line"/>
      <point x="363" y="147"/>
      <point x="289" y="96"/>
      <point x="228" y="96" type="curve" smooth="yes"/>
      <point x="159" y="96"/>
      <point x="118" y="135"/>
      <point x="118" y="208" type="curve" smooth="yes"/>
      <point x="118" y="345"/>
      <point x="285" y="464"/>
      <point x="429" y="464" type="curve" smooth="yes"/>
      <point x="587" y="464"/>
      <point x="676" y="352"/>
      <point x="676" y="234" type="curve" smooth="yes"/>
      <point x="676" y="172"/>
      <point x="618" y="96"/>
      <point x="538" y="96" type="curve" smooth="yes"/>
      <point x="442" y="96"/>
      <point x="408" y="162"/>
      <point x="407" y="244" type="curve"/>
      <point x="386" y="158" type="line"/>
      <point x="383" y="34"/>
      <point x="452" y="-15"/>
      <point x="529" y="-15" type="curve" smooth="yes"/>
      <point x="631" y="-15"/>
      <point x="723" y="65"/>
      <point x="723" y="206" type="curve" smooth="yes"/>
      <point x="723" y="365"/>
      <point x="622" y="497"/>
      <point x="435" y="497" type="curve" smooth="yes"/>
      <point x="218" y="497"/>
      <point x="52" y="330"/>
      <point x="52" y="155" type="curve" smooth="yes"/>
      <point x="52" y="54"/>
      <point x="114" y="-15"/>
    </contour>
    <contour>
      <point x="327" y="-200" type="curve" smooth="yes"/>
      <point x="365" y="-200"/>
      <point x="390" y="-172"/>
      <point x="390" y="-131" type="curve" smooth="yes"/>
      <point x="390" y="-97"/>
      <point x="383" y="-47"/>
      <point x="375" y="39" type="curve"/>
      <point x="368" y="39" type="line"/>
      <point x="294" y="-102"/>
      <point x="281" y="-123"/>
      <point x="281" y="-152" type="curve" smooth="yes"/>
      <point x="281" y="-181"/>
      <point x="300" y="-200"/>
    </contour>
    <contour>
      <point x="328" y="460" type="line"/>
      <point x="449" y="482" type="line"/>
      <point x="586" y="460" type="line"/>
      <point x="602" y="460" type="line"/>
      <point x="766" y="460"/>
      <point x="803" y="550"/>
      <point x="803" y="625" type="curve" smooth="yes"/>
      <point x="803" y="680"/>
      <point x="778" y="722"/>
      <point x="745" y="747" type="curve"/>
      <point x="722" y="728" type="line"/>
      <point x="739" y="714"/>
      <point x="758" y="679"/>
      <point x="758" y="643" type="curve" smooth="yes"/>
      <point x="758" y="598"/>
      <point x="721" y="548"/>
      <point x="614" y="548" type="curve" smooth="yes"/>
      <point x="128" y="548" type="line"/>
      <point x="116" y="460" type="line"/>
    </contour>
  </outline>
</glyph>
<glyph name="kNa" format="2">
  <advance width="697"/>
  <unicode hex="0CA8"/>
  <outline>
    <contour>
      <point x="155" y="-104" type="line"/>
      <point x="120" y="-70"/>
      <point x="93" y="-2"/>
      <point x="93" y="58" type="curve" smooth="yes"/>
      <point x="93" y="143"/>
      <point x="146" y="192"/>
      <point x="214" y="192" type="curve" smooth="yes"/>
      <point x="355" y="192"/>
      <point x="318" y="-15"/>
      <point x="453" y="-15" type="curve" smooth="yes"/>
      <point x="558" y="-15"/>
      <point x="618" y="111"/>
      <point x="618" y="221" type="curve" smooth="yes"/>
      <point x="618" y="347"/>
      <point x="557" y="422"/>
      <point x="502" y="459" type="curve"/>
      <point x="521" y="484" type="line"/>
      <point x="353" y="460" type="line"/>
      <point x="498" y="460"/>
      <point x="569" y="353"/>
      <point x="569" y="236" type="curve" smooth="yes"/>
      <point x="569" y="181"/>
      <point x="532" y="96"/>
      <point x="455" y="96" type="curve" smooth="yes"/>
      <point x="302" y="96"/>
      <point x="340" y="294"/>
      <point x="204" y="294" type="curve" smooth="yes"/>
      <point x="107" y="294"/>
      <point x="39" y="195"/>
      <point x="39" y="84" type="curve" smooth="yes"/>
      <point x="39" y="3"/>
      <point x="75" y="-79"/>
      <point x="124" y="-129" type="curve"/>
    </contour>
    <contour>
      <point x="466" y="460" type="line"/>
      <point x="496" y="462" type="line"/>
      <point x="654" y="462"/>
      <point x="698" y="549"/>
      <point x="698" y="625" type="curve" smooth="yes"/>
      <point x="698" y="680"/>
      <point x="673" y="722"/>
      <point x="640" y="747" type="curve"/>
      <point x="617" y="728" type="line"/>
      <point x="634" y="714"/>
      <point x="653" y="679"/>
      <point x="653" y="643" type="curve" smooth="yes"/>
      <point x="653" y="598"/>
      <point x="616" y="548"/>
      <point x="509" y="548" type="curve" smooth="yes"/>
      <point x="133" y="548" type="line"/>
      <point x="121" y="460" type="line"/>
    </contour>
  </outline>
</glyph>
<glyph name="kBa" format="2">
  <advance width="793"/>
  <unicode hex="0CAC"/>
  <outline>
    <contour>
      <point x="191" y="-15" type="curve" smooth="yes"/>
      <point x="273" y="-15"/>
      <point x="349" y="39"/>
      <point x="385" y="136" type="curve"/>
      <point x="405" y="136" type="line"/>
      <point x="414" y="244" type="line"/>
      <point x="398" y="244" type="line"/>
      <point x="363" y="145"/>
      <point x="292" y="96"/>
      <point x="219" y="96" type="curve" smooth="yes"/>
      <point x="144" y="96"/>
      <point x="120" y="128"/>
      <point x="120" y="175" type="curve" smooth="yes"/>
      <point x="120" y="274"/>
      <point x="338" y="302"/>
      <point x="338" y="442" type="curve" smooth="yes"/>
      <point x="338" y="512"/>
      <point x="289" y="558"/>
      <point x="218" y="558" type="curve" smooth="yes"/>
      <point x="139" y="558"/>
      <point x="72" y="504"/>
      <point x="72" y="427" type="curve" smooth="yes"/>
      <point x="72" y="391"/>
      <point x="78" y="367"/>
      <point x="94" y="340" type="curve"/>
      <point x="119" y="348" type="line"/>
      <point x="113" y="360"/>
      <point x="112" y="374"/>
      <point x="112" y="389" type="curve" smooth="yes"/>
      <point x="112" y="442"/>
      <point x="162" y="471"/>
      <point x="203" y="471" type="curve" smooth="yes"/>
      <point x="256" y="471"/>
      <point x="279" y="446"/>
      <point x="279" y="409" type="curve" smooth="yes"/>
      <point x="279" y="316"/>
      <point x="55" y="292"/>
      <point x="55" y="125" type="curve" smooth="yes"/>
      <point x="55" y="41"/>
      <point x="103" y="-15"/>
    </contour>
    <contour>
      <point x="531" y="-15" type="curve" smooth="yes"/>
      <point x="656" y="-15"/>
      <point x="722" y="100"/>
      <point x="722" y="228" type="curve" smooth="yes"/>
      <point x="722" y="408"/>
      <point x="606" y="531"/>
      <point x="563" y="531" type="curve" smooth="yes"/>
      <point x="544" y="531"/>
      <point x="533" y="516"/>
      <point x="533" y="500" type="curve" smooth="yes"/>
      <point x="533" y="488"/>
      <point x="537" y="474"/>
      <point x="545" y="468" type="curve"/>
      <point x="644" y="424"/>
      <point x="680" y="340"/>
      <point x="680" y="255" type="curve" smooth="yes"/>
      <point x="680" y="174"/>
      <point x="627" y="96"/>
      <point x="541" y="96" type="curve" smooth="yes"/>
      <point x="451" y="96"/>
      <point x="409" y="158"/>
      <point x="414" y="244" type="curve"/>
      <point x="390" y="161" type="line"/>
      <point x="390" y="34"/>
      <point x="455" y="-15"/>
    </contour>
  </outline>
</glyph>
<glyph name="kRa" format="2">
  <advance width="640"/>
  <unicode hex="0CB0"/>
  <outline>
    <contour>
      <point x="294" y="-15" type="curve" smooth="yes"/>
      <point x="450" y="-15"/>
      <point x="564" y="114"/>
      <point x="564" y="268" type="curve" smooth="yes"/>
      <point x="564" y="365"/>
      <point x="508" y="494"/>
      <point x="354" y="494" type="curve" smooth="yes"/>
      <point x="188" y="494"/>
      <point x="69" y="369"/>
      <point x="69" y="213" type="curve" smooth="yes"/>
      <point x="69" y="65"/>
      <point x="178" y="-15"/>
    </contour>
    <contour>
      <point x="300" y="94" type="curve" smooth="yes"/>
      <point x="197" y="94"/>
      <point x="124" y="155"/>
      <point x="124" y="253" type="curve" smooth="yes"/>
      <point x="124" y="376"/>
      <point x="235" y="463"/>
      <point x="354" y="463" type="curve" smooth="yes"/>
      <point x="461" y="463"/>
      <point x="517" y="371"/>
      <point x="517" y="290" type="curve" smooth="yes"/>
      <point x="517" y="172"/>
      <point x="425" y="94"/>
    </contour>
    <contour>
      <point x="248" y="460" type="line"/>
      <point x="363" y="482" type="line"/>
      <point x="456" y="460" type="line"/>
      <point x="617" y="469"/>
      <point x="656" y="549"/>
      <point x="656" y="625" type="curve" smooth="yes"/>
      <point x="656" y="680"/>
      <point x="631" y="722"/>
      <point x="598" y="747" type="curve"/>
      <point x="575" y="728" type="line"/>
      <point x="592" y="714"/>
      <point x="611" y="679"/>
      <point x="611" y="643" type="curve" smooth="yes"/>
      <point x="611" y="598"/>
      <point x="574" y="548"/>
      <point x="467" y="548" type="curve" smooth="yes"/>
      <point x="114" y="548" type="line"/>
      <point x="102" y="460" type="line"/>
    </contour>
  </outline>
</glyph>
<glyph name="kLa" format="2">
  <advance width="753"/>
  <unicode hex="0CB2"/>
  <outline>
    <contour>
      <point x="350" y="-15" type="curve" smooth="yes"/>
      <point x="624" y="-15"/>
      <point x="705" y="198"/>
      <point x="705" y="326" type="curve" smooth="yes"/>
      <point x="705" y="463"/>
      <point x="628" y="546"/>
      <point x="593" y="546" type="curve" smooth="yes"/>
      <point x="573" y="546"/>
      <point x="560" y="525"/>
      <point x="560" y="507" type="curve" smooth="yes"/>
      <point x="560" y="495"/>
      <point x="565" y="486"/>
      <point x="572" y="480" type="curve"/>
      <point x="641" y="455"/>
      <point x="669" y="395"/>
      <point x="669" y="330" type="curve" smooth="yes"/>
      <point x="669" y="222"/>
      <point x="557" y="96"/>
      <point x="368" y="96" type="curve" smooth="yes"/>
      <point x="174" y="96"/>
      <point x="108" y="176"/>
      <point x="108" y="294" type="curve" smooth="yes"/>
      <point x="108" y="389"/>
      <point x="175" y="471"/>
      <point x="247" y="471" type="curve" smooth="yes"/>
      <point x="297" y="471"/>
      <point x="330" y="443"/>
      <point x="330" y="401" type="curve" smooth="yes"/>
      <point x="330" y="371"/>
      <point x="300" y="342"/>
      <point x="250" y="342" type="curve" smooth="yes"/>
      <point x="192" y="342"/>
      <point x="156" y="373"/>
      <point x="165" y="450" type="curve"/>
      <point x="112" y="388" type="line"/>
      <point x="138" y="388" type="line"/>
      <point x="136" y="306"/>
      <point x="184" y="268"/>
      <point x="236" y="268" type="curve" smooth="yes"/>
      <point x="306" y="268"/>
      <point x="370" y="328"/>
      <point x="370" y="429" type="curve" smooth="yes"/>
      <point x="370" y="506"/>
      <point x="330" y="558"/>
      <point x="270" y="558" type="curve" smooth="yes"/>
      <point x="167" y="558"/>
      <point x="66" y="411"/>
      <point x="66" y="262" type="curve" smooth="yes"/>
      <point x="66" y="135"/>
      <point x="131" y="-15"/>
    </contour>
  </outline>
</glyph>
<glyph name="kLla" format="2">
  <advance width="687"/>
  <unicode hex="0CB3"/>
  <outline>
    <contour>
      <point x="300" y="-47" type="curve" smooth="yes"/>
      <point x="362" y="-47"/>
      <point x="442" y="0"/>
      <point x="442" y="90" type="curve" smooth="yes"/>
      <point x="442" y="173"/>
      <point x="375" y="205"/>
      <point x="276" y="234" type="curve" smooth="yes"/>
      <point x="186" y="260"/>
      <point x="115" y="284"/>
      <point x="115" y="362" type="curve" smooth="yes"/>
      <point x="115" y="417"/>
      <point x="169" y="494"/>
      <point x="238" y="494" type="curve" smooth="yes"/>
      <point x="285" y="494"/>
      <point x="307" y="471"/>
      <point x="307" y="439" type="curve" smooth="yes"/>
      <point x="307" y="412"/>
      <point x="283" y="387"/>
      <point x="241" y="387" type="curve" smooth="yes"/>
      <point x="192" y="387"/>
      <point x="156" y="415"/>
      <point x="156" y="469" type="curve"/>
      <point x="112" y="424" type="line"/>
      <point x="137" y="424" type="line"/>
      <point x="136" y="353"/>
      <point x="187" y="317"/>
      <point x="229" y="317" type="curve" smooth="yes"/>
      <point x="291" y="317"/>
      <point x="342" y="368"/>
      <point x="342" y="454" type="curve" smooth="yes"/>
      <point x="342" y="513"/>
      <point x="315" y="563"/>
      <point x="249" y="563" type="curve" smooth="yes"/>
      <point x="146" y="563"/>
      <point x="76" y="436"/>
      <point x="76" y="343" type="curve" smooth="yes"/>
      <point x="76" y="217"/>
      <point x="127" y="173"/>
      <point x="246" y="139" type="curve" smooth="yes"/>
      <point x="319" y="118"/>
      <point x="373" y="105"/>
      <point x="373" y="54" type="curve" smooth="yes"/>
      <point x="373" y="16"/>
      <point x="337" y="-9"/>
      <point x="303" y="-9" type="curve" smooth="yes"/>
      <point x="266" y="-9"/>
      <point x="246" y="15"/>
      <point x="246" y="46" type="curve" smooth="yes"/>
      <point x="246" y="97"/>
      <point x="304" y="136"/>
      <point x="446" y="204" type="curve" smooth="yes"/>
      <point x="543" y="251"/>
      <point x="644" y="309"/>
      <point x="644" y="387" type="curve" smooth="yes"/>
      <point x="644" y="424"/>
      <point x="626" y="456"/>
      <point x="600" y="471" type="curve"/>
      <point x="605" y="496" type="line"/>
      <point x="519" y="460" type="line"/>
      <point x="587" y="460"/>
      <point x="605" y="426"/>
      <point x="605" y="386" type="curve" smooth="yes"/>
      <point x="605" y="323"/>
      <point x="520" y="278"/>
      <point x="430" y="235" type="curve" smooth="yes"/>
      <point x="310" y="177"/>
      <point x="209" y="130"/>
      <point x="209" y="40" type="curve" smooth="yes"/>
      <point x="209" y="-7"/>
      <point x="238" y="-47"/>
    </contour>
    <contour>
      <point x="542" y="460" type="line"/>
      <point x="671" y="482"/>
      <point x="717" y="539"/>
      <point x="717" y="623" type="curve" smooth="yes"/>
      <point x="717" y="682"/>
      <point x="691" y="721"/>
      <point x="659" y="747" type="curve"/>
      <point x="635" y="727" type="line"/>
      <point x="656" y="707"/>
      <point x="672" y="675"/>
      <point x="672" y="642" type="curve" smooth="yes"/>
      <point x="672" y="583"/>
      <point x="621" y="548"/>
      <point x="530" y="548" type="curve" smooth="yes"/>
      <point x="426" y="548" type="line"/>
      <point x="414" y="460" type="line"/>
    </contour>
  </outline>
</glyph>
<glyph name="kVa" format="2">
  <advance width="831"/>
  <unicode hex="0CB5"/>
  <outline>
    <contour>
      <point x="635" y="460" type="line" smooth="yes"/>
      <point x="799" y="460"/>
      <point x="836" y="550"/>
      <point x="836" y="625" type="curve" smooth="yes"/>
      <point x="836" y="680"/>
      <point x="811" y="722"/>
      <point x="778" y="747" type="curve"/>
      <point x="755" y="728" type="line"/>
      <point x="772" y="714"/>
      <point x="791" y="679"/>
      <point x="791" y="643" type="curve" smooth="yes"/>
      <point x="791" y="598"/>
      <point x="754" y="548"/>
      <point x="647" y="548" type="curve" smooth="yes"/>
      <point x="153" y="548" type="line"/>
      <point x="141" y="460" type="line"/>
    </contour>
    <contour>
      <point x="202" y="-15" type="curve" smooth="yes"/>
      <point x="293" y="-15"/>
      <point x="371" y="48"/>
      <point x="409" y="146" type="curve"/>
      <point x="429" y="146" type="line"/>
      <point x="436" y="254" type="line"/>
      <point x="420" y="254" type="line"/>
      <point x="387" y="152"/>
      <point x="318" y="94"/>
      <point x="220" y="94" type="curve" smooth="yes"/>
      <point x="125" y="94"/>
      <point x="94" y="136"/>
      <point x="94" y="181" type="curve" smooth="yes"/>
      <point x="94" y="237"/>
      <point x="142" y="281"/>
      <point x="196" y="281" type="curve" smooth="yes"/>
      <point x="237" y="281"/>
      <point x="260" y="255"/>
      <point x="260" y="226" type="curve" smooth="yes"/>
      <point x="260" y="206"/>
      <point x="251" y="190"/>
      <point x="231" y="173" type="curve"/>
      <point x="250" y="156" type="line"/>
      <point x="300" y="185"/>
      <point x="329" y="224"/>
      <point x="329" y="271" type="curve" smooth="yes"/>
      <point x="329" y="326"/>
      <point x="286" y="363"/>
      <point x="226" y="363" type="curve" smooth="yes"/>
      <point x="132" y="363"/>
      <point x="54" y="271"/>
      <point x="54" y="156" type="curve" smooth="yes"/>
      <point x="54" y="76"/>
      <point x="92" y="-15"/>
    </contour>
    <contour>
      <point x="558" y="-15" type="curve" smooth="yes"/>
      <point x="674" y="-15"/>
      <point x="751" y="81"/>
      <point x="751" y="231" type="curve" smooth="yes"/>
      <point x="751" y="317"/>
      <point x="719" y="404"/>
      <point x="665" y="456" type="curve"/>
      <point x="691" y="491" type="line"/>
      <point x="524" y="460" type="line"/>
      <point x="652" y="460"/>
      <point x="707" y="354"/>
      <point x="707" y="255" type="curve" smooth="yes"/>
      <point x="707" y="151"/>
      <point x="651" y="96"/>
      <point x="567" y="96" type="curve" smooth="yes"/>
      <point x="468" y="96"/>
      <point x="434" y="173"/>
      <point x="436" y="254" type="curve"/>
      <point x="414" y="169" type="line"/>
      <point x="410" y="46"/>
      <point x="465" y="-15"/>
    </contour>
  </outline>
</glyph>
<glyph name="kSha" format="2">
  <advance width="608"/>
  <unicode hex="0CB6"/>
  <outline>
    <contour>
      <point x="219" y="-15" type="curve" smooth="yes"/>
      <point x="412" y="-15"/>
      <point x="541" y="148"/>
      <point x="541" y="300" type="curve" smooth="yes"/>
      <point x="541" y="368"/>
      <point x="516" y="426"/>
      <point x="470" y="460" type="curve"/>
      <point x="492" y="493" type="line"/>
      <point x="363" y="494" type="line"/>
      <point x="384" y="446" type="line"/>
      <point x="406" y="459" type="line"/>
      <point x="475" y="435"/>
      <point x="499" y="377"/>
      <point x="499" y="313" type="curve" smooth="yes"/>
      <point x="499" y="219"/>
      <point x="425" y="95"/>
      <point x="235" y="95" type="curve" smooth="yes"/>
      <point x="127" y="95"/>
      <point x="97" y="130"/>
      <point x="97" y="162" type="curve" smooth="yes"/>
      <point x="97" y="194"/>
      <point x="138" y="206"/>
      <point x="191" y="218" type="curve" smooth="yes"/>
      <point x="301" y="243"/>
      <point x="424" y="263"/>
      <point x="424" y="386" type="curve" smooth="yes"/>
      <point x="424" y="455"/>
      <point x="371" y="494"/>
      <point x="309" y="494" type="curve" smooth="yes"/>
      <point x="202" y="494"/>
      <point x="170" y="418"/>
      <point x="170" y="380" type="curve" smooth="yes"/>
      <point x="170" y="352"/>
      <point x="186" y="316"/>
      <point x="227" y="316" type="curve" smooth="yes"/>
      <point x="266" y="316"/>
      <point x="295" y="345"/>
      <point x="295" y="379" type="curve" smooth="yes"/>
      <point x="295" y="405"/>
      <point x="281" y="430"/>
      <point x="246" y="430" type="curve" smooth="yes"/>
      <point x="237" y="430"/>
      <point x="230" y="428"/>
      <point x="220" y="424" type="curve"/>
      <point x="235" y="448"/>
      <point x="268" y="466"/>
      <point x="303" y="466" type="curve" smooth="yes"/>
      <point x="354" y="466"/>
      <point x="386" y="436"/>
      <point x="386" y="381" type="curve" smooth="yes"/>
      <point x="386" y="298"/>
      <point x="301" y="281"/>
      <point x="203" y="258" type="curve" smooth="yes"/>
      <point x="113" y="236"/>
      <point x="37" y="215"/>
      <point x="37" y="130" type="curve" smooth="yes"/>
      <point x="37" y="53"/>
      <point x="110" y="-15"/>
    </contour>
    <contour>
      <point x="242" y="460" type="line"/>
      <point x="326" y="475" type="line"/>
      <point x="437" y="463" type="line"/>
      <point x="601" y="463"/>
      <point x="638" y="550"/>
      <point x="638" y="625" type="curve" smooth="yes"/>
      <point x="638" y="680"/>
      <point x="613" y="722"/>
      <point x="580" y="747" type="curve"/>
      <point x="557" y="728" type="line"/>
      <point x="574" y="714"/>
      <point x="593" y="679"/>
      <point x="593" y="643" type="curve" smooth="yes"/>
      <point x="593" y="598"/>
      <point x="556" y="548"/>
      <point x="449" y="548" type="curve" smooth="yes"/>
      <point x="121" y="548" type="line"/>
      <point x="109" y="460" type="line"/>
    </contour>
  </outline>
</glyph>
<glyph name="kSa" format="2">
  <advance width="715"/>
  <unicode hex="0CB8"/>
  <outline>
    <contour>
      <point x="41" y="-30" type="line"/>
      <point x="82" y="109"/>
      <point x="164" y="166"/>
      <point x="278" y="166" type="curve" smooth="yes"/>
      <point x="354" y="166"/>
      <point x="396" y="141"/>
      <point x="422" y="98" type="curve" smooth="yes"/>
      <point x="451" y="50"/>
      <point x="457" y="-15"/>
      <point x="519" y="-15" type="curve" smooth="yes"/>
      <point x="595" y="-15"/>
      <point x="641" y="91"/>
      <point x="641" y="217" type="curve" smooth="yes"/>
      <point x="641" y="289"/>
      <point x="626" y="358"/>
      <point x="605" y="405" type="curve"/>
      <point x="566" y="387" type="line"/>
      <point x="582" y="358"/>
      <point x="594" y="299"/>
      <point x="594" y="236" type="curve" smooth="yes"/>
      <point x="594" y="124"/>
      <point x="556" y="87"/>
      <point x="515" y="87" type="curve" smooth="yes"/>
      <point x="479" y="87"/>
      <point x="458" y="107"/>
      <point x="444" y="137" type="curve" smooth="yes"/>
      <point x="424" y="179"/>
      <point x="404" y="273"/>
      <point x="280" y="273" type="curve" smooth="yes"/>
      <point x="146" y="273"/>
      <point x="43" y="164"/>
      <point x="2" y="-28" type="curve"/>
    </contour>
    <contour>
      <point x="351" y="304" type="curve" smooth="yes"/>
      <point x="387" y="304"/>
      <point x="418" y="335"/>
      <point x="418" y="371" type="curve" smooth="yes"/>
      <point x="418" y="402"/>
      <point x="394" y="425"/>
      <point x="363" y="425" type="curve" smooth="yes"/>
      <point x="327" y="425"/>
      <point x="296" y="398"/>
      <point x="296" y="360" type="curve" smooth="yes"/>
      <point x="296" y="329"/>
      <point x="319" y="304"/>
    </contour>
    <contour>
      <point x="528" y="461" type="line" smooth="yes"/>
      <point x="692" y="461"/>
      <point x="729" y="551"/>
      <point x="729" y="625" type="curve" smooth="yes"/>
      <point x="729" y="680"/>
      <point x="704" y="722"/>
      <point x="671" y="747" type="curve"/>
      <point x="648" y="728" type="line"/>
      <point x="665" y="714"/>
      <point x="684" y="679"/>
      <point x="684" y="643" type="curve" smooth="yes"/>
      <point x="684" y="598"/>
      <point x="647" y="548"/>
      <point x="540" y="548" type="curve" smooth="yes"/>
      <point x="114" y="548" type="line"/>
      <point x="102" y="460" type="line"/>
    </contour>
  </outline>
</glyph>
<glyph name="kHa" format="2">
  <advance width="882"/>
  <unicode hex="0CB9"/>
  <outline>
    <contour>
      <point x="696" y="460" type="line" smooth="yes"/>
      <point x="860" y="460"/>
      <point x="897" y="551"/>
      <point x="897" y="625" type="curve" smooth="yes"/>
      <point x="897" y="680"/>
      <point x="872" y="722"/>
      <point x="839" y="747" type="curve"/>
      <point x="816" y="728" type="line"/>
      <point x="833" y="714"/>
      <point x="852" y="679"/>
      <point x="852" y="643" type="curve" smooth="yes"/>
      <point x="852" y="598"/>
      <point x="815" y="548"/>
      <point x="708" y="548" type="curve" smooth="yes"/>
      <point x="119" y="548" type="line"/>
      <point x="107" y="460" type="line"/>
    </contour>
    <contour>
      <point x="229" y="-15" type="curve" smooth="yes"/>
      <point x="322" y="-15"/>
      <point x="391" y="33"/>
      <point x="421" y="105" type="curve"/>
      <point x="440" y="105" type="line"/>
      <point x="471" y="312" type="line"/>
      <point x="437" y="312" type="line"/>
      <point x="416" y="370"/>
      <point x="368" y="405"/>
      <point x="293" y="405" type="curve" smooth="yes"/>
      <point x="165" y="405"/>
      <point x="56" y="309"/>
      <point x="56" y="169" type="curve" smooth="yes"/>
      <point x="56" y="57"/>
      <point x="124" y="-15"/>
    </contour>
    <contour>
      <point x="244" y="96" type="curve" smooth="yes"/>
      <point x="166" y="96"/>
      <point x="113" y="134"/>
      <point x="113" y="216" type="curve" smooth="yes"/>
      <point x="113" y="296"/>
      <point x="192" y="372"/>
      <point x="285" y="372" type="curve" smooth="yes"/>
      <point x="372" y="372"/>
      <point x="418" y="317"/>
      <point x="418" y="242" type="curve" smooth="yes"/>
      <point x="418" y="159"/>
      <point x="336" y="96"/>
    </contour>
    <contour>
      <point x="467" y="283" type="line"/>
      <point x="468" y="356"/>
      <point x="449" y="418"/>
      <point x="388" y="455" type="curve"/>
      <point x="403" y="482" type="line"/>
      <point x="248" y="460" type="line"/>
      <point x="361" y="460"/>
      <point x="422" y="417"/>
      <point x="434" y="330" type="curve"/>
      <point x="413" y="320" type="line"/>
    </contour>
    <contour>
      <point x="579" y="-15" type="curve" smooth="yes"/>
      <point x="721" y="-15"/>
      <point x="808" y="101"/>
      <point x="808" y="226" type="curve" smooth="yes"/>
      <point x="808" y="338"/>
      <point x="730" y="405"/>
      <point x="638" y="405" type="curve" smooth="yes"/>
      <point x="573" y="405"/>
      <point x="496" y="372"/>
      <point x="445" y="293" type="curve"/>
      <point x="423" y="120" type="line"/>
      <point x="435" y="43"/>
      <point x="489" y="-15"/>
    </contour>
    <contour>
      <point x="594" y="96" type="curve" smooth="yes"/>
      <point x="505" y="96"/>
      <point x="460" y="146"/>
      <point x="460" y="219" type="curve" smooth="yes"/>
      <point x="460" y="297"/>
      <point x="546" y="372"/>
      <point x="630" y="372" type="curve" smooth="yes"/>
      <point x="713" y="372"/>
      <point x="764" y="317"/>
      <point x="764" y="240" type="curve" smooth="yes"/>
      <point x="764" y="159"/>
      <point x="680" y="96"/>
    </contour>
  </outline>
</glyph>
<glyph name="kNukta" format="2">
  <unicode hex="0CBC"/>
  <outline>
    <contour>
      <point x="38" y="-200" type="curve" smooth="yes"/>
      <point x="69" y="-200"/>
      <point x="97" y="-175"/>
      <point x="97" y="-141" type="curve" smooth="yes"/>
      <point x="97" y="-113"/>
      <point x="77" y="-90"/>
      <point x="48" y="-90" type="curve" smooth="yes"/>
      <point x="17" y="-90"/>
      <point x="-11" y="-115"/>
      <point x="-11" y="-149" type="curve" smooth="yes"/>
      <point x="-11" y="-177"/>
      <point x="9" y="-200"/>
    </contour>
    <contour>
      <point x="-199" y="-200" type="curve" smooth="yes"/>
      <point x="-168" y="-200"/>
      <point x="-141" y="-175"/>
      <point x="-141" y="-141" type="curve" smooth="yes"/>
      <point x="-141" y="-113"/>
      <point x="-160" y="-90"/>
      <point x="-189" y="-90" type="curve" smooth="yes"/>
      <point x="-220" y="-90"/>
      <point x="-249" y="-115"/>
      <point x="-249" y="-149" type="curve" smooth="yes"/>
      <point x="-249" y="-177"/>
      <point x="-228" y="-200"/>
    </contour>
  </outline>
</glyph>
<glyph name="kAvagraha" format="2">
  <advance width="467"/>
  <unicode hex="0CBD"/>
  <outline>
    <contour>
      <point x="206" y="-15" type="curve" smooth="yes"/>
      <point x="344" y="-15"/>
      <point x="396" y="81"/>
      <point x="396" y="165" type="curve" smooth="yes"/>
      <point x="396" y="329"/>
      <point x="159" y="305"/>
      <point x="159" y="407" type="curve" smooth="yes"/>
      <point x="159" y="443"/>
      <point x="188" y="460"/>
      <point x="237" y="460" type="curve" smooth="yes"/>
      <point x="435" y="460" type="line"/>
      <point x="447" y="548" type="line"/>
      <point x="260" y="548" type="line" smooth="yes"/>
      <point x="160" y="548"/>
      <point x="102" y="492"/>
      <point x="102" y="420" type="curve" smooth="yes"/>
      <point x="102" y="272"/>
      <point x="345" y="295"/>
      <point x="345" y="171" type="curve" smooth="yes"/>
      <point x="345" y="122"/>
      <point x="286" y="84"/>
      <point x="213" y="84" type="curve" smooth="yes"/>
      <point x="130" y="84"/>
      <point x="73" y="117"/>
      <point x="56" y="186" type="curve"/>
      <point x="27" y="180" type="line"/>
      <point x="31" y="43"/>
      <point x="108" y="-15"/>
    </contour>
  </outline>
</glyph>
<glyph name="kSignAa" format="2">
  <advance width="447"/>
  <unicode hex="0CBE"/>
  <outline>
    <contour>
      <point x="118" y="-15" type="curve" smooth="yes"/>
      <point x="288" y="-15"/>
      <point x="388" y="159"/>
      <point x="388" y="292" type="curve" smooth="yes"/>
      <point x="388" y="446"/>
      <point x="291" y="548"/>
      <point x="95" y="548" type="curve" smooth="yes"/>
      <point x="4" y="548" type="line"/>
      <point x="-8" y="460" type="line"/>
      <point x="93" y="460" type="line" smooth="yes"/>
      <point x="271" y="460"/>
      <point x="344" y="374"/>
      <point x="344" y="262" type="curve" smooth="yes"/>
      <point x="344" y="169"/>
      <point x="265" y="61"/>
      <point x="128" y="61" type="curve"/>
      <point x="27" y="61"/>
      <point x="-11" y="105"/>
      <point x="-11" y="169" type="curve" smooth="yes"/>
      <point x="-11" y="223"/>
      <point x="39" y="289"/>
      <point x="118" y="289" type="curve"/>
      <point x="120" y="289"/>
      <point x="123" y="289"/>
      <point x="129" y="288" type="curve"/>
      <point x="100" y="273"/>
      <point x="88" y="248"/>
      <point x="88" y="225" type="curve" smooth="yes"/>
      <point x="88" y="191"/>
      <point x="108" y="166"/>
      <point x="147" y="166" type="curve" smooth="yes"/>
      <point x="184" y="166"/>
      <point x="225" y="195"/>
      <point x="225" y="250" type="curve" smooth="yes"/>
      <point x="225" y="299"/>
      <point x="193" y="331"/>
      <point x="132" y="331" type="curve" smooth="yes"/>
      <point x="45" y="331"/>
      <point x="-48" y="259"/>
      <point x="-48" y="144" type="curve" smooth="yes"/>
      <point x="-48" y="51"/>
      <point x="18" y="-15"/>
    </contour>
  </outline>
</glyph>
<glyph name="kSignI" format="2">
  <advance width="187"/>
  <unicode hex="0CBF"/>
  <outline>
    <contour>
      <point x="-28" y="329" type="curve" smooth="yes"/>
      <point x="14" y="329"/>
      <point x="242" y="389"/>
      <point x="242" y="579" type="curve" smooth="yes"/>
      <point x="242" y="684"/>
      <point x="186" y="759"/>
      <point x="103" y="759" type="curve" smooth="yes"/>
      <point x="21" y="759"/>
      <point x="-31" y="682"/>
      <point x="-31" y="611" type="curve" smooth="yes"/>
      <point x="-31" y="559"/>
      <point x="-4" y="485"/>
      <point x="75" y="485" type="curve" smooth="yes"/>
      <point x="132" y="485"/>
      <point x="180" y="523"/>
      <point x="180" y="626" type="curve" smooth="yes"/>
      <point x="180" y="631"/>
      <point x="180" y="628"/>
      <point x="178" y="647" type="curve"/>
      <point x="204" y="662" type="line"/>
      <point x="138" y="686" type="line"/>
      <point x="149" y="670"/>
      <point x="153" y="651"/>
      <point x="153" y="636" type="curve" smooth="yes"/>
      <point x="153" y="591"/>
      <point x="117" y="552"/>
      <point x="65" y="552" type="curve" smooth="yes"/>
      <point x="24" y="552"/>
      <point x="3" y="577"/>
      <point x="3" y="609" type="curve" smooth="yes"/>
      <point x="3" y="654"/>
      <point x="44" y="686"/>
      <point x="89" y="686" type="curve" smooth="yes"/>
      <point x="110" y="686"/>
      <point x="138" y="682"/>
      <point x="153" y="661" type="curve"/>
      <point x="175" y="656" type="line"/>
      <point x="194" y="638"/>
      <point x="204" y="608"/>
      <point x="204" y="561" type="curve" smooth="yes"/>
      <point x="204" y="440"/>
      <point x="78" y="412"/>
      <point x="-10" y="396" type="curve" smooth="yes"/>
      <point x="-26" y="393"/>
      <point x="-37" y="347"/>
      <point x="-37" y="337" type="curve" smooth="yes"/>
      <point x="-37" y="330"/>
      <point x="-34" y="329"/>
    </contour>
  </outline>
</glyph>
<glyph name="kSignU" format="2">
  <advance width="318"/>
  <unicode hex="0CC1"/>
  <outline>
    <contour>
      <point x="60" y="-15" type="curve" smooth="yes"/>
      <point x="193" y="-15"/>
      <point x="248" y="118"/>
      <point x="248" y="222" type="curve" smooth="yes"/>
      <point x="248" y="404"/>
      <point x="128" y="533"/>
      <point x="82" y="533" type="curve" smooth="yes"/>
      <point x="65" y="533"/>
      <point x="52" y="518"/>
      <point x="52" y="500" type="curve" smooth="yes"/>
      <point x="52" y="488"/>
      <point x="56" y="474"/>
      <point x="64" y="468" type="curve"/>
      <point x="165" y="431"/>
      <point x="205" y="344"/>
      <point x="205" y="249" type="curve" smooth="yes"/>
      <point x="205" y="177"/>
      <point x="155" y="96"/>
      <point x="64" y="96" type="curve" smooth="yes"/>
      <point x="0" y="96"/>
      <point x="-50" y="123"/>
      <point x="-77" y="212" type="curve"/>
      <point x="-111" y="199" type="line"/>
      <point x="-84" y="31"/>
      <point x="-21" y="-15"/>
    </contour>
  </outline>
</glyph>
<glyph name="kSignUu" format="2">
  <advance width="748"/>
  <unicode hex="0CC2"/>
  <outline>
    <contour>
      <point x="49" y="-15" type="curve" smooth="yes"/>
      <point x="146" y="-15"/>
      <point x="194" y="69"/>
      <point x="194" y="160" type="curve" smooth="yes"/>
      <point x="194" y="178"/>
      <point x="192" y="207"/>
      <point x="192" y="226" type="curve" smooth="yes"/>
      <point x="192" y="373"/>
      <point x="312" y="457"/>
      <point x="437" y="457" type="curve" smooth="yes"/>
      <point x="573" y="457"/>
      <point x="644" y="366"/>
      <point x="644" y="266" type="curve" smooth="yes"/>
      <point x="644" y="164"/>
      <point x="567" y="61"/>
      <point x="437" y="61" type="curve" smooth="yes"/>
      <point x="347" y="61"/>
      <point x="311" y="105"/>
      <point x="311" y="169" type="curve" smooth="yes"/>
      <point x="311" y="221"/>
      <point x="350" y="286"/>
      <point x="428" y="286" type="curve"/>
      <point x="430" y="286"/>
      <point x="433" y="286"/>
      <point x="439" y="285" type="curve"/>
      <point x="411" y="269"/>
      <point x="398" y="243"/>
      <point x="398" y="220" type="curve" smooth="yes"/>
      <point x="398" y="188"/>
      <point x="422" y="163"/>
      <point x="456" y="163" type="curve" smooth="yes"/>
      <point x="493" y="163"/>
      <point x="536" y="191"/>
      <point x="536" y="248" type="curve" smooth="yes"/>
      <point x="536" y="295"/>
      <point x="504" y="328"/>
      <point x="446" y="328" type="curve" smooth="yes"/>
      <point x="358" y="328"/>
      <point x="274" y="254"/>
      <point x="274" y="144" type="curve" smooth="yes"/>
      <point x="274" y="51"/>
      <point x="338" y="-15"/>
      <point x="427" y="-15" type="curve" smooth="yes"/>
      <point x="590" y="-15"/>
      <point x="688" y="154"/>
      <point x="688" y="296" type="curve" smooth="yes"/>
      <point x="688" y="437"/>
      <point x="590" y="548"/>
      <point x="439" y="548" type="curve" smooth="yes"/>
      <point x="278" y="548"/>
      <point x="154" y="442"/>
      <point x="154" y="303" type="curve" smooth="yes"/>
      <point x="154" y="269"/>
      <point x="159" y="239"/>
      <point x="159" y="211" type="curve" smooth="yes"/>
      <point x="159" y="147"/>
      <point x="112" y="92"/>
      <point x="57" y="92" type="curve" smooth="yes"/>
      <point x="-18" y="92"/>
      <point x="-68" y="158"/>
      <point x="-79" y="215" type="curve"/>
      <point x="-113" y="202" type="line"/>
      <point x="-96" y="33"/>
      <point x="-20" y="-15"/>
    </contour>
  </outline>
</glyph>
<glyph name="kSignVocalicR" format="2">
  <unicode hex="0CC3"/>
  <outline>
    <contour>
      <point x="-151" y="-449" type="curve" smooth="yes"/>
      <point x="20" y="-449"/>
      <point x="81" y="-275"/>
      <point x="81" y="-171" type="curve" smooth="yes"/>
      <point x="81" y="-15"/>
      <point x="1" y="78"/>
      <point x="-16" y="78" type="curve" smooth="yes"/>
      <point x="-20" y="78"/>
      <point x="-33" y="73"/>
      <point x="-33" y="47" type="curve" smooth="yes"/>
      <point x="-33" y="36"/>
      <point x="-30" y="22"/>
      <point x="-26" y="16" type="curve"/>
      <point x="16" y="-29"/>
      <point x="43" y="-89"/>
      <point x="43" y="-171" type="curve" smooth="yes"/>
      <point x="43" y="-243"/>
      <point x="-20" y="-362"/>
      <point x="-142" y="-362" type="curve" smooth="yes"/>
      <point x="-244" y="-362"/>
      <point x="-273" y="-304"/>
      <point x="-273" y="-249" type="curve" smooth="yes"/>
      <point x="-273" y="-220"/>
      <point x="-245" y="-141"/>
      <point x="-175" y="-141" type="curve" smooth="yes"/>
      <point x="-136" y="-141"/>
      <point x="-121" y="-161"/>
      <point x="-121" y="-184" type="curve" smooth="yes"/>
      <point x="-121" y="-209"/>
      <point x="-147" y="-223"/>
      <point x="-174" y="-223" type="curve" smooth="yes"/>
      <point x="-215" y="-223"/>
      <point x="-241" y="-201"/>
      <point x="-231" y="-144" type="curve"/>
      <point x="-278" y="-198" type="line"/>
      <point x="-253" y="-198" type="line"/>
      <point x="-253" y="-261"/>
      <point x="-220" y="-285"/>
      <point x="-185" y="-285" type="curve" smooth="yes"/>
      <point x="-131" y="-285"/>
      <point x="-93" y="-240"/>
      <point x="-93" y="-167" type="curve" smooth="yes"/>
      <point x="-93" y="-120"/>
      <point x="-121" y="-80"/>
      <point x="-166" y="-80" type="curve" smooth="yes"/>
      <point x="-251" y="-80"/>
      <point x="-311" y="-184"/>
      <point x="-311" y="-266" type="curve" smooth="yes"/>
      <point x="-311" y="-350"/>
      <point x="-265" y="-449"/>
    </contour>
  </outline>
</glyph>
<glyph name="kSignVocalicRr" format="2">
  <unicode hex="0CC4"/>
  <outline>
    <contour>
      <point x="-150" y="-449" type="curve" smooth="yes"/>
      <point x="16" y="-449"/>
      <point x="84" y="-277"/>
      <point x="84" y="-163" type="curve" smooth="yes"/>
      <point x="84" y="-96"/>
      <point x="65" y="-38"/>
      <point x="37" y="1" type="curve"/>
      <point x="57" y="30" type="line"/>
      <point x="-26" y="4" type="line"/>
      <point x="13" y="-17"/>
      <point x="47" y="-79"/>
      <point x="47" y="-162" type="curve" smooth="yes"/>
      <point x="47" y="-256"/>
      <point x="-12" y="-362"/>
      <point x="-141" y="-362" type="curve" smooth="yes"/>
      <point x="-243" y="-362"/>
      <point x="-272" y="-304"/>
      <point x="-272" y="-249" type="curve" smooth="yes"/>
      <point x="-272" y="-220"/>
      <point x="-244" y="-141"/>
      <point x="-174" y="-141" type="curve" smooth="yes"/>
      <point x="-135" y="-141"/>
      <point x="-120" y="-161"/>
      <point x="-120" y="-184" type="curve" smooth="yes"/>
      <point x="-120" y="-209"/>
      <point x="-146" y="-223"/>
      <point x="-173" y="-223" type="curve" smooth="yes"/>
      <point x="-214" y="-223"/>
      <point x="-240" y="-201"/>
      <point x="-230" y="-144" type="curve"/>
      <point x="-277" y="-198" type="line"/>
      <point x="-252" y="-198" type="line"/>
      <point x="-252" y="-261"/>
      <point x="-219" y="-285"/>
      <point x="-184" y="-285" type="curve" smooth="yes"/>
      <point x="-130" y="-285"/>
      <point x="-92" y="-240"/>
      <point x="-92" y="-167" type="curve" smooth="yes"/>
      <point x="-92" y="-120"/>
      <point x="-120" y="-80"/>
      <point x="-165" y="-80" type="curve" smooth="yes"/>
      <point x="-250" y="-80"/>
      <point x="-310" y="-184"/>
      <point x="-310" y="-266" type="curve" smooth="yes"/>
      <point x="-310" y="-350"/>
      <point x="-264" y="-449"/>
    </contour>
    <contour>
      <point x="241" y="-315" type="curve" smooth="yes"/>
      <point x="344" y="-315"/>
      <point x="422" y="-210"/>
      <point x="422" y="-105" type="curve" smooth="yes"/>
      <point x="422" y="-12"/>
      <point x="363" y="71"/>
      <point x="229" y="71" type="curve" smooth="yes"/>
      <point x="-16" y="71" type="line"/>
      <point x="-26" y="4" type="line"/>
      <point x="218" y="3" type="line" smooth="yes"/>
      <point x="340" y="3"/>
      <point x="389" y="-54"/>
      <point x="389" y="-127" type="curve" smooth="yes"/>
      <point x="389" y="-188"/>
      <point x="340" y="-259"/>
      <point x="245" y="-259" type="curve" smooth="yes"/>
      <point x="176" y="-259"/>
      <point x="159" y="-221"/>
      <point x="159" y="-191" type="curve" smooth="yes"/>
      <point x="159" y="-143"/>
      <point x="195" y="-107"/>
      <point x="240" y="-107" type="curve"/>
      <point x="242" y="-107"/>
      <point x="246" y="-107"/>
      <point x="251" y="-108" type="curve"/>
      <point x="232" y="-118"/>
      <point x="221" y="-134"/>
      <point x="221" y="-151" type="curve" smooth="yes"/>
      <point x="221" y="-176"/>
      <point x="237" y="-192"/>
      <point x="261" y="-192" type="curve" smooth="yes"/>
      <point x="289" y="-192"/>
      <point x="317" y="-169"/>
      <point x="317" y="-132" type="curve" smooth="yes"/>
      <point x="317" y="-99"/>
      <point x="289" y="-77"/>
      <point x="249" y="-77" type="curve" smooth="yes"/>
      <point x="191" y="-77"/>
      <point x="128" y="-122"/>
      <point x="128" y="-203" type="curve" smooth="yes"/>
      <point x="128" y="-270"/>
      <point x="174" y="-315"/>
    </contour>
  </outline>
</glyph>
<glyph name="kSignE" format="2">
  <advance width="382"/>
  <unicode hex="0CC6"/>
  <outline>
    <contour>
      <point x="221" y="460" type="line" smooth="yes"/>
      <point x="386" y="460"/>
      <point x="425" y="550"/>
      <point x="425" y="621" type="curve" smooth="yes"/>
      <point x="425" y="704"/>
      <point x="373" y="755"/>
      <point x="304" y="755" type="curve" smooth="yes"/>
      <point x="248" y="755"/>
      <point x="192" y="722"/>
      <point x="192" y="670" type="curve" smooth="yes"/>
      <point x="192" y="635"/>
      <point x="218" y="614"/>
      <point x="248" y="614" type="curve" smooth="yes"/>
      <point x="280" y="614"/>
      <point x="309" y="637"/>
      <point x="309" y="674" type="curve" smooth="yes"/>
      <point x="309" y="694"/>
      <point x="300" y="714"/>
      <point x="278" y="721" type="curve"/>
      <point x="288" y="724"/>
      <point x="296" y="726"/>
      <point x="306" y="726" type="curve" smooth="yes"/>
      <point x="347" y="726"/>
      <point x="382" y="693"/>
      <point x="382" y="646" type="curve" smooth="yes"/>
      <point x="382" y="591"/>
      <point x="335" y="548"/>
      <point x="236" y="548" type="curve" smooth="yes"/>
      <point x="3" y="548" type="line"/>
      <point x="-9" y="460" type="line"/>
    </contour>
  </outline>
</glyph>
<glyph name="kSignAu" format="2">
  <advance width="691"/>
  <unicode hex="0CCC"/>
  <outline>
    <contour>
      <point x="422" y="172" type="curve" smooth="yes"/>
      <point x="580" y="172"/>
      <point x="674" y="324"/>
      <point x="674" y="466" type="curve" smooth="yes"/>
      <point x="674" y="601"/>
      <point x="590" y="726"/>
      <point x="384" y="726" type="curve" smooth="yes"/>
      <point x="70" y="726" type="line"/>
      <point x="58" y="640" type="line"/>
      <point x="382" y="640" type="line" smooth="yes"/>
      <point x="569" y="640"/>
      <point x="631" y="537"/>
      <point x="631" y="444" type="curve" smooth="yes"/>
      <point x="631" y="335"/>
      <point x="543" y="236"/>
      <point x="418" y="236" type="curve" smooth="yes"/>
      <point x="339" y="236"/>
      <point x="300" y="279"/>
      <point x="300" y="342" type="curve" smooth="yes"/>
      <point x="300" y="392"/>
      <point x="344" y="433"/>
      <point x="399" y="433" type="curve" smooth="yes"/>
      <point x="404" y="433"/>
      <point x="407" y="433"/>
      <point x="413" y="432" type="curve"/>
      <point x="384" y="416"/>
      <point x="372" y="392"/>
      <point x="372" y="370" type="curve" smooth="yes"/>
      <point x="372" y="340"/>
      <point x="394" y="310"/>
      <point x="432" y="310" type="curve" smooth="yes"/>
      <point x="469" y="310"/>
      <point x="510" y="340"/>
      <point x="510" y="395" type="curve" smooth="yes"/>
      <point x="510" y="444"/>
      <point x="475" y="475"/>
      <point x="416" y="475" type="curve" smooth="yes"/>
      <point x="337" y="475"/>
      <point x="266" y="412"/>
      <point x="266" y="319" type="curve" smooth="yes"/>
      <point x="266" y="228"/>
      <point x="329" y="172"/>
    </contour>
    <contour>
      <point x="204" y="460" type="line"/>
      <point x="340" y="460"/>
      <point x="372" y="532"/>
      <point x="372" y="581" type="curve" smooth="yes"/>
      <point x="372" y="610"/>
      <point x="363" y="634"/>
      <point x="341" y="660" type="curve"/>
      <point x="301" y="660" type="line"/>
      <point x="329" y="639"/>
      <point x="336" y="620"/>
      <point x="336" y="599" type="curve" smooth="yes"/>
      <point x="336" y="548"/>
      <point x="275" y="548"/>
      <point x="237" y="548" type="curve" smooth="yes"/>
      <point x="3" y="548" type="line"/>
      <point x="-9" y="460" type="line"/>
    </contour>
  </outline>
</glyph>
<glyph name="kVirama" format="2">
  <advance width="408"/>
  <unicode hex="0CCD"/>
  <outline>
    <contour>
      <point x="292" y="290" type="curve" smooth="yes"/>
      <point x="353" y="290"/>
      <point x="402" y="348"/>
      <point x="402" y="419" type="curve" smooth="yes"/>
      <point x="402" y="499"/>
      <point x="345" y="548"/>
      <point x="247" y="548" type="curve" smooth="yes"/>
      <point x="3" y="548" type="line"/>
      <point x="-9" y="460" type="line"/>
      <point x="261" y="460" type="line" smooth="yes"/>
      <point x="327" y="460"/>
      <point x="364" y="441"/>
      <point x="364" y="406" type="curve" smooth="yes"/>
      <point x="364" y="375"/>
      <point x="334" y="354"/>
      <point x="298" y="354" type="curve" smooth="yes"/>
      <point x="261" y="354"/>
      <point x="236" y="372"/>
      <point x="236" y="426" type="curve" smooth="yes"/>
      <point x="236" y="441"/>
      <point x="238" y="449"/>
      <point x="246" y="481" type="curve"/>
      <point x="212" y="481" type="line"/>
      <point x="203" y="453"/>
      <point x="201" y="425"/>
      <point x="201" y="408" type="curve" smooth="yes"/>
      <point x="201" y="337"/>
      <point x="234" y="290"/>
    </contour>
    <contour>
      <point x="266" y="528" type="line"/>
      <point x="304" y="599"/>
      <point x="391" y="621"/>
      <point x="442" y="621" type="curve" smooth="yes"/>
      <point x="462" y="621"/>
      <point x="473" y="618"/>
      <point x="481" y="618" type="curve" smooth="yes"/>
      <point x="492" y="618"/>
      <point x="515" y="661"/>
      <point x="515" y="674" type="curve"/>
      <point x="515" y="676"/>
      <point x="515" y="679"/>
      <point x="510" y="680" type="curve" smooth="yes"/>
      <point x="505" y="681"/>
      <point x="498" y="682"/>
      <point x="484" y="682" type="curve" smooth="yes"/>
      <point x="375" y="682"/>
      <point x="281" y="632"/>
      <point x="228" y="528" type="curve"/>
    </contour>
  </outline>
</glyph>
<glyph name="kLengthMark" format="2">
  <unicode hex="0CD5"/>
  <outline>
    <contour>
      <point x="251" y="-113" type="curve" smooth="yes"/>
      <point x="257" y="-113"/>
      <point x="265" y="-105"/>
      <point x="265" y="-69" type="curve" smooth="yes"/>
      <point x="265" y="-55"/>
      <point x="263" y="-30"/>
      <point x="260" y="-21" type="curve"/>
      <point x="163" y="18"/>
      <point x="89" y="130"/>
      <point x="89" y="242" type="curve" smooth="yes"/>
      <point x="89" y="395"/>
      <point x="165" y="473"/>
      <point x="246" y="473" type="curve" smooth="yes"/>
      <point x="305" y="473"/>
      <point x="331" y="443"/>
      <point x="331" y="402" type="curve" smooth="yes"/>
      <point x="331" y="369"/>
      <point x="305" y="332"/>
      <point x="253" y="332" type="curve" smooth="yes"/>
      <point x="189" y="332"/>
      <point x="151" y="372"/>
      <point x="167" y="466" type="curve"/>
      <point x="104" y="403" type="line"/>
      <point x="135" y="399" type="line"/>
      <point x="134" y="303"/>
      <point x="190" y="258"/>
      <point x="242" y="258" type="curve" smooth="yes"/>
      <point x="313" y="258"/>
      <point x="370" y="330"/>
      <point x="370" y="426" type="curve" smooth="yes"/>
      <point x="370" y="500"/>
      <point x="329" y="558"/>
      <point x="260" y="558" type="curve" smooth="yes"/>
      <point x="163" y="558"/>
      <point x="50" y="456"/>
      <point x="50" y="226" type="curve" smooth="yes"/>
      <point x="50" y="97"/>
      <point x="121" y="-28"/>
      <point x="214" y="-93" type="curve" smooth="yes"/>
      <point x="225" y="-101"/>
      <point x="244" y="-113"/>
    </contour>
  </outline>
</glyph>
<glyph name="kAiLengthMark" format="2">
  <unicode hex="0CD6"/>
  <outline>
    <contour>
      <point x="-170" y="-449" type="curve" smooth="yes"/>
      <point x="-8" y="-449"/>
      <point x="49" y="-313"/>
      <point x="49" y="-223" type="curve" smooth="yes"/>
      <point x="49" y="-147"/>
      <point x="15" y="-92"/>
      <point x="-56" y="-80" type="curve"/>
      <point x="-60" y="-111" type="line"/>
      <point x="-12" y="-124"/>
      <point x="9" y="-167"/>
      <point x="9" y="-219" type="curve" smooth="yes"/>
      <point x="9" y="-279"/>
      <point x="-54" y="-362"/>
      <point x="-161" y="-362" type="curve" smooth="yes"/>
      <point x="-263" y="-362"/>
      <point x="-292" y="-304"/>
      <point x="-292" y="-249" type="curve" smooth="yes"/>
      <point x="-292" y="-220"/>
      <point x="-264" y="-141"/>
      <point x="-194" y="-141" type="curve" smooth="yes"/>
      <point x="-155" y="-141"/>
      <point x="-140" y="-161"/>
      <point x="-140" y="-184" type="curve" smooth="yes"/>
      <point x="-140" y="-209"/>
      <point x="-166" y="-223"/>
      <point x="-193" y="-223" type="curve" smooth="yes"/>
      <point x="-234" y="-223"/>
      <point x="-260" y="-201"/>
      <point x="-250" y="-144" type="curve"/>
      <point x="-297" y="-198" type="line"/>
      <point x="-272" y="-198" type="line"/>
      <point x="-272" y="-261"/>
      <point x="-239" y="-285"/>
      <point x="-204" y="-285" type="curve" smooth="yes"/>
      <point x="-150" y="-285"/>
      <point x="-112" y="-240"/>
      <point x="-112" y="-167" type="curve" smooth="yes"/>
      <point x="-112" y="-120"/>
      <point x="-140" y="-80"/>
      <point x="-185" y="-80" type="curve" smooth="yes"/>
      <point x="-270" y="-80"/>
      <point x="-330" y="-184"/>
      <point x="-330" y="-266" type="curve" smooth="yes"/>
      <point x="-330" y="-350"/>
      <point x="-284" y="-449"/>
    </contour>
    <contour>
      <point x="-48" y="-103" type="line"/>
      <point x="36" y="-83"/>
      <point x="80" y="-36"/>
      <point x="80" y="15" type="curve" smooth="yes"/>
      <point x="80" y="62"/>
      <point x="47" y="99"/>
      <point x="-9" y="106" type="curve"/>
      <point x="-21" y="85" type="line"/>
      <point x="11" y="67"/>
      <point x="21" y="44"/>
      <point x="21" y="13" type="curve" smooth="yes"/>
      <point x="21" y="-21"/>
      <point x="4" y="-53"/>
      <point x="-56" y="-80" type="curve"/>
    </contour>
  </outline>
</glyph>
<glyph name="kNakaaraPollu" format="2">
  <advance width="528"/>
  <unicode hex="0CDD"/>
  <outline>
    <contour>
      <point x="349" y="303" type="line"/>
      <point x="361" y="380" type="line"/>
      <point x="193" y="380" type="line" smooth="yes"/>
      <point x="145" y="380"/>
      <point x="126" y="393"/>
      <point x="126" y="418" type="curve" smooth="yes"/>
      <point x="126" y="441"/>
      <point x="147" y="460"/>
      <point x="203" y="460" type="curve" smooth="yes"/>
      <point x="569" y="460" type="line"/>
      <point x="581" y="548" type="line"/>
      <point x="236" y="548" type="line" smooth="yes"/>
      <point x="134" y="548"/>
      <point x="87" y="482"/>
      <point x="87" y="411" type="curve" smooth="yes"/>
      <point x="87" y="362"/>
      <point x="109" y="328"/>
      <point x="138" y="315" type="curve"/>
      <point x="183" y="303" type="line"/>
    </contour>
    <contour>
      <point x="267" y="-13" type="line"/>
      <point x="279" y="64" type="line"/>
      <point x="151" y="64" type="line" smooth="yes"/>
      <point x="102" y="64"/>
      <point x="85" y="80"/>
      <point x="85" y="102" type="curve" smooth="yes"/>
      <point x="85" y="122"/>
      <point x="106" y="144"/>
      <point x="159" y="145" type="curve"/>
      <point x="132" y="173" type="line"/>
      <point x="67" y="157"/>
      <point x="42" y="118"/>
      <point x="42" y="74" type="curve" smooth="yes"/>
      <point x="42" y="10"/>
      <point x="89" y="-13"/>
      <point x="147" y="-13" type="curve" smooth="yes"/>
    </contour>
    <contour>
      <point x="308" y="145" type="line"/>
      <point x="320" y="222" type="line"/>
      <point x="164" y="222" type="line" smooth="yes"/>
      <point x="123" y="222"/>
      <point x="106" y="238"/>
      <point x="106" y="260" type="curve" smooth="yes"/>
      <point x="106" y="281"/>
      <point x="126" y="303"/>
      <point x="183" y="303" type="curve"/>
      <point x="157" y="331" type="line"/>
      <point x="71" y="315"/>
      <point x="64" y="259"/>
      <point x="64" y="240" type="curve" smooth="yes"/>
      <point x="64" y="204"/>
      <point x="84" y="173"/>
      <point x="112" y="158" type="curve"/>
      <point x="129" y="145" type="line"/>
    </contour>
  </outline>
</glyph>
<glyph name="kVocalicRr" format="2">
  <advance width="1674"/>
  <unicode hex="0CE0"/>
  <outline>
    <contour>
      <point x="975" y="-15" type="curve" smooth="yes"/>
      <point x="1073" y="-15"/>
      <point x="1120" y="71"/>
      <point x="1120" y="161" type="curve" smooth="yes"/>
      <point x="1120" y="180"/>
      <point x="1118" y="202"/>
      <point x="1118" y="222" type="curve" smooth="yes"/>
      <point x="1118" y="371"/>
      <point x="1232" y="457"/>
      <point x="1363" y="457" type="curve" smooth="yes"/>
      <point x="1499" y="457"/>
      <point x="1570" y="366"/>
      <point x="1570" y="266" type="curve" smooth="yes"/>
      <point x="1570" y="164"/>
      <point x="1493" y="61"/>
      <point x="1363" y="61" type="curve" smooth="yes"/>
      <point x="1273" y="61"/>
      <point x="1237" y="105"/>
      <point x="1237" y="169" type="curve" smooth="yes"/>
      <point x="1237" y="221"/>
      <point x="1276" y="286"/>
      <point x="1354" y="286" type="curve"/>
      <point x="1356" y="286"/>
      <point x="1359" y="286"/>
      <point x="1365" y="285" type="curve"/>
      <point x="1337" y="269"/>
      <point x="1324" y="243"/>
      <point x="1324" y="220" type="curve" smooth="yes"/>
      <point x="1324" y="188"/>
      <point x="1348" y="163"/>
      <point x="1382" y="163" type="curve" smooth="yes"/>
      <point x="1419" y="163"/>
      <point x="1462" y="191"/>
      <point x="1462" y="248" type="curve" smooth="yes"/>
      <point x="1462" y="295"/>
      <point x="1430" y="328"/>
      <point x="1372" y="328" type="curve" smooth="yes"/>
      <point x="1284" y="328"/>
      <point x="1200" y="254"/>
      <point x="1200" y="144" type="curve" smooth="yes"/>
      <point x="1200" y="51"/>
      <point x="1264" y="-15"/>
      <point x="1353" y="-15" type="curve" smooth="yes"/>
      <point x="1516" y="-15"/>
      <point x="1614" y="154"/>
      <point x="1614" y="296" type="curve" smooth="yes"/>
      <point x="1614" y="437"/>
      <point x="1516" y="548"/>
      <point x="1365" y="548" type="curve" smooth="yes"/>
      <point x="1204" y="548"/>
      <point x="1080" y="442"/>
      <point x="1080" y="303" type="curve" smooth="yes"/>
      <point x="1080" y="269"/>
      <point x="1085" y="239"/>
      <point x="1085" y="211" type="curve" smooth="yes"/>
      <point x="1085" y="147"/>
      <point x="1038" y="92"/>
      <point x="983" y="92" type="curve" smooth="yes"/>
      <point x="896" y="92"/>
      <point x="857" y="148"/>
      <point x="837" y="249" type="curve"/>
      <point x="803" y="136" type="line"/>
      <point x="837" y="136" type="line"/>
      <point x="846" y="64"/>
      <point x="879" y="-15"/>
    </contour>
    <contour>
      <point x="204" y="-15" type="curve" smooth="yes"/>
      <point x="391" y="-15"/>
      <point x="512" y="132"/>
      <point x="512" y="306" type="curve" smooth="yes"/>
      <point x="512" y="489"/>
      <point x="393" y="558"/>
      <point x="280" y="558" type="curve" smooth="yes"/>
      <point x="181" y="558"/>
      <point x="87" y="502"/>
      <point x="87" y="411" type="curve" smooth="yes"/>
      <point x="87" y="356"/>
      <point x="125" y="319"/>
      <point x="179" y="319" type="curve" smooth="yes"/>
      <point x="257" y="319"/>
      <point x="295" y="376"/>
      <point x="295" y="425" type="curve" smooth="yes"/>
      <point x="295" y="464"/>
      <point x="275" y="500"/>
      <point x="232" y="510" type="curve"/>
      <point x="231" y="541" type="line"/>
      <point x="168" y="498" type="line"/>
      <point x="222" y="492"/>
      <point x="242" y="462"/>
      <point x="242" y="424" type="curve" smooth="yes"/>
      <point x="242" y="386"/>
      <point x="206" y="362"/>
      <point x="178" y="362" type="curve" smooth="yes"/>
      <point x="148" y="362"/>
      <point x="125" y="378"/>
      <point x="125" y="415" type="curve" smooth="yes"/>
      <point x="125" y="475"/>
      <point x="196" y="519"/>
      <point x="264" y="519" type="curve" smooth="yes"/>
      <point x="337" y="519"/>
      <point x="410" y="485"/>
      <point x="410" y="324" type="curve" smooth="yes"/>
      <point x="410" y="123"/>
      <point x="293" y="26"/>
      <point x="197" y="26" type="curve" smooth="yes"/>
      <point x="135" y="26"/>
      <point x="78" y="60"/>
      <point x="78" y="113" type="curve" smooth="yes"/>
      <point x="78" y="157"/>
      <point x="115" y="179"/>
      <point x="146" y="179" type="curve" smooth="yes"/>
      <point x="183" y="179"/>
      <point x="201" y="154"/>
      <point x="201" y="126" type="curve" smooth="yes"/>
      <point x="201" y="85"/>
      <point x="160" y="43"/>
      <point x="83" y="45" type="curve"/>
      <point x="154" y="6" type="line"/>
      <point x="167" y="31" type="line"/>
      <point x="227" y="45"/>
      <point x="253" y="94"/>
      <point x="253" y="134" type="curve" smooth="yes"/>
      <point x="253" y="178"/>
      <point x="223" y="226"/>
      <point x="156" y="226" type="curve" smooth="yes"/>
      <point x="102" y="226"/>
      <point x="37" y="189"/>
      <point x="37" y="111" type="curve" smooth="yes"/>
      <point x="37" y="39"/>
      <point x="108" y="-15"/>
    </contour>
    <contour>
      <point x="657" y="-15" type="curve" smooth="yes"/>
      <point x="796" y="-15"/>
      <point x="848" y="132"/>
      <point x="848" y="235" type="curve" smooth="yes"/>
      <point x="848" y="334"/>
      <point x="818" y="412"/>
      <point x="762" y="461" type="curve"/>
      <point x="766" y="483" type="line"/>
      <point x="641" y="460" type="line"/>
      <point x="747" y="460"/>
      <point x="805" y="380"/>
      <point x="805" y="262" type="curve" smooth="yes"/>
      <point x="805" y="177"/>
      <point x="752" y="96"/>
      <point x="661" y="96" type="curve" smooth="yes"/>
      <point x="571" y="96"/>
      <point x="516" y="155"/>
      <point x="500" y="270" type="curve"/>
      <point x="467" y="179" type="line"/>
      <point x="493" y="179" type="line"/>
      <point x="497" y="62"/>
      <point x="562" y="-15"/>
    </contour>
    <contour>
      <point x="641" y="460" type="line"/>
      <point x="717" y="460" type="line" smooth="yes"/>
      <point x="910" y="460"/>
      <point x="943" y="553"/>
      <point x="943" y="630" type="curve" smooth="yes"/>
      <point x="943" y="681"/>
      <point x="920" y="715"/>
      <point x="885" y="747" type="curve"/>
      <point x="862" y="729" type="line"/>
      <point x="883" y="707"/>
      <point x="898" y="679"/>
      <point x="898" y="650" type="curve" smooth="yes"/>
      <point x="898" y="600"/>
      <point x="867" y="548"/>
      <point x="752" y="548" type="curve" smooth="yes"/>
      <point x="580" y="548" type="line"/>
      <point x="568" y="460" type="line"/>
    </contour>
  </outline>
</glyph>
<glyph name="kVocalicLl" format="2">
  <advance width="1377"/>
  <unicode hex="0CE1"/>
  <outline>
    <contour>
      <point x="587" y="-15" type="curve" smooth="yes"/>
      <point x="639" y="-15"/>
      <point x="849" y="7"/>
      <point x="849" y="404" type="curve" smooth="yes"/>
      <point x="849" y="420"/>
      <point x="847" y="446"/>
      <point x="845" y="460" type="curve"/>
      <point x="1023" y="460" type="line" smooth="yes"/>
      <point x="1201" y="460"/>
      <point x="1274" y="375"/>
      <point x="1274" y="262" type="curve" smooth="yes"/>
      <point x="1274" y="167"/>
      <point x="1198" y="61"/>
      <point x="1058" y="61" type="curve" smooth="yes"/>
      <point x="957" y="61"/>
      <point x="919" y="105"/>
      <point x="919" y="169" type="curve" smooth="yes"/>
      <point x="919" y="223"/>
      <point x="969" y="289"/>
      <point x="1048" y="289" type="curve"/>
      <point x="1050" y="289"/>
      <point x="1053" y="289"/>
      <point x="1059" y="288" type="curve"/>
      <point x="1030" y="273"/>
      <point x="1018" y="248"/>
      <point x="1018" y="225" type="curve" smooth="yes"/>
      <point x="1018" y="191"/>
      <point x="1038" y="166"/>
      <point x="1077" y="166" type="curve" smooth="yes"/>
      <point x="1114" y="166"/>
      <point x="1155" y="195"/>
      <point x="1155" y="250" type="curve" smooth="yes"/>
      <point x="1155" y="299"/>
      <point x="1123" y="331"/>
      <point x="1062" y="331" type="curve" smooth="yes"/>
      <point x="975" y="331"/>
      <point x="882" y="259"/>
      <point x="882" y="144" type="curve" smooth="yes"/>
      <point x="882" y="51"/>
      <point x="948" y="-15"/>
      <point x="1048" y="-15" type="curve" smooth="yes"/>
      <point x="1221" y="-15"/>
      <point x="1318" y="159"/>
      <point x="1318" y="292" type="curve" smooth="yes"/>
      <point x="1318" y="445"/>
      <point x="1218" y="548"/>
      <point x="1025" y="548" type="curve" smooth="yes"/>
      <point x="800" y="548" type="line"/>
      <point x="807" y="508"/>
      <point x="811" y="455"/>
      <point x="811" y="414" type="curve" smooth="yes"/>
      <point x="811" y="99"/>
      <point x="648" y="80"/>
      <point x="600" y="80" type="curve" smooth="yes"/>
      <point x="545" y="80"/>
      <point x="510" y="104"/>
      <point x="510" y="140" type="curve" smooth="yes"/>
      <point x="510" y="221"/>
      <point x="719" y="256"/>
      <point x="719" y="413" type="curve" smooth="yes"/>
      <point x="719" y="503"/>
      <point x="661" y="558"/>
      <point x="580" y="558" type="curve" smooth="yes"/>
      <point x="491" y="558"/>
      <point x="419" y="488"/>
      <point x="390" y="389" type="curve"/>
      <point x="387" y="299" type="line"/>
      <point x="414" y="386"/>
      <point x="476" y="460"/>
      <point x="565" y="460" type="curve" smooth="yes"/>
      <point x="628" y="460"/>
      <point x="667" y="432"/>
      <point x="667" y="376" type="curve" smooth="yes"/>
      <point x="667" y="271"/>
      <point x="453" y="243"/>
      <point x="453" y="112" type="curve" smooth="yes"/>
      <point x="453" y="38"/>
      <point x="506" y="-15"/>
    </contour>
    <contour>
      <point x="120" y="235" type="line"/>
      <point x="110" y="256"/>
      <point x="105" y="285"/>
      <point x="105" y="322" type="curve" smooth="yes"/>
      <point x="105" y="401"/>
      <point x="174" y="460"/>
      <point x="245" y="460" type="curve" smooth="yes"/>
      <point x="336" y="460"/>
      <point x="368" y="401"/>
      <point x="369" y="299" type="curve"/>
      <point x="387" y="299" type="line"/>
      <point x="413" y="407" type="line"/>
      <point x="393" y="407" type="line"/>
      <point x="383" y="506"/>
      <point x="334" y="558"/>
      <point x="248" y="558" type="curve" smooth="yes"/>
      <point x="135" y="558"/>
      <point x="64" y="448"/>
      <point x="64" y="347" type="curve" smooth="yes"/>
      <point x="64" y="295"/>
      <point x="73" y="251"/>
      <point x="90" y="221" type="curve"/>
    </contour>
  </outline>
</glyph>
<glyph name="kSignVocalicL" format="2">
  <unicode hex="0CE2"/>
  <outline>
    <contour>
      <point x="-8" y="-444" type="curve" smooth="yes"/>
      <point x="37" y="-444"/>
      <point x="101" y="-417"/>
      <point x="120" y="-313" type="curve"/>
      <point x="94" y="-309" type="line"/>
      <point x="72" y="-361"/>
      <point x="34" y="-373"/>
      <point x="10" y="-373" type="curve" smooth="yes"/>
      <point x="-28" y="-373"/>
      <point x="-36" y="-357"/>
      <point x="-36" y="-337" type="curve" smooth="yes"/>
      <point x="-36" y="-283"/>
      <point x="97" y="-264"/>
      <point x="97" y="-163" type="curve" smooth="yes"/>
      <point x="97" y="-108"/>
      <point x="59" y="-55"/>
      <point x="-9" y="-55" type="curve" smooth="yes"/>
      <point x="-79" y="-55"/>
      <point x="-130" y="-105"/>
      <point x="-160" y="-183" type="curve"/>
      <point x="-157" y="-256" type="line"/>
      <point x="-139" y="-196"/>
      <point x="-95" y="-142"/>
      <point x="-31" y="-142" type="curve" smooth="yes"/>
      <point x="13" y="-142"/>
      <point x="39" y="-163"/>
      <point x="39" y="-199" type="curve" smooth="yes"/>
      <point x="39" y="-255"/>
      <point x="-90" y="-277"/>
      <point x="-90" y="-364" type="curve" smooth="yes"/>
      <point x="-90" y="-412"/>
      <point x="-50" y="-444"/>
    </contour>
    <contour>
      <point x="-350" y="-288" type="line"/>
      <point x="-355" y="-277"/>
      <point x="-358" y="-260"/>
      <point x="-358" y="-241" type="curve" smooth="yes"/>
      <point x="-358" y="-192"/>
      <point x="-319" y="-142"/>
      <point x="-261" y="-142" type="curve" smooth="yes"/>
      <point x="-203" y="-142"/>
      <point x="-179" y="-178"/>
      <point x="-176" y="-256" type="curve"/>
      <point x="-157" y="-256" type="line"/>
      <point x="-135" y="-164" type="line"/>
      <point x="-154" y="-164" type="line"/>
      <point x="-161" y="-94"/>
      <point x="-194" y="-55"/>
      <point x="-255" y="-55" type="curve" smooth="yes"/>
      <point x="-339" y="-55"/>
      <point x="-399" y="-131"/>
      <point x="-399" y="-217" type="curve" smooth="yes"/>
      <point x="-399" y="-250"/>
      <point x="-391" y="-280"/>
      <point x="-381" y="-302" type="curve"/>
    </contour>
  </outline>
</glyph>
<glyph name="kSignVocalicLl" format="2">
  <unicode hex="0CE3"/>
  <outline>
    <contour>
      <point x="9" y="-444" type="curve" smooth="yes"/>
      <point x="111" y="-444"/>
      <point x="193" y="-371"/>
      <point x="193" y="-189" type="curve" smooth="yes"/>
      <point x="193" y="-162"/>
      <point x="191" y="-138"/>
      <point x="190" y="-130" type="curve"/>
      <point x="309" y="-130" type="line" smooth="yes"/>
      <point x="431" y="-130"/>
      <point x="480" y="-187"/>
      <point x="480" y="-256" type="curve" smooth="yes"/>
      <point x="480" y="-317"/>
      <point x="431" y="-388"/>
      <point x="336" y="-388" type="curve" smooth="yes"/>
      <point x="267" y="-388"/>
      <point x="250" y="-350"/>
      <point x="250" y="-320" type="curve" smooth="yes"/>
      <point x="250" y="-272"/>
      <point x="286" y="-236"/>
      <point x="331" y="-236" type="curve"/>
      <point x="333" y="-236"/>
      <point x="337" y="-236"/>
      <point x="342" y="-237" type="curve"/>
      <point x="323" y="-247"/>
      <point x="312" y="-263"/>
      <point x="312" y="-280" type="curve" smooth="yes"/>
      <point x="312" y="-305"/>
      <point x="328" y="-321"/>
      <point x="352" y="-321" type="curve" smooth="yes"/>
      <point x="380" y="-321"/>
      <point x="408" y="-298"/>
      <point x="408" y="-261" type="curve" smooth="yes"/>
      <point x="408" y="-228"/>
      <point x="380" y="-206"/>
      <point x="340" y="-206" type="curve" smooth="yes"/>
      <point x="282" y="-206"/>
      <point x="219" y="-251"/>
      <point x="219" y="-332" type="curve" smooth="yes"/>
      <point x="219" y="-399"/>
      <point x="265" y="-444"/>
      <point x="332" y="-444" type="curve" smooth="yes"/>
      <point x="435" y="-444"/>
      <point x="513" y="-339"/>
      <point x="513" y="-234" type="curve" smooth="yes"/>
      <point x="513" y="-145"/>
      <point x="453" y="-62"/>
      <point x="319" y="-62" type="curve" smooth="yes"/>
      <point x="152" y="-62" type="line"/>
      <point x="159" y="-109"/>
      <point x="163" y="-152"/>
      <point x="163" y="-173" type="curve" smooth="yes"/>
      <point x="163" y="-322"/>
      <point x="86" y="-374"/>
      <point x="25" y="-374" type="curve" smooth="yes"/>
      <point x="-18" y="-374"/>
      <point x="-33" y="-357"/>
      <point x="-33" y="-337" type="curve" smooth="yes"/>
      <point x="-33" y="-283"/>
      <point x="97" y="-264"/>
      <point x="97" y="-163" type="curve" smooth="yes"/>
      <point x="97" y="-108"/>
      <point x="59" y="-55"/>
      <point x="-9" y="-55" type="curve" smooth="yes"/>
      <point x="-79" y="-55"/>
      <point x="-130" y="-105"/>
      <point x="-160" y="-183" type="curve"/>
      <point x="-157" y="-256" type="line"/>
      <point x="-139" y="-196"/>
      <point x="-95" y="-142"/>
      <point x="-31" y="-142" type="curve" smooth="yes"/>
      <point x="13" y="-142"/>
      <point x="39" y="-163"/>
      <point x="39" y="-199" type="curve" smooth="yes"/>
      <point x="39" y="-255"/>
      <point x="-87" y="-277"/>
      <point x="-87" y="-364" type="curve" smooth="yes"/>
      <point x="-87" y="-412"/>
      <point x="-40" y="-444"/>
    </contour>
    <contour>
      <point x="-350" y="-288" type="line"/>
      <point x="-355" y="-277"/>
      <point x="-358" y="-260"/>
      <point x="-358" y="-241" type="curve" smooth="yes"/>
      <point x="-358" y="-192"/>
      <point x="-319" y="-142"/>
      <point x="-261" y="-142" type="curve" smooth="yes"/>
      <point x="-203" y="-142"/>
      <point x="-179" y="-178"/>
      <point x="-176" y="-256" type="curve"/>
      <point x="-157" y="-256" type="line"/>
      <point x="-135" y="-164" type="line"/>
      <point x="-154" y="-164" type="line"/>
      <point x="-161" y="-94"/>
      <point x="-194" y="-55"/>
      <point x="-255" y="-55" type="curve" smooth="yes"/>
      <point x="-339" y="-55"/>
      <point x="-399" y="-131"/>
      <point x="-399" y="-217" type="curve" smooth="yes"/>
      <point x="-399" y="-250"/>
      <point x="-391" y="-280"/>
      <point x="-381" y="-302" type="curve"/>
    </contour>
  </outline>
</glyph>
<glyph name="kZero" format="2">
  <advance width="616"/>
  <unicode hex="0CE6"/>
  <outline>
    <contour>
      <point x="276" y="-15" type="curve" smooth="yes"/>
      <point x="455" y="-15"/>
      <point x="557" y="155"/>
      <point x="557" y="313" type="curve" smooth="yes"/>
      <point x="557" y="445"/>
      <point x="492" y="558"/>
      <point x="353" y="558" type="curve" smooth="yes"/>
      <point x="172" y="558"/>
      <point x="69" y="387"/>
      <point x="69" y="233" type="curve" smooth="yes"/>
      <point x="69" y="98"/>
      <point x="141" y="-15"/>
    </contour>
    <contour>
      <point x="289" y="95" type="curve" smooth="yes"/>
      <point x="176" y="95"/>
      <point x="111" y="153"/>
      <point x="111" y="257" type="curve" smooth="yes"/>
      <point x="111" y="372"/>
      <point x="223" y="459"/>
      <point x="339" y="459" type="curve" smooth="yes"/>
      <point x="448" y="459"/>
      <point x="516" y="400"/>
      <point x="516" y="292" type="curve" smooth="yes"/>
      <point x="516" y="180"/>
      <point x="413" y="95"/>
    </contour>
  </outline>
</glyph>
<glyph name="kOne" format="2">
  <advance width="630"/>
  <unicode hex="0CE7"/>
  <outline>
    <contour>
      <point x="176" y="-7" type="curve"/>
      <point x="189" y="-7"/>
      <point x="212" y="27"/>
      <point x="225" y="77" type="curve"/>
      <point x="163" y="95"/>
      <point x="110" y="164"/>
      <point x="110" y="250" type="curve" smooth="yes"/>
      <point x="110" y="376"/>
      <point x="223" y="459"/>
      <point x="346" y="459" type="curve" smooth="yes"/>
      <point x="460" y="459"/>
      <point x="529" y="387"/>
      <point x="529" y="287" type="curve" smooth="yes"/>
      <point x="529" y="183"/>
      <point x="454" y="115"/>
      <point x="342" y="76" type="curve"/>
      <point x="338" y="28"/>
      <point x="347" y="-7"/>
      <point x="360" y="-7" type="curve"/>
      <point x="362" y="-7"/>
      <point x="367" y="-6"/>
      <point x="376" y="-2" type="curve" smooth="yes"/>
      <point x="425" y="19"/>
      <point x="571" y="101"/>
      <point x="571" y="308" type="curve" smooth="yes"/>
      <point x="571" y="444"/>
      <point x="508" y="558"/>
      <point x="357" y="558" type="curve" smooth="yes"/>
      <point x="169" y="558"/>
      <point x="67" y="381"/>
      <point x="67" y="219" type="curve" smooth="yes"/>
      <point x="67" y="88"/>
      <point x="133" y="15"/>
      <point x="162" y="-2" type="curve" smooth="yes"/>
      <point x="169" y="-6"/>
      <point x="174" y="-7"/>
    </contour>
  </outline>
</glyph>
<glyph name="kTwo" format="2">
  <advance width="599"/>
  <unicode hex="0CE8"/>
  <outline>
    <contour>
      <point x="227" y="0" type="line" smooth="yes"/>
      <point x="469" y="0"/>
      <point x="550" y="165"/>
      <point x="550" y="335" type="curve" smooth="yes"/>
      <point x="550" y="474"/>
      <point x="482" y="558"/>
      <point x="378" y="558" type="curve" smooth="yes"/>
      <point x="259" y="558"/>
      <point x="187" y="447"/>
      <point x="187" y="348" type="curve" smooth="yes"/>
      <point x="187" y="273"/>
      <point x="232" y="213"/>
      <point x="300" y="213" type="curve" smooth="yes"/>
      <point x="369" y="213"/>
      <point x="415" y="259"/>
      <point x="415" y="321" type="curve" smooth="yes"/>
      <point x="415" y="354"/>
      <point x="402" y="388"/>
      <point x="376" y="407" type="curve"/>
      <point x="355" y="394" type="line"/>
      <point x="364" y="377"/>
      <point x="367" y="362"/>
      <point x="367" y="351" type="curve" smooth="yes"/>
      <point x="367" y="315"/>
      <point x="337" y="286"/>
      <point x="294" y="286" type="curve" smooth="yes"/>
      <point x="249" y="286"/>
      <point x="225" y="318"/>
      <point x="225" y="359" type="curve" smooth="yes"/>
      <point x="225" y="416"/>
      <point x="287" y="461"/>
      <point x="363" y="461" type="curve" smooth="yes"/>
      <point x="460" y="461"/>
      <point x="506" y="390"/>
      <point x="506" y="308" type="curve" smooth="yes"/>
      <point x="506" y="190"/>
      <point x="412" y="94"/>
      <point x="244" y="94" type="curve" smooth="yes"/>
      <point x="-15" y="94" type="line"/>
      <point x="-28" y="0" type="line"/>
    </contour>
  </outline>
</glyph>
<glyph name="kThree" format="2">
  <advance width="638"/>
  <unicode hex="0CE9"/>
  <outline>
    <contour>
      <point x="154" y="-15" type="curve" smooth="yes"/>
      <point x="311" y="-15"/>
      <point x="455" y="187"/>
      <point x="455" y="360" type="curve" smooth="yes"/>
      <point x="455" y="481"/>
      <point x="392" y="558"/>
      <point x="296" y="558" type="curve" smooth="yes"/>
      <point x="196" y="558"/>
      <point x="115" y="475"/>
      <point x="115" y="380" type="curve" smooth="yes"/>
      <point x="115" y="317"/>
      <point x="151" y="274"/>
      <point x="208" y="274" type="curve" smooth="yes"/>
      <point x="262" y="274"/>
      <point x="310" y="314"/>
      <point x="310" y="367" type="curve" smooth="yes"/>
      <point x="310" y="397"/>
      <point x="297" y="425"/>
      <point x="269" y="446" type="curve"/>
      <point x="246" y="431" type="line"/>
      <point x="256" y="420"/>
      <point x="261" y="403"/>
      <point x="261" y="391" type="curve" smooth="yes"/>
      <point x="261" y="363"/>
      <point x="234" y="338"/>
      <point x="201" y="338" type="curve" smooth="yes"/>
      <point x="170" y="338"/>
      <point x="152" y="359"/>
      <point x="152" y="384" type="curve" smooth="yes"/>
      <point x="152" y="428"/>
      <point x="205" y="471"/>
      <point x="282" y="471" type="curve" smooth="yes"/>
      <point x="374" y="471"/>
      <point x="412" y="410"/>
      <point x="412" y="330" type="curve" smooth="yes"/>
      <point x="412" y="205"/>
      <point x="288" y="83"/>
      <point x="165" y="83" type="curve" smooth="yes"/>
      <point x="109" y="83"/>
      <point x="72" y="105"/>
      <point x="72" y="137" type="curve" smooth="yes"/>
      <point x="72" y="164"/>
      <point x="110" y="195"/>
      <point x="168" y="195" type="curve" smooth="yes"/>
      <point x="324" y="195"/>
      <point x="334" y="-15"/>
      <point x="473" y="-15" type="curve" smooth="yes"/>
      <point x="558" y="-15"/>
      <point x="600" y="59"/>
      <point x="617" y="135" type="curve"/>
      <point x="593" y="147" type="line"/>
      <point x="572" y="113"/>
      <point x="545" y="79"/>
      <point x="486" y="79" type="curve" smooth="yes"/>
      <point x="337" y="79"/>
      <point x="318" y="229"/>
      <point x="171" y="229" type="curve" smooth="yes"/>
      <point x="74" y="229"/>
      <point x="22" y="170"/>
      <point x="22" y="104" type="curve" smooth="yes"/>
      <point x="22" y="31"/>
      <point x="75" y="-15"/>
    </contour>
  </outline>
</glyph>
<glyph name="kFour" format="2">
  <advance width="655"/>
  <unicode hex="0CEA"/>
  <outline>
    <contour>
      <point x="299" y="-25" type="curve" smooth="yes"/>
      <point x="368" y="-25"/>
      <point x="434" y="25"/>
      <point x="434" y="101" type="curve" smooth="yes"/>
      <point x="434" y="181"/>
      <point x="362" y="222"/>
      <point x="300" y="240" type="curve" smooth="yes"/>
      <point x="176" y="277"/>
      <point x="113" y="299"/>
      <point x="113" y="377" type="curve" smooth="yes"/>
      <point x="113" y="428"/>
      <point x="165" y="498"/>
      <point x="234" y="498" type="curve" smooth="yes"/>
      <point x="272" y="498"/>
      <point x="302" y="476"/>
      <point x="302" y="443" type="curve" smooth="yes"/>
      <point x="302" y="410"/>
      <point x="272" y="383"/>
      <point x="228" y="383" type="curve" smooth="yes"/>
      <point x="203" y="383"/>
      <point x="183" y="390"/>
      <point x="168" y="415" type="curve"/>
      <point x="148" y="404" type="line"/>
      <point x="163" y="345"/>
      <point x="195" y="321"/>
      <point x="232" y="321" type="curve" smooth="yes"/>
      <point x="289" y="321"/>
      <point x="337" y="378"/>
      <point x="337" y="451" type="curve" smooth="yes"/>
      <point x="337" y="514"/>
      <point x="301" y="563"/>
      <point x="238" y="563" type="curve" smooth="yes"/>
      <point x="140" y="563"/>
      <point x="73" y="447"/>
      <point x="73" y="355" type="curve" smooth="yes"/>
      <point x="73" y="226"/>
      <point x="133" y="187"/>
      <point x="257" y="155" type="curve" smooth="yes"/>
      <point x="328" y="137"/>
      <point x="364" y="114"/>
      <point x="364" y="74" type="curve" smooth="yes"/>
      <point x="364" y="35"/>
      <point x="329" y="13"/>
      <point x="295" y="13" type="curve" smooth="yes"/>
      <point x="259" y="13"/>
      <point x="239" y="37"/>
      <point x="239" y="68" type="curve" smooth="yes"/>
      <point x="239" y="129"/>
      <point x="320" y="166"/>
      <point x="394" y="199" type="curve" smooth="yes"/>
      <point x="536" y="263"/>
      <point x="644" y="308"/>
      <point x="644" y="424" type="curve" smooth="yes"/>
      <point x="644" y="502"/>
      <point x="590" y="558"/>
      <point x="554" y="558" type="curve" smooth="yes"/>
      <point x="531" y="558"/>
      <point x="520" y="542"/>
      <point x="520" y="523" type="curve" smooth="yes"/>
      <point x="520" y="512"/>
      <point x="523" y="499"/>
      <point x="531" y="491" type="curve"/>
      <point x="568" y="483"/>
      <point x="592" y="451"/>
      <point x="592" y="400" type="curve" smooth="yes"/>
      <point x="592" y="321"/>
      <point x="499" y="285"/>
      <point x="358" y="223" type="curve" smooth="yes"/>
      <point x="283" y="190"/>
      <point x="201" y="146"/>
      <point x="201" y="67" type="curve" smooth="yes"/>
      <point x="201" y="16"/>
      <point x="236" y="-25"/>
    </contour>
  </outline>
</glyph>
<glyph name="kFive" format="2">
  <advance width="681"/>
  <unicode hex="0CEB"/>
  <outline>
    <contour>
      <point x="141" y="-15" type="curve" smooth="yes"/>
      <point x="290" y="-15"/>
      <point x="397" y="184"/>
      <point x="397" y="355" type="curve" smooth="yes"/>
      <point x="397" y="485"/>
      <point x="337" y="558"/>
      <point x="251" y="558" type="curve" smooth="yes"/>
      <point x="150" y="558"/>
      <point x="86" y="461"/>
      <point x="86" y="383" type="curve" smooth="yes"/>
      <point x="86" y="320"/>
      <point x="119" y="274"/>
      <point x="179" y="274" type="curve" smooth="yes"/>
      <point x="233" y="274"/>
      <point x="280" y="309"/>
      <point x="280" y="366" type="curve" smooth="yes"/>
      <point x="280" y="395"/>
      <point x="267" y="426"/>
      <point x="237" y="445" type="curve"/>
      <point x="214" y="430" type="line"/>
      <point x="226" y="417"/>
      <point x="231" y="399"/>
      <point x="231" y="387" type="curve" smooth="yes"/>
      <point x="231" y="359"/>
      <point x="205" y="338"/>
      <point x="173" y="338" type="curve" smooth="yes"/>
      <point x="145" y="338"/>
      <point x="123" y="354"/>
      <point x="123" y="388" type="curve" smooth="yes"/>
      <point x="123" y="428"/>
      <point x="169" y="471"/>
      <point x="238" y="471" type="curve" smooth="yes"/>
      <point x="319" y="471"/>
      <point x="354" y="412"/>
      <point x="354" y="328" type="curve" smooth="yes"/>
      <point x="354" y="204"/>
      <point x="253" y="77"/>
      <point x="151" y="77" type="curve" smooth="yes"/>
      <point x="119" y="77"/>
      <point x="93" y="90"/>
      <point x="93" y="122" type="curve" smooth="yes"/>
      <point x="93" y="204"/>
      <point x="246" y="235"/>
      <point x="401" y="267" type="curve" smooth="yes"/>
      <point x="542" y="296"/>
      <point x="676" y="335"/>
      <point x="676" y="460" type="curve" smooth="yes"/>
      <point x="676" y="529"/>
      <point x="629" y="558"/>
      <point x="590" y="558" type="curve" smooth="yes"/>
      <point x="523" y="558"/>
      <point x="464" y="498"/>
      <point x="464" y="405" type="curve" smooth="yes"/>
      <point x="464" y="357"/>
      <point x="475" y="332"/>
      <point x="486" y="306" type="curve" smooth="yes"/>
      <point x="501" y="270"/>
      <point x="517" y="226"/>
      <point x="517" y="169" type="curve" smooth="yes"/>
      <point x="517" y="92"/>
      <point x="485" y="49"/>
      <point x="417" y="4" type="curve"/>
      <point x="432" y="-15" type="line"/>
      <point x="530" y="16"/>
      <point x="588" y="83"/>
      <point x="588" y="151" type="curve" smooth="yes"/>
      <point x="588" y="204"/>
      <point x="549" y="263"/>
      <point x="522" y="313" type="curve"/>
      <point x="509" y="341"/>
      <point x="501" y="365"/>
      <point x="501" y="402" type="curve" smooth="yes"/>
      <point x="501" y="434"/>
      <point x="528" y="477"/>
      <point x="570" y="477" type="curve" smooth="yes"/>
      <point x="600" y="477"/>
      <point x="620" y="456"/>
      <point x="620" y="425" type="curve" smooth="yes"/>
      <point x="620" y="352"/>
      <point x="519" y="329"/>
      <point x="408" y="303" type="curve" smooth="yes"/>
      <point x="193" y="254"/>
      <point x="39" y="226"/>
      <point x="39" y="93" type="curve" smooth="yes"/>
      <point x="39" y="21"/>
      <point x="91" y="-15"/>
    </contour>
  </outline>
</glyph>
<glyph name="kSix" format="2">
  <advance width="564"/>
  <unicode hex="0CEC"/>
  <outline>
    <contour>
      <point x="506" y="0" type="line"/>
      <point x="519" y="94" type="line"/>
      <point x="181" y="94" type="line" smooth="yes"/>
      <point x="114" y="94"/>
      <point x="93" y="122"/>
      <point x="93" y="170" type="curve" smooth="yes"/>
      <point x="93" y="283"/>
      <point x="238" y="337"/>
      <point x="294" y="337" type="curve" smooth="yes"/>
      <point x="350" y="337"/>
      <point x="372" y="313"/>
      <point x="372" y="289" type="curve" smooth="yes"/>
      <point x="372" y="266"/>
      <point x="342" y="243"/>
      <point x="295" y="243" type="curve" smooth="yes"/>
      <point x="239" y="243"/>
      <point x="202" y="263"/>
      <point x="202" y="317" type="curve" smooth="yes"/>
      <point x="202" y="384"/>
      <point x="292" y="411"/>
      <point x="292" y="491" type="curve" smooth="yes"/>
      <point x="292" y="531"/>
      <point x="264" y="558"/>
      <point x="226" y="558" type="curve" smooth="yes"/>
      <point x="184" y="558"/>
      <point x="152" y="526"/>
      <point x="134" y="480" type="curve"/>
      <point x="150" y="469" type="line"/>
      <point x="166" y="486"/>
      <point x="187" y="493"/>
      <point x="203" y="493" type="curve" smooth="yes"/>
      <point x="229" y="493"/>
      <point x="243" y="477"/>
      <point x="243" y="457" type="curve" smooth="yes"/>
      <point x="243" y="411"/>
      <point x="169" y="380"/>
      <point x="169" y="300" type="curve" smooth="yes"/>
      <point x="169" y="223"/>
      <point x="225" y="186"/>
      <point x="286" y="186" type="curve" smooth="yes"/>
      <point x="372" y="186"/>
      <point x="410" y="239"/>
      <point x="410" y="288" type="curve" smooth="yes"/>
      <point x="410" y="329"/>
      <point x="379" y="368"/>
      <point x="299" y="368" type="curve" smooth="yes"/>
      <point x="157" y="368"/>
      <point x="30" y="246"/>
      <point x="30" y="130" type="curve" smooth="yes"/>
      <point x="30" y="54"/>
      <point x="80" y="0"/>
      <point x="170" y="0" type="curve" smooth="yes"/>
    </contour>
  </outline>
</glyph>
<glyph name="kSeven" format="2">
  <advance width="548"/>
  <unicode hex="0CED"/>
  <outline>
    <contour>
      <point x="490" y="0" type="line"/>
      <point x="503" y="94" type="line"/>
      <point x="190" y="94" type="line" smooth="yes"/>
      <point x="102" y="94"/>
      <point x="81" y="109"/>
      <point x="81" y="155" type="curve" smooth="yes"/>
      <point x="81" y="279"/>
      <point x="416" y="242"/>
      <point x="416" y="434" type="curve" smooth="yes"/>
      <point x="416" y="509"/>
      <point x="365" y="558"/>
      <point x="295" y="558" type="curve" smooth="yes"/>
      <point x="227" y="558"/>
      <point x="156" y="514"/>
      <point x="156" y="423" type="curve" smooth="yes"/>
      <point x="156" y="391"/>
      <point x="164" y="367"/>
      <point x="176" y="340" type="curve"/>
      <point x="202" y="348" type="line"/>
      <point x="198" y="360"/>
      <point x="194" y="376"/>
      <point x="194" y="392" type="curve" smooth="yes"/>
      <point x="194" y="440"/>
      <point x="234" y="471"/>
      <point x="284" y="471" type="curve" smooth="yes"/>
      <point x="332" y="471"/>
      <point x="358" y="443"/>
      <point x="358" y="406" type="curve" smooth="yes"/>
      <point x="358" y="270"/>
      <point x="18" y="314"/>
      <point x="18" y="119" type="curve" smooth="yes"/>
      <point x="18" y="46"/>
      <point x="71" y="0"/>
      <point x="176" y="0" type="curve" smooth="yes"/>
    </contour>
  </outline>
</glyph>
<glyph name="kEight" format="2">
  <advance width="671"/>
  <unicode hex="0CEE"/>
  <outline>
    <contour>
      <point x="304" y="-15" type="curve" smooth="yes"/>
      <point x="514" y="-15"/>
      <point x="594" y="157"/>
      <point x="594" y="255" type="curve" smooth="yes"/>
      <point x="594" y="348"/>
      <point x="533" y="382"/>
      <point x="533" y="419" type="curve" smooth="yes"/>
      <point x="533" y="445"/>
      <point x="550" y="460"/>
      <point x="598" y="460" type="curve" smooth="yes"/>
      <point x="682" y="460" type="line"/>
      <point x="694" y="548" type="line"/>
      <point x="590" y="548" type="line" smooth="yes"/>
      <point x="522" y="548"/>
      <point x="474" y="519"/>
      <point x="474" y="456" type="curve" smooth="yes"/>
      <point x="474" y="389"/>
      <point x="554" y="352"/>
      <point x="554" y="262" type="curve" smooth="yes"/>
      <point x="554" y="181"/>
      <point x="470" y="96"/>
      <point x="322" y="96" type="curve" smooth="yes"/>
      <point x="181" y="96"/>
      <point x="114" y="160"/>
      <point x="114" y="270" type="curve" smooth="yes"/>
      <point x="114" y="383"/>
      <point x="204" y="471"/>
      <point x="279" y="471" type="curve" smooth="yes"/>
      <point x="330" y="471"/>
      <point x="354" y="441"/>
      <point x="354" y="403" type="curve" smooth="yes"/>
      <point x="354" y="371"/>
      <point x="317" y="343"/>
      <point x="272" y="343" type="curve" smooth="yes"/>
      <point x="227" y="343"/>
      <point x="180" y="361"/>
      <point x="182" y="457" type="curve"/>
      <point x="139" y="402" type="line"/>
      <point x="160" y="396" type="line"/>
      <point x="164" y="301"/>
      <point x="212" y="269"/>
      <point x="261" y="269" type="curve" smooth="yes"/>
      <point x="327" y="269"/>
      <point x="394" y="328"/>
      <point x="394" y="426" type="curve" smooth="yes"/>
      <point x="394" y="499"/>
      <point x="365" y="558"/>
      <point x="301" y="558" type="curve" smooth="yes"/>
      <point x="196" y="558"/>
      <point x="71" y="406"/>
      <point x="71" y="240" type="curve" smooth="yes"/>
      <point x="71" y="123"/>
      <point x="132" y="-15"/>
    </contour>
  </outline>
</glyph>
<glyph name="kNine" format="2">
  <advance width="558"/>
  <unicode hex="0CEF"/>
  <outline>
    <contour>
      <point x="216" y="-19" type="curve" smooth="yes"/>
      <point x="236" y="-19"/>
      <point x="246" y="-14"/>
      <point x="246" y="23" type="curve" smooth="yes"/>
      <point x="246" y="35"/>
      <point x="245" y="54"/>
      <point x="242" y="67" type="curve"/>
      <point x="166" y="78"/>
      <point x="128" y="127"/>
      <point x="128" y="177" type="curve" smooth="yes"/>
      <point x="128" y="272"/>
      <point x="221" y="328"/>
      <point x="285" y="328" type="curve" smooth="yes"/>
      <point x="335" y="328"/>
      <point x="359" y="310"/>
      <point x="359" y="281" type="curve" smooth="yes"/>
      <point x="359" y="261"/>
      <point x="331" y="233"/>
      <point x="276" y="233" type="curve" smooth="yes"/>
      <point x="188" y="233"/>
      <point x="126" y="274"/>
      <point x="126" y="335" type="curve" smooth="yes"/>
      <point x="126" y="415"/>
      <point x="209" y="460"/>
      <point x="323" y="460" type="curve" smooth="yes"/>
      <point x="589" y="460" type="line"/>
      <point x="602" y="548" type="line"/>
      <point x="312" y="548" type="line" smooth="yes"/>
      <point x="174" y="548"/>
      <point x="82" y="487"/>
      <point x="82" y="365" type="curve" smooth="yes"/>
      <point x="82" y="279"/>
      <point x="160" y="176"/>
      <point x="272" y="176" type="curve" smooth="yes"/>
      <point x="364" y="176"/>
      <point x="396" y="233"/>
      <point x="396" y="279" type="curve" smooth="yes"/>
      <point x="396" y="321"/>
      <point x="361" y="360"/>
      <point x="289" y="360" type="curve" smooth="yes"/>
      <point x="184" y="360"/>
      <point x="80" y="282"/>
      <point x="80" y="155" type="curve" smooth="yes"/>
      <point x="80" y="54"/>
      <point x="159" y="-19"/>
    </contour>
  </outline>
</glyph>
<glyph name="vKarshana" format="2">
  <unicode hex="1CD0"/>
  <outline>
    <contour>
      <point x="114" y="811" type="line"/>
      <point x="230" y="665" type="line"/>
      <point x="265" y="695" type="line"/>
      <point x="122" y="875" type="line"/>
      <point x="-91" y="700" type="line"/>
      <point x="-62" y="665" type="line"/>
    </contour>
  </outline>
</glyph>
<glyph name="vPrenkha" format="2">
  <unicode hex="1CD2"/>
  <outline>
    <contour>
      <point x="240" y="675" type="line"/>
      <point x="249" y="723" type="line"/>
      <point x="-64" y="723" type="line"/>
      <point x="-73" y="675" type="line"/>
    </contour>
  </outline>
</glyph>
<glyph name="vSvarita2" format="2">
  <unicode hex="1CDA"/>
  <outline>
    <contour>
      <point x="153" y="645" type="line"/>
      <point x="202" y="897" type="line"/>
      <point x="160" y="897" type="line"/>
      <point x="111" y="645" type="line"/>
    </contour>
    <contour>
      <point x="43" y="645" type="line"/>
      <point x="92" y="897" type="line"/>
      <point x="50" y="897" type="line"/>
      <point x="1" y="645" type="line"/>
    </contour>
  </outline>
</glyph>
<glyph name="vCandraAbove" format="2">
  <unicode hex="1CF4"/>
  <outline>
    <contour>
      <point x="90" y="635" type="curve" smooth="yes"/>
      <point x="190" y="635"/>
      <point x="251" y="697"/>
      <point x="284" y="819" type="curve"/>
      <point x="255" y="826" type="line"/>
      <point x="221" y="756"/>
      <point x="174" y="722"/>
      <point x="104" y="722" type="curve" smooth="yes"/>
      <point x="29" y="722"/>
      <point x="-24" y="756"/>
      <point x="-32" y="825" type="curve"/>
      <point x="-62" y="819" type="line"/>
      <point x="-64" y="690"/>
      <point x="19" y="635"/>
    </contour>
  </outline>
</glyph>
<glyph name="kJihvamuliya" format="2">
  <advance width="488"/>
  <unicode hex="1CF5"/>
  <unicode hex="0CF1"/>
  <outline>
    <contour>
      <point x="109" y="91" type="line"/>
      <point x="520" y="542" type="line"/>
      <point x="518" y="548" type="line"/>
      <point x="86" y="548" type="line"/>
      <point x="82" y="542" type="line"/>
      <point x="325" y="91" type="line"/>
      <point x="322" y="88" type="line"/>
      <point x="110" y="88" type="line"/>
    </contour>
    <contour>
      <point x="412" y="0" type="line"/>
      <point x="416" y="6" type="line"/>
      <point x="172" y="457" type="line"/>
      <point x="174" y="460" type="line"/>
      <point x="388" y="460" type="line"/>
      <point x="390" y="457" type="line"/>
      <point x="-22" y="6" type="line"/>
      <point x="-20" y="0" type="line"/>
    </contour>
  </outline>
</glyph>
<glyph name="kUpadhmaniya" format="2">
  <advance width="980"/>
  <unicode hex="1CF6"/>
  <unicode hex="0CF2"/>
  <outline>
    <contour>
      <point x="689" y="42" type="curve" smooth="yes"/>
      <point x="832" y="42"/>
      <point x="922" y="158"/>
      <point x="922" y="287" type="curve" smooth="yes"/>
      <point x="922" y="398"/>
      <point x="852" y="468"/>
      <point x="752" y="468" type="curve" smooth="yes"/>
      <point x="627" y="468"/>
      <point x="517" y="370"/>
      <point x="517" y="226" type="curve" smooth="yes"/>
      <point x="517" y="118"/>
      <point x="589" y="42"/>
    </contour>
    <contour>
      <point x="234" y="42" type="curve" smooth="yes"/>
      <point x="377" y="42"/>
      <point x="467" y="158"/>
      <point x="467" y="287" type="curve" smooth="yes"/>
      <point x="467" y="398"/>
      <point x="397" y="468"/>
      <point x="297" y="468" type="curve" smooth="yes"/>
      <point x="172" y="468"/>
      <point x="62" y="370"/>
      <point x="62" y="226" type="curve" smooth="yes"/>
      <point x="62" y="118"/>
      <point x="134" y="42"/>
    </contour>
    <contour>
      <point x="251" y="153" type="curve" smooth="yes"/>
      <point x="173" y="153"/>
      <point x="121" y="193"/>
      <point x="121" y="274" type="curve" smooth="yes"/>
      <point x="121" y="357"/>
      <point x="200" y="432"/>
      <point x="288" y="432" type="curve" smooth="yes"/>
      <point x="372" y="432"/>
      <point x="420" y="378"/>
      <point x="420" y="302" type="curve" smooth="yes"/>
      <point x="420" y="218"/>
      <point x="338" y="153"/>
    </contour>
    <contour>
      <point x="706" y="153" type="curve" smooth="yes"/>
      <point x="628" y="153"/>
      <point x="576" y="193"/>
      <point x="576" y="274" type="curve" smooth="yes"/>
      <point x="576" y="357"/>
      <point x="655" y="432"/>
      <point x="743" y="432" type="curve" smooth="yes"/>
      <point x="827" y="432"/>
      <point x="875" y="378"/>
      <point x="875" y="302" type="curve" smooth="yes"/>
      <point x="875" y="218"/>
      <point x="793" y="153"/>
    </contour>
  </outline>
</glyph>
<glyph name="flowerpunc" format="2">
  <advance width="610"/>
  <unicode hex="2055"/>
  <outline>
    <contour>
      <point x="143" y="336" type="curve" smooth="yes"/>
      <point x="170" y="310"/>
      <point x="243" y="283"/>
      <point x="292" y="237" type="curve"/>
      <point x="301" y="246" type="line"/>
      <point x="236" y="315"/>
      <point x="221" y="410"/>
      <point x="170" y="410" type="curve" smooth="yes"/>
      <point x="146" y="410"/>
      <point x="128" y="389"/>
      <point x="128" y="368" type="curve" smooth="yes"/>
      <point x="128" y="357"/>
      <point x="133" y="345"/>
    </contour>
    <contour>
      <point x="471" y="126" type="curve" smooth="yes"/>
      <point x="444" y="154"/>
      <point x="371" y="179"/>
      <point x="322" y="225" type="curve"/>
      <point x="313" y="216" type="line"/>
      <point x="378" y="147"/>
      <point x="393" y="52"/>
      <point x="444" y="52" type="curve" smooth="yes"/>
      <point x="468" y="52"/>
      <point x="486" y="73"/>
      <point x="486" y="94" type="curve" smooth="yes"/>
      <point x="486" y="105"/>
      <point x="480" y="117"/>
    </contour>
    <contour>
      <point x="202" y="67" type="curve" smooth="yes"/>
      <point x="228" y="94"/>
      <point x="255" y="167"/>
      <point x="301" y="216" type="curve"/>
      <point x="292" y="225" type="line"/>
      <point x="224" y="160"/>
      <point x="128" y="145"/>
      <point x="128" y="94" type="curve" smooth="yes"/>
      <point x="128" y="73"/>
      <point x="146" y="52"/>
      <point x="170" y="52" type="curve" smooth="yes"/>
      <point x="181" y="52"/>
      <point x="193" y="57"/>
    </contour>
    <contour>
      <point x="412" y="395" type="curve" smooth="yes"/>
      <point x="384" y="367"/>
      <point x="359" y="295"/>
      <point x="313" y="246" type="curve"/>
      <point x="322" y="237" type="line"/>
      <point x="390" y="301"/>
      <point x="486" y="318"/>
      <point x="486" y="368" type="curve" smooth="yes"/>
      <point x="486" y="389"/>
      <point x="468" y="410"/>
      <point x="445" y="410" type="curve" smooth="yes"/>
      <point x="433" y="410"/>
      <point x="421" y="404"/>
    </contour>
    <contour>
      <point x="265" y="421" type="curve" smooth="yes"/>
      <point x="265" y="384"/>
      <point x="298" y="313"/>
      <point x="301" y="246" type="curve"/>
      <point x="313" y="246" type="line"/>
      <point x="316" y="313"/>
      <point x="349" y="384"/>
      <point x="349" y="421" type="curve" smooth="yes"/>
      <point x="349" y="446"/>
      <point x="333" y="466"/>
      <point x="307" y="466" type="curve" smooth="yes"/>
      <point x="281" y="466"/>
      <point x="265" y="446"/>
    </contour>
    <contour>
      <point x="349" y="41" type="curve" smooth="yes"/>
      <point x="349" y="78"/>
      <point x="316" y="149"/>
      <point x="313" y="216" type="curve"/>
      <point x="301" y="216" type="line"/>
      <point x="298" y="149"/>
      <point x="265" y="78"/>
      <point x="265" y="41" type="curve" smooth="yes"/>
      <point x="265" y="16"/>
      <point x="281" y="-4"/>
      <point x="307" y="-4" type="curve" smooth="yes"/>
      <point x="333" y="-4"/>
      <point x="349" y="16"/>
    </contour>
    <contour>
      <point x="262" y="231" type="curve" smooth="yes"/>
      <point x="262" y="206"/>
      <point x="282" y="186"/>
      <point x="307" y="186" type="curve" smooth="yes"/>
      <point x="332" y="186"/>
      <point x="352" y="206"/>
      <point x="352" y="231" type="curve" smooth="yes"/>
      <point x="352" y="256"/>
      <point x="332" y="276"/>
      <point x="307" y="276" type="curve" smooth="yes"/>
      <point x="282" y="276"/>
      <point x="262" y="256"/>
    </contour>
    <contour>
      <point x="117" y="189" type="curve" smooth="yes"/>
      <point x="154" y="189"/>
      <point x="225" y="222"/>
      <point x="292" y="225" type="curve"/>
      <point x="292" y="237" type="line"/>
      <point x="225" y="240"/>
      <point x="154" y="273"/>
      <point x="117" y="273" type="curve" smooth="yes"/>
      <point x="92" y="273"/>
      <point x="72" y="257"/>
      <point x="72" y="231" type="curve" smooth="yes"/>
      <point x="72" y="205"/>
      <point x="92" y="189"/>
    </contour>
    <contour>
      <point x="497" y="273" type="curve" smooth="yes"/>
      <point x="460" y="273"/>
      <point x="389" y="240"/>
      <point x="322" y="237" type="curve"/>
      <point x="322" y="225" type="line"/>
      <point x="389" y="222"/>
      <point x="460" y="189"/>
      <point x="497" y="189" type="curve" smooth="yes"/>
      <point x="522" y="189"/>
      <point x="542" y="205"/>
      <point x="542" y="231" type="curve" smooth="yes"/>
      <point x="542" y="257"/>
      <point x="522" y="273"/>
    </contour>
  </outline>
  <guideline angle="90" x="307" y="0"/>
</glyph>
<glyph name="niFractionOneHalf" format="2">
  <advance width="428"/>
  <unicode hex="A831"/>
  <outline>
    <contour>
      <point x="285" y="0" type="line"/>
      <point x="392" y="548" type="line"/>
      <point x="344" y="548" type="line"/>
      <point x="237" y="0" type="line"/>
    </contour>
    <contour>
      <point x="95" y="0" type="line"/>
      <point x="202" y="548" type="line"/>
      <point x="154" y="548" type="line"/>
      <point x="47" y="0" type="line"/>
    </contour>
  </outline>
</glyph>
<glyph name="niFractionThreeQuarters" format="2">
  <advance width="618"/>
  <unicode hex="A832"/>
  <outline>
    <contour>
      <point x="475" y="0" type="line"/>
      <point x="582" y="548" type="line"/>
      <point x="534" y="548" type="line"/>
      <point x="427" y="0" type="line"/>
    </contour>
    <contour>
      <point x="95" y="0" type="line"/>
      <point x="202" y="548" type="line"/>
      <point x="154" y="548" type="line"/>
      <point x="47" y="0" type="line"/>
    </contour>
    <contour>
      <point x="285" y="0" type="line"/>
      <point x="392" y="548" type="line"/>
      <point x="344" y="548" type="line"/>
      <point x="237" y="0" type="line"/>
    </contour>
  </outline>
</glyph>
<glyph name="niFractionOneSixteenth" format="2">
  <advance width="618"/>
  <unicode hex="A833"/>
  <outline>
    <contour>
      <point x="591" y="492" type="line"/>
      <point x="601" y="543" type="line"/>
      <point x="133" y="543" type="line"/>
      <point x="123" y="492" type="line"/>
    </contour>
  </outline>
</glyph>
<glyph name="niFractionOneEighth" format="2">
  <advance width="618"/>
  <unicode hex="A834"/>
  <outline>
    <contour>
      <point x="590" y="492" type="line"/>
      <point x="600" y="543" type="line"/>
      <point x="132" y="543" type="line"/>
      <point x="122" y="492" type="line"/>
    </contour>
    <contour>
      <point x="543" y="249" type="line"/>
      <point x="553" y="300" type="line"/>
      <point x="85" y="300" type="line"/>
      <point x="75" y="249" type="line"/>
    </contour>
  </outline>
</glyph>
<glyph name="niFractionThreeSixteenths" format="2">
  <advance width="618"/>
  <unicode hex="A835"/>
  <outline>
    <contour>
      <point x="591" y="492" type="line"/>
      <point x="601" y="543" type="line"/>
      <point x="133" y="543" type="line"/>
      <point x="123" y="492" type="line"/>
    </contour>
    <contour>
      <point x="496" y="5" type="line"/>
      <point x="506" y="56" type="line"/>
      <point x="38" y="56" type="line"/>
      <point x="28" y="5" type="line"/>
    </contour>
    <contour>
      <point x="543" y="249" type="line"/>
      <point x="553" y="300" type="line"/>
      <point x="85" y="300" type="line"/>
      <point x="75" y="249" type="line"/>
    </contour>
  </outline>
</glyph>
<glyph name="kB" format="2">
  <advance width="1011"/>
  <outline>
    <contour>
      <point x="191" y="-15" type="curve" smooth="yes"/>
      <point x="273" y="-15"/>
      <point x="349" y="39"/>
      <point x="385" y="136" type="curve"/>
      <point x="405" y="136" type="line"/>
      <point x="414" y="244" type="line"/>
      <point x="398" y="244" type="line"/>
      <point x="363" y="145"/>
      <point x="292" y="96"/>
      <point x="219" y="96" type="curve" smooth="yes"/>
      <point x="144" y="96"/>
      <point x="120" y="128"/>
      <point x="120" y="175" type="curve" smooth="yes"/>
      <point x="120" y="274"/>
      <point x="338" y="302"/>
      <point x="338" y="442" type="curve" smooth="yes"/>
      <point x="338" y="512"/>
      <point x="289" y="558"/>
      <point x="218" y="558" type="curve" smooth="yes"/>
      <point x="139" y="558"/>
      <point x="72" y="504"/>
      <point x="72" y="427" type="curve" smooth="yes"/>
      <point x="72" y="391"/>
      <point x="78" y="367"/>
      <point x="94" y="340" type="curve"/>
      <point x="119" y="348" type="line"/>
      <point x="113" y="360"/>
      <point x="112" y="374"/>
      <point x="112" y="389" type="curve" smooth="yes"/>
      <point x="112" y="442"/>
      <point x="162" y="471"/>
      <point x="203" y="471" type="curve" smooth="yes"/>
      <point x="256" y="471"/>
      <point x="279" y="446"/>
      <point x="279" y="409" type="curve" smooth="yes"/>
      <point x="279" y="316"/>
      <point x="55" y="292"/>
      <point x="55" y="125" type="curve" smooth="yes"/>
      <point x="55" y="41"/>
      <point x="103" y="-15"/>
    </contour>
    <contour>
      <point x="531" y="-15" type="curve" smooth="yes"/>
      <point x="662" y="-15"/>
      <point x="728" y="100"/>
      <point x="728" y="238" type="curve" smooth="yes"/>
      <point x="728" y="348"/>
      <point x="675" y="438"/>
      <point x="597" y="488" type="curve"/>
      <point x="491" y="460" type="line"/>
      <point x="626" y="456"/>
      <point x="684" y="367"/>
      <point x="684" y="255" type="curve" smooth="yes"/>
      <point x="684" y="174"/>
      <point x="630" y="96"/>
      <point x="541" y="96" type="curve" smooth="yes"/>
      <point x="451" y="96"/>
      <point x="409" y="158"/>
      <point x="414" y="244" type="curve"/>
      <point x="390" y="161" type="line"/>
      <point x="390" y="34"/>
      <point x="455" y="-15"/>
    </contour>
    <contour>
      <point x="896" y="290" type="curve" smooth="yes"/>
      <point x="957" y="290"/>
      <point x="1006" y="348"/>
      <point x="1006" y="419" type="curve" smooth="yes"/>
      <point x="1006" y="499"/>
      <point x="949" y="548"/>
      <point x="851" y="548" type="curve" smooth="yes"/>
      <point x="503" y="548" type="line"/>
      <point x="491" y="460" type="line"/>
      <point x="865" y="460" type="line" smooth="yes"/>
      <point x="931" y="460"/>
      <point x="968" y="441"/>
      <point x="968" y="406" type="curve" smooth="yes"/>
      <point x="968" y="375"/>
      <point x="938" y="354"/>
      <point x="902" y="354" type="curve" smooth="yes"/>
      <point x="865" y="354"/>
      <point x="840" y="372"/>
      <point x="840" y="426" type="curve" smooth="yes"/>
      <point x="840" y="441"/>
      <point x="842" y="449"/>
      <point x="850" y="481" type="curve"/>
      <point x="816" y="481" type="line"/>
      <point x="807" y="453"/>
      <point x="805" y="425"/>
      <point x="805" y="408" type="curve" smooth="yes"/>
      <point x="805" y="337"/>
      <point x="838" y="290"/>
    </contour>
    <contour>
      <point x="870" y="528" type="line"/>
      <point x="908" y="599"/>
      <point x="995" y="621"/>
      <point x="1046" y="621" type="curve" smooth="yes"/>
      <point x="1066" y="621"/>
      <point x="1077" y="618"/>
      <point x="1085" y="618" type="curve" smooth="yes"/>
      <point x="1096" y="618"/>
      <point x="1119" y="661"/>
      <point x="1119" y="674" type="curve"/>
      <point x="1119" y="676"/>
      <point x="1119" y="679"/>
      <point x="1114" y="680" type="curve" smooth="yes"/>
      <point x="1109" y="681"/>
      <point x="1102" y="682"/>
      <point x="1088" y="682" type="curve" smooth="yes"/>
      <point x="979" y="682"/>
      <point x="885" y="632"/>
      <point x="832" y="528" type="curve"/>
    </contour>
  </outline>
</glyph>
<glyph name="kBaa" format="2">
  <advance width="1298"/>
  <outline>
    <contour>
      <point x="969" y="-15" type="curve" smooth="yes"/>
      <point x="1140" y="-15"/>
      <point x="1239" y="159"/>
      <point x="1239" y="292" type="curve" smooth="yes"/>
      <point x="1239" y="445"/>
      <point x="1141" y="548"/>
      <point x="946" y="548" type="curve" smooth="yes"/>
      <point x="503" y="548" type="line"/>
      <point x="491" y="460" type="line"/>
      <point x="944" y="460" type="line" smooth="yes"/>
      <point x="1124" y="460"/>
      <point x="1195" y="374"/>
      <point x="1195" y="262" type="curve" smooth="yes"/>
      <point x="1195" y="169"/>
      <point x="1117" y="61"/>
      <point x="979" y="61" type="curve"/>
      <point x="878" y="61"/>
      <point x="840" y="105"/>
      <point x="840" y="169" type="curve" smooth="yes"/>
      <point x="840" y="223"/>
      <point x="890" y="289"/>
      <point x="969" y="289" type="curve"/>
      <point x="971" y="289"/>
      <point x="974" y="289"/>
      <point x="980" y="288" type="curve"/>
      <point x="951" y="273"/>
      <point x="939" y="248"/>
      <point x="939" y="225" type="curve" smooth="yes"/>
      <point x="939" y="191"/>
      <point x="959" y="166"/>
      <point x="998" y="166" type="curve" smooth="yes"/>
      <point x="1035" y="166"/>
      <point x="1076" y="195"/>
      <point x="1076" y="250" type="curve" smooth="yes"/>
      <point x="1076" y="299"/>
      <point x="1044" y="331"/>
      <point x="983" y="331" type="curve" smooth="yes"/>
      <point x="896" y="331"/>
      <point x="803" y="259"/>
      <point x="803" y="144" type="curve" smooth="yes"/>
      <point x="803" y="51"/>
      <point x="869" y="-15"/>
    </contour>
    <contour>
      <point x="191" y="-15" type="curve" smooth="yes"/>
      <point x="273" y="-15"/>
      <point x="349" y="39"/>
      <point x="385" y="136" type="curve"/>
      <point x="405" y="136" type="line"/>
      <point x="414" y="244" type="line"/>
      <point x="398" y="244" type="line"/>
      <point x="363" y="145"/>
      <point x="292" y="96"/>
      <point x="219" y="96" type="curve" smooth="yes"/>
      <point x="144" y="96"/>
      <point x="120" y="128"/>
      <point x="120" y="175" type="curve" smooth="yes"/>
      <point x="120" y="274"/>
      <point x="338" y="302"/>
      <point x="338" y="442" type="curve" smooth="yes"/>
      <point x="338" y="512"/>
      <point x="289" y="558"/>
      <point x="218" y="558" type="curve" smooth="yes"/>
      <point x="139" y="558"/>
      <point x="72" y="504"/>
      <point x="72" y="427" type="curve" smooth="yes"/>
      <point x="72" y="391"/>
      <point x="78" y="367"/>
      <point x="94" y="340" type="curve"/>
      <point x="119" y="348" type="line"/>
      <point x="113" y="360"/>
      <point x="112" y="374"/>
      <point x="112" y="389" type="curve" smooth="yes"/>
      <point x="112" y="442"/>
      <point x="162" y="471"/>
      <point x="203" y="471" type="curve" smooth="yes"/>
      <point x="256" y="471"/>
      <point x="279" y="446"/>
      <point x="279" y="409" type="curve" smooth="yes"/>
      <point x="279" y="316"/>
      <point x="55" y="292"/>
      <point x="55" y="125" type="curve" smooth="yes"/>
      <point x="55" y="41"/>
      <point x="103" y="-15"/>
    </contour>
    <contour>
      <point x="531" y="-15" type="curve" smooth="yes"/>
      <point x="662" y="-15"/>
      <point x="728" y="100"/>
      <point x="728" y="238" type="curve" smooth="yes"/>
      <point x="728" y="348"/>
      <point x="675" y="438"/>
      <point x="597" y="488" type="curve"/>
      <point x="491" y="460" type="line"/>
      <point x="626" y="456"/>
      <point x="684" y="367"/>
      <point x="684" y="255" type="curve" smooth="yes"/>
      <point x="684" y="174"/>
      <point x="630" y="96"/>
      <point x="541" y="96" type="curve" smooth="yes"/>
      <point x="451" y="96"/>
      <point x="409" y="158"/>
      <point x="414" y="244" type="curve"/>
      <point x="390" y="161" type="line"/>
      <point x="390" y="34"/>
      <point x="455" y="-15"/>
    </contour>
  </outline>
</glyph>
